<svg width="544" height="544" viewBox="0 0 544 544" fill="none" xmlns="http://www.w3.org/2000/svg">
<g clip-path="url(#clip0_1002_1113)">
<rect width="544" height="544" rx="272" fill="white"/>
<g clip-path="url(#clip1_1002_1113)">
<rect width="544" height="544" fill="#E95420"/>
<path d="M386.268 544.001C353.862 544.001 178.245 541.202 132.88 481.444C84.407 417.599 101.078 328.603 101.254 327.708C101.568 326.082 103.146 325.019 104.772 325.339C106.398 325.653 107.455 327.231 107.141 328.857C106.972 329.721 90.8385 416.143 137.661 477.817C184.81 539.92 389.012 538.022 391.074 537.974C391.086 537.974 391.098 537.974 391.11 537.974C392.748 537.974 394.09 539.292 394.108 540.936C394.126 542.592 392.802 543.952 391.146 543.976C390.517 543.982 388.843 544.001 386.268 544.001Z" fill="white"/>
<path d="M542.092 418.488C540.937 418.04 539.619 418.361 538.785 419.285C465.36 501.016 324.24 477.55 322.826 477.303C321.623 477.103 320.426 477.629 319.773 478.651C319.12 479.678 319.157 480.99 319.858 481.987C321.58 484.435 363.21 541.612 479.136 543.952C479.239 543.964 479.348 543.97 479.456 543.97H480.031C480.315 543.976 480.611 543.976 480.895 543.982C480.913 543.982 480.925 543.982 480.943 543.982C481.046 543.982 481.143 543.976 481.24 543.97H541.016C542.672 543.97 544.014 542.628 544.014 540.972V421.286C544.02 420.047 543.252 418.935 542.092 418.488Z" fill="white"/>
<path d="M390.338 537.998C345.577 531.633 332.714 519.99 318.194 502.963C314.997 499.209 310.596 493.019 305.029 485.191C285.009 457.035 251.509 409.916 213.077 392.139C166.968 370.807 119.934 356.59 116.113 355.453C108.032 351.452 104.937 342.929 106.913 330.12C112.124 296.439 150.411 247.319 174.07 243.965C202.154 239.981 211.42 228.333 218.184 219.822C220.046 217.483 221.648 215.464 223.389 213.934C231.404 206.856 245.851 202.534 245.996 202.486C247.374 202.081 248.269 200.757 248.13 199.324C247.997 197.898 246.867 196.761 245.44 196.622C241.493 196.235 237.262 195.691 232.849 195.129C217.199 193.147 198.66 190.795 182.484 193.981C177.703 193.225 174.215 191.351 171.87 188.208C164.58 178.434 167.705 157.102 171.664 130.082C174.469 110.938 177.649 89.25 177.963 66.1653C178.241 45.8308 172.257 29.7459 160.179 18.3455C138.485 -2.12794 105.178 -0.00019511 103.782 0.114654C102.422 0.21137 101.298 1.20875 101.05 2.54463C100.796 3.88656 101.473 5.22244 102.7 5.80878C102.93 5.91758 125.845 17.3421 119.795 53.6587C119.317 56.5058 118.743 59.6974 118.108 63.161C112.39 94.6601 102.815 147.376 127.598 177.612C136.726 188.74 149.807 195.728 166.526 198.569C137.439 197.862 116.657 190.529 103.111 176.137C80.6006 152.23 82.5349 113.647 84.2335 79.5966C84.7775 68.7464 85.2853 58.5006 84.9045 49.6088C82.7586 -0.67116 26.984 -0.0183305 26.4702 0.0118931C26.3372 0.0179378 26.2163 0.0844318 26.0773 0.102566H3.15573C1.49947 0.102566 0.157547 1.44449 0.157547 3.10074V111.035C0.157547 129.937 7.09084 146.439 20.77 160.088C54.2578 193.497 119.293 201.851 151.003 203.936C136.272 206.01 108.557 208.579 77.403 204.777C72.3012 204.154 67.0846 203.35 62.0434 202.576C40.8022 199.318 20.7338 196.235 9.24275 206.094C3.1255 211.347 0.151503 219.562 0.151503 231.21C0.151503 231.331 0.205903 231.434 0.217993 231.555C0.205903 231.67 0.151503 231.778 0.151503 231.899V310.722C0.151503 310.861 0.21195 310.982 0.230084 311.121C0.260308 311.327 0.284487 311.52 0.350978 311.708C0.41747 311.889 0.50814 312.046 0.604855 312.215C0.701571 312.379 0.792242 312.542 0.919181 312.687C1.04612 312.832 1.19724 312.947 1.34836 313.062C1.49947 313.177 1.64455 313.291 1.81984 313.376C1.99514 313.467 2.18857 313.515 2.382 313.563C2.51499 313.6 2.62984 313.678 2.76887 313.696C2.90789 313.715 3.03483 313.721 3.15573 313.721C3.54863 313.721 3.91736 313.636 4.26795 313.497C4.39489 313.443 4.49765 313.352 4.61855 313.285C4.81802 313.171 5.02354 313.056 5.1928 312.898C5.30765 312.79 5.38623 312.663 5.48294 312.536C5.61593 312.367 5.74287 312.203 5.83958 312.004C5.91212 311.853 5.94234 311.696 5.9907 311.538C6.03301 311.387 6.11159 311.254 6.12973 311.097C6.46823 308.431 15.0276 245.857 67.3264 243.892C83.901 243.269 101.122 238.264 116.065 232.341C99.98 245.343 80.8968 263.15 54.2034 290.376C-4.53315 350.297 -0.0600626 464.452 0.157547 469.142V540.972C0.157547 542.628 1.49947 543.97 3.15573 543.97H389.915C391.492 543.97 392.798 542.749 392.907 541.183C393.016 539.612 391.897 538.221 390.338 537.998ZM171.247 211.758C171.876 210.229 173.635 209.492 175.152 210.12C175.757 210.362 189.762 215.863 200.467 206.324C201.7 205.224 203.599 205.333 204.705 206.572C205.805 207.811 205.696 209.709 204.457 210.809C198.201 216.376 191.14 217.906 185.283 217.906C178.465 217.906 173.272 215.832 172.879 215.675C171.35 215.047 170.619 213.294 171.247 211.758Z" fill="white"/>
<path d="M102.68 338.964C102.68 338.964 99.5185 353.773 125.716 361.595C151.914 369.417 220.975 394.291 241.962 415.103C262.949 435.915 308.061 495.346 313.169 501.506C318.277 507.666 342.069 532.207 371.857 539.521L295.216 537.357C295.216 537.357 175.011 523.394 144.527 489.483C114.044 455.572 94.8217 413.586 102.68 338.964Z" fill="white"/>
<path d="M544.017 3.10658C544.017 2.91315 543.944 2.74994 543.908 2.56255C543.872 2.36912 543.866 2.16965 543.793 1.99435C543.721 1.80696 543.588 1.65585 543.479 1.49264C543.376 1.33548 543.298 1.16622 543.171 1.03324C543.032 0.888166 542.856 0.797495 542.693 0.682645C542.542 0.57384 542.403 0.446901 542.234 0.374364C542.046 0.289738 541.841 0.271606 541.635 0.229293C541.466 0.193024 541.309 0.114443 541.127 0.108398C541.091 0.108398 541.055 0.108398 541.013 0.108398C540.608 0.108398 540.221 0.193025 539.864 0.338098C539.725 0.392501 539.622 0.501303 539.501 0.57384C539.302 0.694734 539.09 0.797495 538.921 0.960702C538.8 1.0816 538.728 1.23272 538.631 1.37174C538.504 1.541 538.365 1.69816 538.28 1.89159C538.208 2.0548 538.202 2.23614 538.159 2.41144C538.111 2.60487 538.033 2.78016 538.027 2.98568C529.328 230.648 468.464 343.176 418.934 397.488C365.48 456.098 313.429 461.26 312.909 461.308C311.41 461.435 310.237 462.656 310.171 464.167C310.104 465.672 311.156 466.99 312.643 467.25C313.121 467.335 327.924 469.819 350.308 469.819C402.057 469.819 494.305 456.539 543.636 369.658C543.92 369.156 543.993 368.612 543.974 368.074C543.968 367.984 544.017 367.905 544.017 367.808V3.10658Z" fill="white"/>
<path d="M299.693 175.458C314.986 175.458 327.387 162.962 327.387 147.546C327.387 132.131 314.986 119.634 299.693 119.634C284.397 119.634 272 132.131 272 147.546C272 162.962 284.397 175.458 299.693 175.458ZM415.037 114.254C430.333 114.254 442.731 101.757 442.731 86.342C442.731 70.9265 430.333 58.4297 415.037 58.4297C399.745 58.4297 387.344 70.9265 387.344 86.342C387.344 101.757 399.745 114.254 415.037 114.254ZM362.154 219.396C342.202 215.088 325.533 202.25 316.16 184.035C308.756 187.424 300.487 188.447 292.48 186.964C303.819 215.035 327.868 235.422 357.395 241.803C363.872 243.203 370.472 243.883 377.062 243.84C371.975 237.105 369.139 228.939 368.957 220.501C366.675 220.247 364.408 219.875 362.164 219.386L362.154 219.396ZM408.805 247.458C424.101 247.458 436.499 234.961 436.499 219.546C436.499 204.13 424.101 191.633 408.805 191.633C393.513 191.633 381.112 204.13 381.112 219.546C381.112 234.961 393.513 247.458 408.805 247.458ZM447.344 209.294C455.957 198.349 462.023 185.415 464.938 171.671C467.451 159.793 467.592 147.536 465.351 135.605C463.11 123.673 458.532 112.302 451.881 102.145C448.695 109.722 443.26 116.138 436.31 120.526C443.795 134.753 446.06 151.152 442.711 166.875C441.094 174.523 438.181 181.837 434.098 188.502C440.592 193.871 445.23 201.15 447.354 209.304L447.344 209.294ZM297.561 107.515C301.072 107.326 304.593 107.611 308.028 108.364C312.542 109.339 316.784 111.06 320.671 113.501C333.141 95.4261 353.259 84.5809 375.059 84.1763C375.494 75.951 378.425 68.0536 383.463 61.5373C348.629 58.758 314.784 76.8765 297.548 107.525L297.561 107.515Z" fill="white"/>
</g>
</g>
<rect x="1.5" y="1.5" width="541" height="541" rx="270.5" stroke="#E95420" stroke-width="3"/>
<defs>
<clipPath id="clip0_1002_1113">
<rect width="544" height="544" rx="272" fill="white"/>
</clipPath>
<clipPath id="clip1_1002_1113">
<rect width="544" height="544" fill="white"/>
</clipPath>
</defs>
</svg>
