<svg width="756" height="378" viewBox="0 0 756 378" fill="none" xmlns="http://www.w3.org/2000/svg">
<path d="M378.564 338.737C460.782 338.737 527.433 272.086 527.433 189.868C527.433 107.651 460.782 41 378.564 41C296.347 41 229.696 107.651 229.696 189.868C229.696 272.086 296.347 338.737 378.564 338.737Z" fill="url(#paint0_linear_2_6)"/>
<path d="M378.47 329.028C455.219 329.028 517.436 266.811 517.436 190.062C517.436 113.314 455.219 51.0965 378.47 51.0965C301.721 51.0965 239.504 113.314 239.504 190.062C239.504 266.811 301.721 329.028 378.47 329.028Z" stroke="white" stroke-width="4.19377" stroke-miterlimit="10"/>
<path d="M465.952 227.733C466.135 228.587 466.392 229.882 466.13 231.518C465.968 232.514 465.774 233.808 464.762 235.04C463.619 236.435 462.162 236.886 461.69 237.022C460.343 237.42 459.168 237.237 458.508 237.137C457.858 237.043 457.386 236.901 457.15 236.828C454.875 236.146 454.734 236.351 450.472 235.24C447.505 234.459 446.021 234.071 445.46 233.84C445.392 233.808 445.083 233.683 444.653 233.599C444.191 233.515 443.678 233.426 443.18 233.63C442.498 233.913 442.184 234.616 441.943 235.161C441.728 235.638 441.654 236.036 441.638 236.12C441.214 238.285 439.578 242.752 439.075 244.073C438.483 245.614 437.953 246.71 437.502 247.653C436.889 248.927 435.358 251.978 432.842 255.606C431.694 257.257 429.23 260.622 425.445 264.339C424.46 265.309 422.185 267.479 418.95 269.901C417.718 270.824 412.24 274.865 403.895 278.435C402.458 279.049 401.247 279.515 400.398 279.835H400.361V217.888C400.361 216.876 401.1 216.053 402.007 216.053H426.578C427.165 217.594 428.654 218.69 430.394 218.69C432.648 218.69 434.472 216.866 434.472 214.611C434.472 212.357 432.648 210.533 430.394 210.533C428.554 210.533 426.992 211.76 426.488 213.442H399.638C398.637 213.442 397.829 214.276 397.829 215.303V280.711H397.719C395.407 281.413 393.379 281.895 391.733 282.236C390.265 282.54 388.372 282.928 385.835 283.185C385.416 283.227 383.591 283.405 381.159 283.447C380.215 283.463 379.413 283.452 378.816 283.442V189.098C378.816 188.023 379.728 187.153 380.85 187.153H406.17C406.814 188.547 408.225 189.512 409.865 189.512C412.114 189.512 413.939 187.682 413.939 185.433C413.939 183.184 412.114 181.355 409.865 181.355C408.046 181.355 406.505 182.545 405.981 184.191H378.045C376.944 184.191 376.048 185.203 376.048 186.45V283.489C373.83 283.442 371.875 283.29 370.255 283.111C369.595 283.038 367.587 282.813 364.971 282.325C363.304 282.016 361.737 281.665 360.264 281.292V206.968C360.264 205.841 359.509 204.929 358.576 204.929H337.822C337.36 203.183 335.772 201.899 333.88 201.899C331.625 201.899 329.801 203.723 329.801 205.978C329.801 208.232 331.625 210.056 333.88 210.056C335.604 210.056 337.083 208.987 337.675 207.472H356.19C357.239 207.472 358.093 208.342 358.093 209.416V280.59H358.015C356.992 280.254 355.567 279.756 353.9 279.075C345.433 275.647 339.767 271.348 338.131 270.069C332.417 265.597 328.774 261.147 327.122 258.982C326.09 257.629 324.014 254.788 321.912 250.914C321.319 249.823 320.276 247.894 319.201 245.263C318.447 243.417 317.807 241.556 317.513 240.691C316.911 238.941 316.612 238.065 316.523 237.724C316.47 237.525 316.213 236.529 315.736 235.303C315.495 234.684 315.259 234.17 314.735 233.793C314.368 233.525 313.985 233.426 313.823 233.384C313.204 233.227 312.67 233.305 312.423 233.342C312.266 233.368 312.151 233.4 312.093 233.41C310.987 233.688 310.431 233.829 309.503 234.17C308.78 234.438 307.139 234.862 303.852 235.711C300.345 236.624 301.913 236.126 299.077 236.818C298.825 236.88 298.264 237.017 297.504 237.08C296.408 237.174 295.575 237.048 295.407 237.022C294.657 236.907 293.415 236.713 292.235 235.801C291.161 234.972 290.684 233.966 290.427 233.41C289.688 231.806 289.751 230.364 289.787 229.683C289.845 228.629 290.086 227.859 290.427 226.773C290.747 225.762 291.108 224.933 291.475 224.095C291.884 223.156 292.23 222.47 292.319 222.286C297.09 212.73 297.944 210.643 300.707 205.773C302.175 203.189 304.57 199.136 307.815 194.356C308.706 193.04 311.773 188.573 316.171 183.085C317.55 181.371 319.301 179.195 321.733 176.474C323.227 174.813 325.576 172.27 326.451 171.321C329.036 168.532 328.989 168.622 329.424 168.087C330.037 167.337 331.935 164.936 333.649 161.361C334.891 158.761 335.484 156.696 336.066 154.635C336.731 152.266 336.747 151.637 337.927 145.461C338.068 144.717 338.849 140.644 339.819 136.026C340.558 132.508 340.925 130.747 341.198 129.672C341.822 127.224 343.148 122.139 346.498 116.53C347.986 114.04 351.032 109.054 356.751 104.861C359.283 103.005 361.527 101.904 362.46 101.464C363.21 101.112 366.371 99.6655 370.884 98.7848C372.258 98.5175 375.712 97.9199 380.242 98.1138C383.869 98.2659 391.45 98.5542 398.998 103.335C404.262 106.669 407.218 110.669 408.859 112.928C413.96 119.942 415.742 127.187 416.827 131.606C417.105 132.723 417.514 134.851 418.337 139.108C419.805 146.709 419.978 148.544 421.068 152.67C421.891 155.783 422.468 157.927 423.715 160.758C424.528 162.593 425.954 165.765 428.664 169.151C428.989 169.56 428.858 169.376 432.009 172.973C433.55 174.734 435.154 176.569 436.103 177.67C439.269 181.355 441.612 184.464 442.745 185.968C445.696 189.9 447.746 192.993 449.093 195.027C450.823 197.648 452.7 200.489 454.943 204.436C456.804 207.697 458.146 210.355 459.168 212.384C459.645 213.338 460.573 215.283 462.429 219.172C462.581 219.487 462.964 220.289 463.451 221.353C463.918 222.386 464.301 223.219 464.704 224.21C465.407 225.935 465.758 226.8 465.952 227.733Z" fill="white"/>
<defs>
<linearGradient id="paint0_linear_2_6" x1="229.701" y1="189.868" x2="527.433" y2="189.868" gradientUnits="userSpaceOnUse">
<stop stop-color="#17B2D3"/>
<stop offset="0.81" stop-color="#6284BD"/>
</linearGradient>
</defs>
</svg>
