<svg width="756" height="378" viewBox="0 0 756 378" fill="none" xmlns="http://www.w3.org/2000/svg">
<path d="M289.65 293.073C292.136 293.073 294.622 293.073 297.183 293.073C297.183 296.214 297.183 299.354 297.183 302.588C300.192 302.588 303.201 302.588 306.301 302.588C306.301 299.448 306.301 296.308 306.301 293.073C308.918 293.073 311.535 293.073 314.231 293.073C314.231 301.708 314.231 310.343 314.231 319.239C311.614 319.239 308.997 319.239 306.301 319.239C306.301 315.969 306.301 312.697 306.301 309.327C303.292 309.327 300.283 309.327 297.183 309.327C297.183 312.599 297.183 315.869 297.183 319.239C294.697 319.239 292.211 319.239 289.65 319.239C289.65 310.604 289.65 301.969 289.65 293.073Z" fill="#0085FF"/>
<path d="M342.091 295.728C344.599 298.107 346.326 300.992 346.635 304.459C346.704 307.541 346.649 310.222 344.916 312.876C344.723 313.18 344.531 313.485 344.332 313.799C341.921 317.242 338.708 318.974 334.639 319.85C330.68 320.373 326.862 319.639 323.639 317.242C320.565 314.609 318.246 311.747 317.823 307.603C317.768 302.737 318.791 299.837 322.17 296.304C327.744 291.133 336.118 291.005 342.091 295.728ZM326.744 302.678C325.693 304.23 325.704 305.918 325.886 307.722C326.611 309.854 327.931 311.332 329.85 312.479C331.748 313.124 333.305 313.058 335.128 312.231C336.879 311.223 337.929 310.049 338.572 308.118C338.881 305.64 338.704 303.716 337.234 301.654C335.887 300.249 334.304 299.547 332.403 299.222C329.785 299.692 328.396 300.664 326.744 302.678Z" fill="#0085FF"/>
<path d="M374.588 295.939C377.393 298.442 378.943 301.125 379.423 304.914C379.567 308.647 378.445 311.9 376.099 314.816C372.917 318.163 369.658 319.771 365.029 320.008C360.953 319.884 357.295 318.412 354.28 315.668C351.573 312.784 350.171 309.361 350.245 305.396C350.607 301.561 352.404 298.242 355.235 295.663C361.111 291.033 368.803 291.251 374.588 295.939ZM359.696 301.883C358.481 303.844 358.067 305.437 358.443 307.699C358.935 309.497 359.933 310.593 361.331 311.77C363.419 312.853 364.953 313.066 367.228 312.438C369.161 311.292 370.562 310.123 371.236 307.919C371.558 305.826 371.354 304.256 370.267 302.43C369.001 300.704 367.753 299.702 365.643 299.331C363.169 299.185 361.412 300.166 359.696 301.883Z" fill="#0085FF"/>
<path d="M408.051 295.969C408.605 296.55 408.605 296.55 408.605 297.738C407.707 298.607 407.707 298.607 406.524 299.547C406.138 299.86 405.751 300.17 405.353 300.491C404.464 301.146 403.663 301.657 402.658 302.099C402.446 301.855 402.233 301.608 402.014 301.356C400.747 300.222 399.638 299.737 397.919 299.707C395.598 299.888 393.981 300.749 392.425 302.52C391.427 304.149 391.367 305.792 391.557 307.65C392.234 309.566 393.299 311.063 395.126 312.011C397.111 312.473 399.1 312.603 401.073 312.011C401.073 311.227 401.073 310.441 401.073 309.632C399.502 309.632 397.932 309.632 396.315 309.632C396.315 307.671 396.315 305.708 396.315 303.686C400.371 303.686 404.427 303.686 408.605 303.686C408.728 306.544 408.728 306.544 408.853 309.459C408.889 310.055 408.925 310.651 408.962 311.264C409.042 315.076 409.042 315.076 407.759 316.556C406.745 317.274 405.768 317.836 404.641 318.355C404.22 318.564 404.22 318.564 403.792 318.776C400.418 320.356 396.232 320.266 392.747 319.147C388.53 317.554 385.875 314.972 383.989 310.901C382.748 307.902 382.728 304.278 383.802 301.208C385.326 297.938 388.178 294.764 391.557 293.378C397.734 291.471 402.856 292.099 408.051 295.969Z" fill="#0085FF"/>
<path d="M414.024 293.073C416.641 293.073 419.257 293.073 421.953 293.073C421.953 296.214 421.953 299.354 421.953 302.588C424.962 302.588 427.971 302.588 431.073 302.588C431.073 299.448 431.073 296.308 431.073 293.073C433.688 293.073 436.306 293.073 439 293.073C439 301.708 439 310.343 439 319.239C436.385 319.239 433.767 319.239 431.073 319.239C431.073 315.969 431.073 312.697 431.073 309.327C428.062 309.327 425.053 309.327 421.953 309.327C421.953 312.599 421.953 315.869 421.953 319.239C419.336 319.239 416.72 319.239 414.024 319.239C414.024 310.604 414.024 301.969 414.024 293.073Z" fill="#0085FF"/>
<path d="M444.514 293.073C447 293.073 449.485 293.073 452.047 293.073C452.047 299.484 452.047 305.894 452.047 312.5C456.103 312.5 460.159 312.5 464.337 312.5C464.337 314.724 464.337 316.949 464.337 319.239C457.797 319.239 451.255 319.239 444.514 319.239C444.514 310.604 444.514 301.969 444.514 293.073Z" fill="#0085FF"/>
<path d="M464.562 293.073C467.441 293.073 470.318 293.073 473.284 293.073C473.923 294.267 474.561 295.461 475.217 296.691C475.418 297.062 475.617 297.434 475.822 297.818C476.719 299.51 477.515 301.133 478.043 302.985C478.304 302.985 478.566 302.985 478.835 302.985C478.925 302.673 479.013 302.361 479.105 302.039C479.79 300.16 480.713 298.451 481.659 296.691C482.298 295.497 482.936 294.303 483.592 293.073C486.471 293.073 489.35 293.073 492.315 293.073C490.704 296.37 488.979 299.555 487.112 302.712C486.405 303.914 485.698 305.115 484.997 306.321C484.639 306.919 484.271 307.513 483.872 308.086C482.447 310.204 482.535 312.391 482.501 314.854C482.485 315.488 482.485 315.488 482.468 316.134C482.439 317.169 482.421 318.205 482.404 319.239C479.786 319.239 477.171 319.239 474.474 319.239C474.51 318.692 474.546 318.145 474.583 317.579C474.781 311.084 472.784 307.065 469.254 301.729C468.15 300.021 467.171 298.252 466.198 296.467C466.031 296.167 465.864 295.868 465.691 295.557C464.562 293.523 464.562 293.523 464.562 293.073Z" fill="#0085FF"/>
<path d="M260.708 252.201C261.852 253.049 262.884 253.961 263.88 254.976C263.219 255.638 262.558 256.298 261.898 256.96C261.628 257.271 261.358 257.581 261.08 257.9C260.312 258.545 260.312 258.545 259.569 258.545C258.726 258.149 258.726 258.149 257.66 257.355C255.787 256.225 254.092 255.939 251.929 256.313C249.382 257.098 247.985 258.826 246.683 261.073C246.071 263.645 246.207 265.824 247.52 268.145C248.839 270.01 250.519 271.176 252.779 271.629C255.264 271.55 256.63 270.935 258.726 269.645C259.482 269.301 259.482 269.301 260.312 269.251C261.247 269.905 261.247 269.905 262.195 270.811C262.512 271.108 262.829 271.407 263.155 271.714C263.394 271.947 263.634 272.18 263.88 272.421C262.119 275.033 259.707 276.121 256.733 277.028C253.297 277.693 249.948 277.143 246.832 275.593C243.469 273.209 240.861 270.202 240.092 266.078C239.673 261.956 240.673 258.164 243.304 254.918C248.028 250.311 254.818 249.038 260.708 252.201Z" fill="#8A8E93"/>
<path d="M267.47 250.996C269.302 250.996 271.134 250.996 273.021 250.996C273.021 257.799 273.021 264.602 273.021 271.612C277.207 271.612 281.394 271.612 285.708 271.612C285.708 273.312 285.708 275.014 285.708 276.766C279.689 276.766 273.671 276.766 267.47 276.766C267.47 268.261 267.47 259.758 267.47 250.996Z" fill="#898D93"/>
<path d="M310.586 252.697C313.385 254.642 315.777 257.485 316.432 260.896C316.744 264.373 316.743 267.408 314.846 270.411C314.678 270.687 314.51 270.964 314.336 271.247C312.295 274.273 309.45 276.054 305.94 276.966C302.06 277.682 298.511 276.973 295.147 274.922C292.454 272.996 290.069 270.168 289.472 266.844C289.031 262.65 289.293 259.279 291.851 255.742C296.763 250.149 304.139 248.922 310.586 252.697ZM296.832 258.79C295.507 260.791 294.804 262.697 295.189 265.106C295.892 267.725 296.824 269.341 299.087 270.907C300.875 271.842 302.585 272.24 304.581 271.823C307.066 271.005 308.649 269.399 310.088 267.24C310.879 264.867 310.881 262.214 309.816 259.929C308.481 257.643 306.608 256.607 304.142 255.742C301.288 255.307 298.624 256.595 296.832 258.79Z" fill="#8A8E93"/>
<path d="M320.216 250.755C322.179 250.755 324.141 250.755 326.163 250.755C326.169 251.236 326.175 251.716 326.18 252.21C326.204 253.997 326.234 255.783 326.267 257.569C326.28 258.342 326.291 259.115 326.3 259.886C326.314 260.999 326.334 262.111 326.357 263.222C326.359 263.566 326.362 263.91 326.364 264.264C326.424 266.746 326.849 268.489 328.666 270.307C330.37 271.375 331.553 271.469 333.522 271.123C335.052 270.512 335.822 269.858 336.867 268.596C337.222 267.532 337.32 266.883 337.339 265.787C337.349 265.3 337.349 265.3 337.359 264.805C337.364 264.456 337.37 264.108 337.375 263.748C337.383 263.391 337.39 263.032 337.398 262.663C337.429 261.129 337.456 259.597 337.483 258.062C337.503 256.943 337.526 255.824 337.549 254.706C337.554 254.356 337.56 254.006 337.565 253.645C337.616 251.197 337.616 251.197 338.057 250.755C338.99 250.727 339.923 250.723 340.857 250.73C341.368 250.734 341.88 250.738 342.407 250.742C342.803 250.746 343.199 250.751 343.607 250.755C343.637 253.119 343.658 255.48 343.673 257.844C343.679 258.645 343.687 259.448 343.697 260.251C343.712 261.409 343.718 262.568 343.723 263.726C343.73 264.081 343.736 264.435 343.742 264.8C343.743 268.636 342.762 271.377 340.114 274.168C337.436 276.554 334.413 277.075 330.911 277.032C328.034 276.765 325.3 275.685 323.189 273.686C320.527 270.428 320.153 266.962 320.177 262.914C320.178 262.564 320.178 262.216 320.179 261.857C320.181 260.749 320.186 259.644 320.191 258.536C320.193 257.784 320.195 257.03 320.197 256.278C320.201 254.437 320.208 252.596 320.216 250.755Z" fill="#8A8E94"/>
<path d="M347.332 250.936C362.971 250.936 362.971 250.936 367.552 254.505C370.104 257.152 371.505 260.334 371.517 264.019C371.28 267.532 370.145 270.548 367.623 273.064C361.693 277.853 354.767 276.706 347.332 276.706C347.332 268.201 347.332 259.698 347.332 250.936ZM353.279 256.09C353.279 261.191 353.279 266.295 353.279 271.552C359.104 271.691 359.104 271.691 363.719 268.797C365.17 267.011 365.711 265.04 365.545 262.756C364.882 260.059 363.454 258.467 361.209 256.883C358.483 255.714 356.485 256.09 353.279 256.09Z" fill="#8A8E93"/>
<path d="M391.937 250.975C397.884 250.975 397.884 250.975 399.672 252.545C400.169 253.246 400.647 253.963 401.105 254.693C401.363 255.065 401.621 255.437 401.887 255.821C402.418 256.59 402.941 257.365 403.457 258.145C404.414 259.58 405.426 260.969 406.447 262.359C407.436 263.711 408.407 265.074 409.382 266.437C409.513 261.334 409.643 256.233 409.778 250.975C411.61 250.975 413.441 250.975 415.329 250.975C415.329 259.478 415.329 267.983 415.329 276.744C409.778 276.744 409.778 276.744 407.994 275.035C407.564 274.412 407.134 273.79 406.723 273.154C405.897 271.913 404.994 270.732 404.102 269.538C403.186 268.31 402.284 267.071 401.382 265.834C400.358 264.442 399.318 263.062 398.281 261.68C398.15 266.652 398.019 271.622 397.884 276.744C395.922 276.744 393.959 276.744 391.937 276.744C391.937 268.241 391.937 259.736 391.937 250.975Z" fill="#8A8E93"/>
<path d="M430.653 250.975C431.244 250.977 431.834 250.982 432.423 250.988C432.724 250.99 433.024 250.992 433.335 250.994C434.079 250.999 434.826 251.005 435.571 251.013C437.364 254.818 438.931 258.709 440.501 262.611C440.759 263.246 441.016 263.884 441.274 264.519C441.776 265.762 442.278 267.007 442.778 268.25C443.254 269.437 443.735 270.621 444.217 271.806C444.437 272.348 444.657 272.889 444.877 273.433C445.07 273.908 445.264 274.384 445.463 274.873C445.879 275.99 445.879 275.99 445.879 276.783C443.786 276.783 441.691 276.783 439.534 276.783C437.949 273.76 437.949 273.76 437.949 272.423C434.286 272.423 430.623 272.423 426.848 272.423C426.456 273.6 426.063 274.777 425.659 275.99C425.528 276.253 425.397 276.514 425.262 276.783C423.169 276.783 421.076 276.783 418.919 276.783C419.282 274.969 419.83 273.401 420.53 271.706C420.652 271.405 420.774 271.106 420.899 270.798C421.295 269.828 421.693 268.858 422.091 267.887C422.362 267.223 422.634 266.56 422.905 265.894C423.442 264.58 423.979 263.265 424.518 261.951C425.161 260.381 425.8 258.811 426.436 257.239C426.755 256.451 427.074 255.665 427.393 254.879C427.537 254.523 427.681 254.168 427.829 253.801C428.963 251.02 428.963 251.02 430.653 250.975ZM432.002 259.736C430.956 262.353 429.909 264.969 428.831 267.665C431.054 267.665 433.278 267.665 435.571 267.665C435.307 266.347 435.102 265.383 434.615 264.189C434.508 263.927 434.403 263.664 434.294 263.395C434.183 263.128 434.074 262.861 433.959 262.585C433.848 262.31 433.737 262.035 433.621 261.753C433.348 261.08 433.071 260.407 432.795 259.736C432.534 259.736 432.272 259.736 432.002 259.736Z" fill="#8A8D93"/>
<path d="M447.545 250.975C454.741 250.975 461.937 250.975 469.352 250.975C469.352 252.675 469.352 254.377 469.352 256.129C466.734 256.129 464.117 256.129 461.422 256.129C461.422 262.932 461.422 269.736 461.422 276.744C459.459 276.744 457.496 276.744 455.474 276.744C455.474 269.941 455.474 263.137 455.474 256.129C452.859 256.129 450.241 256.129 447.545 256.129C447.545 254.427 447.545 252.728 447.545 250.975Z" fill="#898D94"/>
<path d="M474.865 250.975C476.826 250.975 478.789 250.975 480.811 250.975C480.811 259.478 480.811 267.983 480.811 276.744C478.85 276.744 476.886 276.744 474.865 276.744C474.865 268.241 474.865 259.736 474.865 250.975Z" fill="#898D94"/>
<path d="M484.403 250.975C486.495 250.975 488.588 250.975 490.745 250.975C491.826 253.087 492.806 255.208 493.701 257.404C493.821 257.699 493.942 257.994 494.066 258.297C494.448 259.226 494.827 260.155 495.205 261.084C495.465 261.72 495.726 262.355 495.986 262.989C496.62 264.535 497.251 266.08 497.881 267.626C499.538 264.51 500.807 261.234 502.12 257.963C502.471 257.086 502.825 256.212 503.178 255.336C503.396 254.794 503.615 254.253 503.831 253.711C504.577 251.855 504.577 251.855 505.017 250.975C507.112 250.975 509.205 250.975 511.362 250.975C511.087 252.346 510.856 253.352 510.345 254.604C510.156 255.07 510.156 255.07 509.963 255.548C509.827 255.881 509.69 256.214 509.549 256.556C509.406 256.908 509.265 257.257 509.119 257.618C508.662 258.743 508.203 259.864 507.744 260.986C507.445 261.721 507.144 262.459 506.845 263.194C506.115 264.988 505.382 266.782 504.649 268.574C504.231 269.595 503.816 270.616 503.4 271.637C503.148 272.255 502.894 272.874 502.642 273.493C502.528 273.777 502.411 274.062 502.293 274.356C501.495 276.304 501.495 276.304 501.053 276.744C499.984 276.774 498.925 276.782 497.857 276.77C497.556 276.768 497.255 276.766 496.945 276.765C496.2 276.759 495.456 276.753 494.711 276.744C492.11 270.587 489.527 264.425 487.001 258.237C486.772 257.675 486.542 257.111 486.311 256.548C485.99 255.762 485.668 254.976 485.348 254.189C485.166 253.739 484.982 253.29 484.794 252.827C484.403 251.768 484.403 251.769 484.403 250.975Z" fill="#898E93"/>
<path d="M514.951 250.975C521.493 250.975 528.035 250.975 534.775 250.975C534.775 252.675 534.775 254.377 534.775 256.129C530.196 256.129 525.617 256.129 520.899 256.129C520.899 257.699 520.899 259.269 520.899 260.887C525.085 260.887 529.273 260.887 533.586 260.887C533.586 262.586 533.586 264.288 533.586 266.041C529.399 266.041 525.213 266.041 520.899 266.041C520.899 267.872 520.899 269.704 520.899 271.592C525.478 271.592 530.057 271.592 534.775 271.592C534.775 273.292 534.775 274.993 534.775 276.744C528.233 276.744 521.691 276.744 514.951 276.744C514.951 268.241 514.951 259.736 514.951 250.975Z" fill="#8A8D93"/>
<mask id="mask0_2_14" style="mask-type:luminance" maskUnits="userSpaceOnUse" x="290" y="34" width="195" height="194">
<path d="M484.736 34H290.967V227.769H484.736V34Z" fill="white"/>
</mask>
<g mask="url(#mask0_2_14)">
<path d="M355.453 61.8253L355.531 61.9028H379.752L379.674 61.8253H420.25V34H355.453V61.8253Z" fill="#93EAFF"/>
<path d="M359.794 77.7919L362.39 69.8087C362.584 69.1885 362.274 68.5684 361.654 68.3747C361.034 68.181 360.414 68.4909 360.22 69.1111L357.391 77.8307C357.469 77.8307 357.585 77.8307 357.662 77.8307H359.794V77.7919Z" fill="#0086FF"/>
<path d="M384.519 69.6922C384.713 69.0722 384.402 68.4521 383.782 68.2584C383.162 68.0645 382.542 68.3746 382.348 68.9947L379.093 79.0707L381.263 79.8458L384.519 69.6922Z" fill="#0086FF"/>
<path d="M379.442 81.6287C379.481 81.6287 379.519 81.6287 379.558 81.6674L379.248 81.5512C379.287 81.5899 379.364 81.6287 379.442 81.6287Z" fill="#0086FF"/>
<path d="M379.248 81.551C378.783 81.2797 378.512 80.7372 378.706 80.1947L379.093 79.0708L375.722 77.8694C375.605 77.8307 375.45 77.7919 375.334 77.7919H371.497L373.784 80.0783H375.14L379.248 81.551Z" fill="#93EAFF"/>
<path d="M357.856 80.0396C358.476 80.2334 359.096 79.9234 359.29 79.3032L359.794 77.7919H357.662C357.585 77.7919 357.468 77.7919 357.391 77.7919L357.12 78.567C356.926 79.187 357.275 79.8459 357.856 80.0396Z" fill="#93EAFF"/>
<path d="M379.248 81.551L379.558 81.6672C380.139 81.7834 380.721 81.4734 380.876 80.8921L381.224 79.807L379.054 79.0319L378.667 80.1558C378.512 80.7372 378.744 81.3184 379.248 81.551Z" fill="#93EAFF"/>
<path d="M318.521 199.944C318.521 199.944 318.521 199.905 318.521 199.866H318.482V163.05H290.967V227.769H355.453V199.944H318.521Z" fill="#0086FF"/>
<path d="M457.222 199.867H457.182V199.945H420.25V227.769H484.735V163.09H457.222V199.867Z" fill="#0086FF"/>
<path d="M318.482 98.719V61.9028H318.521V61.8253H355.453V34H290.967V98.719H318.482Z" fill="#0086FF"/>
<path d="M420.25 34V61.8253H457.182V61.9028H457.222V98.719H484.735V34H420.25Z" fill="#0086FF"/>
<path d="M395.641 199.867L395.719 199.944H355.453V227.769H420.25V199.867H395.641Z" fill="#93EAFF"/>
<path d="M457.221 163.051H484.735V98.7192C484.735 98.7192 458.267 98.7192 457.221 98.7192V163.051Z" fill="#93EAFF"/>
<path d="M484.735 163.05H457.221V163.089H484.735V163.05Z" fill="#93EAFF"/>
<path d="M381.573 185.566L382.736 186.69L382.968 186.535L381.573 185.566Z" fill="white"/>
<path d="M456.911 163.089H457.221V163.05L456.911 163.089C456.872 163.089 456.872 163.05 456.911 163.089Z" fill="white"/>
<path d="M341.502 153.207C340.766 155.532 342.006 158.013 344.331 158.749C344.951 158.943 345.571 158.633 345.765 158.013C345.958 157.392 345.649 156.772 345.028 156.579C343.905 156.23 343.323 155.029 343.672 153.905L345.106 149.448L343.285 147.627L341.502 153.207Z" fill="#0086FF"/>
<path d="M346.695 140.96C346.075 140.766 345.455 141.077 345.261 141.697L343.323 147.626L345.145 149.447L347.431 142.394C347.625 141.813 347.276 141.154 346.695 140.96Z" fill="#0086FF"/>
<path d="M337.975 142.976L336.27 148.246C335.534 150.571 336.774 153.052 339.099 153.788C339.719 153.982 340.339 153.672 340.533 153.052C340.727 152.432 340.417 151.812 339.797 151.618C338.673 151.269 338.091 150.068 338.44 148.944L339.952 144.255L338.208 142.511C338.091 142.666 338.014 142.821 337.975 142.976Z" fill="#0086FF"/>
<path d="M339.409 142.239C338.983 142.084 338.518 142.239 338.208 142.55L339.952 144.293L340.145 143.712C340.339 143.092 339.99 142.433 339.409 142.239Z" fill="#0086FF"/>
<path d="M347.509 115.345C347.586 115.228 347.664 115.112 347.702 114.996L350.57 106.199H348.167L345.61 114.104L340.688 120.499L342.316 122.127L347.509 115.345Z" fill="#0086FF"/>
<path d="M331.891 140.573L333.17 141.503C333.673 141.891 333.79 142.588 333.441 143.092C333.053 143.596 332.356 143.712 331.852 143.363L331.193 142.898C330.612 145.146 331.891 147.471 334.1 148.169C334.72 148.363 335.34 148.053 335.534 147.433C335.727 146.812 335.417 146.192 334.797 145.999C333.673 145.65 333.092 144.449 333.441 143.325L334.797 139.101L332.976 137.279L331.891 140.573Z" fill="#0086FF"/>
<path d="M341.657 123.018L342.316 122.165L340.688 120.537L340.455 120.847L341.385 121.506C341.812 121.855 341.928 122.514 341.657 123.018Z" fill="#0086FF"/>
<path d="M341.463 123.25C341.076 123.637 340.455 123.676 339.99 123.366L339.021 122.668L336.851 125.498C336.774 125.614 336.696 125.73 336.658 125.846L332.937 137.279L334.759 139.1L338.789 126.738L341.463 123.25Z" fill="#0086FF"/>
<path d="M373.086 104.493C373.086 104.532 373.125 104.571 373.125 104.571C373.125 104.532 373.086 104.532 373.086 104.493Z" fill="#0086FF"/>
<path d="M372.079 106.198H370.49L364.056 126.001C363.94 126.35 364.018 126.699 364.212 127.009L368.281 132.861L368.436 140.844L370.761 142.55L370.528 132.473C370.528 132.241 370.451 132.047 370.335 131.853L366.382 126.157L369.87 115.422L369.327 115.616C369.211 115.654 369.056 115.693 368.939 115.693C368.474 115.693 368.009 115.383 367.854 114.918C367.661 114.337 367.971 113.678 368.552 113.445L370.722 112.67L373.086 105.384C373.086 105.346 373.086 105.346 373.086 105.307C373.086 105.85 372.621 106.198 372.079 106.198Z" fill="#0086FF"/>
<path d="M372.466 103.989H372.427C372.466 103.989 372.505 103.989 372.505 104.028C372.466 103.989 372.466 103.989 372.466 103.989Z" fill="#0086FF"/>
<path d="M372.621 104.028C372.66 104.028 372.699 104.067 372.699 104.067C372.66 104.067 372.621 104.067 372.621 104.028Z" fill="#0086FF"/>
<path d="M372.776 104.145C372.815 104.184 372.815 104.184 372.854 104.222C372.854 104.184 372.815 104.184 372.776 104.145Z" fill="#0086FF"/>
<path d="M372.931 104.3C372.97 104.339 372.97 104.339 373.009 104.377C373.009 104.377 372.97 104.339 372.931 104.3Z" fill="#0086FF"/>
<path d="M360.956 136.349C360.918 136.388 360.879 136.388 360.879 136.427C360.879 136.427 360.918 136.388 360.956 136.349Z" fill="#0086FF"/>
<path d="M360.53 136.892C360.53 136.931 360.53 136.931 360.491 136.931L355.453 152.51C355.453 154.564 355.453 156.385 355.453 157.702L356.034 158.129L362.196 139.139L360.917 138.209C360.491 137.938 360.336 137.357 360.53 136.892Z" fill="#0086FF"/>
<path d="M360.685 136.62C360.724 136.582 360.724 136.543 360.762 136.543C360.762 136.543 360.724 136.582 360.685 136.62Z" fill="#0086FF"/>
<path d="M353.709 158.013L352.895 160.493C352.547 161.617 351.345 162.198 350.222 161.849C349.098 161.501 348.516 160.299 348.865 159.175L350.338 154.641L348.516 152.82L346.695 158.478C345.958 160.803 347.199 163.283 349.524 164.02C351.849 164.756 354.329 163.516 355.066 161.19L355.298 160.415L354.019 159.485C353.554 159.175 353.438 158.517 353.709 158.013Z" fill="#0086FF"/>
<path d="M361.46 136.194C361.499 136.194 361.537 136.194 361.576 136.194C361.537 136.156 361.499 136.156 361.46 136.194Z" fill="#0086FF"/>
<path d="M361.925 136.194C361.964 136.194 362.003 136.233 362.003 136.233C362.003 136.233 361.964 136.233 361.964 136.194C361.925 136.233 361.925 136.233 361.925 136.194Z" fill="#0086FF"/>
<path d="M362.235 136.349C362.196 136.31 362.158 136.31 362.119 136.31C362.158 136.31 362.196 136.349 362.235 136.349Z" fill="#0086FF"/>
<path d="M361.809 136.194C361.77 136.194 361.731 136.194 361.693 136.194C361.731 136.155 361.77 136.194 361.809 136.194Z" fill="#0086FF"/>
<path d="M353.709 158.012C353.748 157.974 353.748 157.935 353.787 157.896C354.174 157.392 354.872 157.276 355.376 157.625L355.453 157.702C355.453 156.385 355.453 154.563 355.453 152.509L353.709 158.012Z" fill="#0086FF"/>
<path d="M354.717 141.116C354.911 140.496 354.6 139.875 353.98 139.682C353.36 139.488 352.74 139.798 352.546 140.418L348.516 152.819L350.338 154.641L354.717 141.116Z" fill="#0086FF"/>
<path d="M402.113 181.807C402.888 181.497 403.586 180.993 404.089 180.296C404.477 179.792 404.361 179.055 403.818 178.707C403.314 178.319 402.578 178.436 402.229 178.978C401.725 179.676 400.873 179.986 400.059 179.792C401.105 180.838 401.764 181.497 401.764 181.497L402.113 181.807Z" fill="#93EAFF"/>
<path d="M389.479 172.312C388.975 171.925 388.239 172.041 387.89 172.584C387.503 173.088 387.619 173.824 388.161 174.173L397.928 181.265C399.168 182.195 400.757 182.311 402.113 181.807L401.764 181.497C401.764 181.497 401.105 180.838 400.059 179.792C399.788 179.715 399.516 179.598 399.284 179.443L389.479 172.312Z" fill="#93EAFF"/>
<path d="M397.501 182.194C396.997 181.807 396.261 181.923 395.912 182.466C395.215 183.396 393.897 183.628 392.967 182.931L388.471 179.675C387.968 179.288 387.231 179.404 386.883 179.947C386.495 180.451 386.611 181.187 387.154 181.536L391.649 184.791C393.626 186.225 396.377 185.799 397.811 183.822C398.16 183.28 398.044 182.543 397.501 182.194Z" fill="#93EAFF"/>
<path d="M359.522 163.515L359.096 163.05H362.816L356.035 158.128L355.298 160.454L359.522 163.515Z" fill="#93EAFF"/>
<path d="M369.095 173.475L368.126 174.173L370.141 177.118C370.218 177.234 370.296 177.312 370.412 177.389L381.612 185.528L369.327 173.243C369.25 173.359 369.172 173.437 369.095 173.475Z" fill="#93EAFF"/>
<path d="M363.514 167.468L366.808 172.312L367.699 171.654L363.514 167.468Z" fill="#93EAFF"/>
<path d="M369.288 173.281L381.573 185.566L382.93 186.574L384.209 185.644C384.712 185.256 385.449 185.373 385.797 185.915C386.185 186.419 386.069 187.155 385.526 187.504L384.867 187.969C386.805 189.209 389.402 188.744 390.797 186.845C391.184 186.341 391.068 185.605 390.526 185.256C390.022 184.869 389.285 184.985 388.937 185.527C388.239 186.458 386.921 186.69 385.991 185.993L371.885 175.723L369.405 172.119C369.637 172.467 369.56 172.933 369.288 173.281Z" fill="#93EAFF"/>
<path d="M359.522 163.516L362.003 165.337L363.475 167.508L367.66 171.693L367.699 171.654C368.164 171.305 368.823 171.383 369.211 171.809L363.746 163.865C363.669 163.748 363.591 163.671 363.475 163.593L362.777 163.09H359.057L359.522 163.516Z" fill="#93EAFF"/>
<path d="M355.453 159.756L353.709 158.012C353.438 158.516 353.554 159.175 354.019 159.485L355.298 160.415L356.035 158.129L355.453 157.703C355.453 158.981 355.453 159.756 355.453 159.756Z" fill="#93EAFF"/>
<path d="M353.787 157.896C353.748 157.935 353.748 157.974 353.709 158.013L355.453 159.756C355.453 159.756 355.453 158.981 355.453 157.702L355.376 157.625C354.872 157.276 354.136 157.393 353.787 157.896Z" fill="#93EAFF"/>
<path d="M331.891 140.573L325.07 135.651C324.566 135.264 323.83 135.38 323.481 135.922C323.094 136.426 323.21 137.162 323.752 137.511L331.154 142.898C331.193 142.821 331.193 142.704 331.232 142.627L331.891 140.573Z" fill="#93EAFF"/>
<path d="M333.402 143.092C333.79 142.589 333.673 141.852 333.131 141.503L331.852 140.573L331.193 142.589C331.154 142.666 331.154 142.782 331.116 142.86L331.775 143.325C332.317 143.751 333.015 143.635 333.402 143.092Z" fill="#93EAFF"/>
<path d="M331.813 114.569C331.309 114.182 330.573 114.298 330.224 114.841C329.837 115.344 329.953 116.081 330.496 116.43L339.06 122.63L340.455 120.809L331.813 114.569Z" fill="#93EAFF"/>
<path d="M341.579 123.095C341.618 123.057 341.618 123.018 341.618 122.979L341.424 123.212C341.502 123.212 341.541 123.134 341.579 123.095Z" fill="#93EAFF"/>
<path d="M341.463 123.25L341.657 123.018C341.967 122.514 341.812 121.855 341.347 121.506L340.417 120.847L339.022 122.669L339.99 123.366C340.455 123.676 341.076 123.637 341.463 123.25Z" fill="#93EAFF"/>
<path d="M361.266 136.233C361.227 136.233 361.189 136.272 361.15 136.272C361.189 136.233 361.227 136.233 361.266 136.233Z" fill="#93EAFF"/>
<path d="M360.801 136.504C360.84 136.465 360.84 136.465 360.879 136.426C360.84 136.465 360.801 136.465 360.801 136.504Z" fill="#93EAFF"/>
<path d="M361.034 136.31C360.995 136.31 360.956 136.349 360.956 136.349C360.995 136.349 361.034 136.31 361.034 136.31Z" fill="#93EAFF"/>
<path d="M360.646 136.698C360.646 136.659 360.685 136.659 360.685 136.62L360.646 136.659C360.646 136.659 360.646 136.659 360.646 136.698Z" fill="#93EAFF"/>
<path d="M362.119 136.31C362.08 136.31 362.041 136.271 362.003 136.271C362.041 136.271 362.08 136.271 362.119 136.31Z" fill="#93EAFF"/>
<path d="M360.569 136.775C360.569 136.814 360.53 136.853 360.53 136.891C360.569 136.853 360.569 136.814 360.569 136.775Z" fill="#93EAFF"/>
<path d="M361.925 136.194C361.886 136.194 361.848 136.155 361.809 136.155C361.848 136.194 361.886 136.194 361.925 136.194Z" fill="#93EAFF"/>
<path d="M387.231 147.239C386.999 147.162 386.805 147.162 386.572 147.239L379.945 149.216L370.8 142.589V143.17C370.8 143.286 370.8 143.441 370.761 143.557C370.606 144.023 370.179 144.333 369.714 144.333C369.094 144.333 368.552 143.829 368.552 143.209L368.513 140.883L362.312 136.388L362.274 136.349C362.7 136.621 362.894 137.163 362.739 137.667L362.235 139.178L379.093 151.425C379.364 151.618 379.752 151.696 380.101 151.58L386.921 149.526L394.595 151.851L396.92 150.146L387.231 147.239Z" fill="#93EAFF"/>
<path d="M368.513 143.209C368.513 143.829 369.056 144.333 369.676 144.333C370.18 144.333 370.606 143.984 370.722 143.557C370.761 143.441 370.8 143.325 370.761 143.17V142.588L368.436 140.883L368.513 143.209Z" fill="#93EAFF"/>
<path d="M362.235 136.349C362.196 136.31 362.158 136.31 362.119 136.31C362.08 136.31 362.041 136.271 362.003 136.271C361.964 136.271 361.925 136.233 361.925 136.233C361.886 136.233 361.848 136.194 361.809 136.194C361.77 136.194 361.731 136.194 361.693 136.194C361.654 136.194 361.615 136.194 361.576 136.194C361.537 136.194 361.499 136.194 361.46 136.194C361.421 136.194 361.382 136.194 361.344 136.194C361.305 136.194 361.266 136.194 361.228 136.233C361.189 136.233 361.15 136.271 361.111 136.271C361.072 136.271 361.034 136.31 360.995 136.31C360.956 136.31 360.917 136.349 360.917 136.349C360.879 136.388 360.84 136.388 360.84 136.426C360.801 136.465 360.801 136.465 360.763 136.504C360.724 136.543 360.685 136.582 360.685 136.582C360.646 136.62 360.646 136.62 360.646 136.659C360.607 136.698 360.607 136.736 360.569 136.775C360.569 136.814 360.53 136.853 360.53 136.891C360.336 137.357 360.491 137.899 360.917 138.248L362.196 139.178L362.7 137.667C362.855 137.163 362.661 136.62 362.235 136.349Z" fill="#93EAFF"/>
<path d="M388.239 156.462C388.278 156.423 388.278 156.423 388.316 156.385C388.278 156.385 388.239 156.423 388.239 156.462Z" fill="#93EAFF"/>
<path d="M388.084 156.578C388.084 156.578 388.084 156.578 388.122 156.54C388.122 156.54 388.122 156.578 388.084 156.578Z" fill="#93EAFF"/>
<path d="M387.89 157.044C387.89 157.005 387.89 156.966 387.929 156.927C387.929 156.966 387.929 157.005 387.89 157.044Z" fill="#93EAFF"/>
<path d="M387.968 156.811C387.968 156.772 388.007 156.734 388.007 156.734C388.007 156.772 387.968 156.772 387.968 156.811Z" fill="#93EAFF"/>
<path d="M388.239 158.051C388.2 158.013 388.2 157.974 388.161 157.974C388.161 158.013 388.2 158.051 388.239 158.051Z" fill="#93EAFF"/>
<path d="M406.221 171.072C405.833 170.568 405.949 169.832 406.492 169.483L407.151 168.98L390.991 157.237L389.712 158.167C389.285 158.477 388.704 158.439 388.316 158.128L388.355 158.167L408.391 172.7C409.321 173.397 409.554 174.715 408.856 175.645C408.159 176.575 406.841 176.808 405.911 176.11L390.526 164.988C390.022 164.6 389.285 164.717 388.937 165.259C388.549 165.763 388.665 166.499 389.208 166.848L404.554 178.009C406.531 179.443 409.282 179.017 410.716 177.04C412.15 175.064 411.724 172.312 409.747 170.878L409.089 170.413L407.81 171.343C407.306 171.692 406.57 171.576 406.221 171.072Z" fill="#93EAFF"/>
<path d="M347.509 96.4327C348.129 96.4327 348.671 95.9289 348.671 95.2702C348.671 94.1076 349.64 93.1386 350.803 93.1386H362.894C363.514 93.1386 364.057 92.6348 364.057 91.9761C364.057 91.356 363.553 90.8135 362.894 90.8135H350.803C348.361 90.8135 346.385 92.79 346.385 95.2313C346.385 95.9289 346.889 96.4327 347.509 96.4327Z" fill="#93EAFF"/>
<path d="M350.57 89.883C351.19 89.883 351.733 89.3793 351.733 88.7206C351.733 87.5579 352.702 86.589 353.864 86.589H359.406C360.026 86.589 360.569 86.0852 360.569 85.4265C360.569 84.8064 360.065 84.2639 359.406 84.2639H353.864C351.423 84.2639 349.446 86.2403 349.446 88.6817C349.446 89.3793 349.95 89.883 350.57 89.883Z" fill="#93EAFF"/>
<path d="M359.794 77.7919L359.29 79.3032C359.096 79.9234 358.437 80.2334 357.856 80.0396C357.236 79.8459 356.926 79.187 357.12 78.6058L357.391 77.8307C355.104 77.9856 353.244 79.8846 353.244 82.2097C353.244 82.8299 353.748 83.3724 354.407 83.3724C355.027 83.3724 355.569 82.8686 355.569 82.2097C355.569 81.0473 356.538 80.0783 357.701 80.0783H373.784L371.497 77.7919H359.794Z" fill="#93EAFF"/>
<path d="M379.519 81.6672L388.588 84.8838C388.704 84.9226 388.859 84.9613 388.975 84.9613H398.237L397.501 82.6748H389.208L381.224 79.8459L380.876 80.8921C380.682 81.4736 380.101 81.7834 379.519 81.6672Z" fill="#93EAFF"/>
<path d="M428.117 84.9615H436.526C437.146 84.9615 437.69 84.4578 437.69 83.7989C437.69 83.1789 437.186 82.6362 436.526 82.6362H427.38C427.419 82.7139 427.458 82.7914 427.497 82.9076L428.117 84.9615Z" fill="#93EAFF"/>
<path d="M443.463 105.966C444.083 105.966 444.627 105.463 444.627 104.804C444.627 104.184 444.123 103.641 443.463 103.641H432.883L432.806 105.928H443.463V105.966Z" fill="#93EAFF"/>
<path d="M406.686 105.966C406.647 106.005 406.608 106.005 406.608 106.044C406.647 106.044 406.686 106.005 406.686 105.966Z" fill="#93EAFF"/>
<path d="M407.151 105.23C407.151 105.268 407.151 105.307 407.151 105.346C407.112 105.307 407.112 105.268 407.151 105.23Z" fill="#93EAFF"/>
<path d="M404.903 105.423L404.399 103.912H383.588C383.24 103.912 382.891 104.067 382.658 104.377L378.318 110.035L370.761 112.67L369.87 115.422L379.403 112.089C379.597 112.011 379.791 111.895 379.946 111.701L384.131 106.198H395.447L395.098 105.733C395.021 105.617 394.943 105.501 394.905 105.385C394.75 104.919 394.905 104.416 395.292 104.105C395.796 103.718 396.532 103.834 396.881 104.338L398.276 106.159H405.911C405.95 106.159 405.95 106.159 405.988 106.159C405.562 106.237 405.097 105.927 404.903 105.423Z" fill="#93EAFF"/>
<path d="M406.298 106.16C406.259 106.16 406.221 106.199 406.182 106.199C406.221 106.199 406.259 106.199 406.298 106.16Z" fill="#93EAFF"/>
<path d="M406.996 105.656C406.996 105.695 406.957 105.733 406.957 105.733C406.957 105.733 406.957 105.695 406.996 105.656Z" fill="#93EAFF"/>
<path d="M407.073 105.462C407.073 105.501 407.035 105.539 407.035 105.578C407.073 105.539 407.073 105.501 407.073 105.462Z" fill="#93EAFF"/>
<path d="M406.531 106.082C406.492 106.082 406.453 106.121 406.415 106.121C406.453 106.121 406.492 106.121 406.531 106.082Z" fill="#93EAFF"/>
<path d="M406.841 105.85C406.802 105.889 406.802 105.889 406.763 105.927C406.802 105.889 406.841 105.85 406.841 105.85Z" fill="#93EAFF"/>
<path d="M367.932 114.918C368.087 115.383 368.552 115.693 369.017 115.693C369.133 115.693 369.288 115.654 369.405 115.616L369.947 115.422L370.838 112.67L368.668 113.446C368.048 113.678 367.738 114.337 367.932 114.918Z" fill="#93EAFF"/>
<path d="M372.854 104.222C372.892 104.261 372.892 104.261 372.931 104.3C372.931 104.261 372.892 104.261 372.854 104.222Z" fill="#93EAFF"/>
<path d="M350.066 103.989C350.687 104.183 350.997 104.842 350.803 105.423L350.531 106.198H370.49L370.993 104.687C371.149 104.183 371.652 103.873 372.156 103.912C372.117 103.912 372.117 103.912 372.079 103.912H347.315C346.152 103.912 345.183 102.943 345.183 101.781C345.183 100.618 346.152 99.6489 347.315 99.6489H366.304C366.924 99.6489 367.467 99.1451 367.467 98.4864C367.467 97.8663 366.963 97.3238 366.304 97.3238H347.315C344.873 97.3238 342.897 99.3003 342.897 101.742C342.897 104.183 344.873 106.16 347.315 106.16H348.129L348.633 104.648C348.826 104.106 349.485 103.796 350.066 103.989Z" fill="#93EAFF"/>
<path d="M372.698 104.106C372.737 104.145 372.776 104.145 372.776 104.183C372.776 104.145 372.737 104.106 372.698 104.106Z" fill="#93EAFF"/>
<path d="M373.125 104.571C373.125 104.61 373.164 104.648 373.164 104.687C373.164 104.648 373.164 104.61 373.125 104.571Z" fill="#93EAFF"/>
<path d="M350.803 105.423C350.997 104.803 350.687 104.183 350.066 103.989C349.446 103.796 348.826 104.106 348.633 104.726L348.129 106.237H350.532L350.803 105.423Z" fill="#93EAFF"/>
<path d="M370.994 104.726L370.49 106.237H372.079C372.621 106.237 373.047 105.888 373.164 105.385C373.164 105.346 373.164 105.307 373.203 105.268C373.203 105.23 373.203 105.191 373.203 105.152C373.203 105.113 373.203 105.075 373.203 105.036C373.203 104.997 373.203 104.958 373.203 104.919C373.203 104.881 373.203 104.842 373.203 104.803C373.203 104.764 373.164 104.726 373.164 104.687C373.164 104.648 373.125 104.61 373.125 104.571C373.125 104.532 373.086 104.493 373.086 104.493C373.086 104.454 373.047 104.416 373.009 104.377C372.97 104.338 372.97 104.338 372.931 104.299C372.893 104.261 372.893 104.261 372.854 104.222C372.815 104.183 372.815 104.183 372.776 104.145C372.738 104.106 372.699 104.106 372.699 104.067C372.66 104.067 372.621 104.028 372.621 104.028C372.582 104.028 372.544 103.989 372.505 103.989C372.466 103.989 372.427 103.951 372.427 103.951C372.389 103.951 372.35 103.912 372.311 103.912C372.273 103.912 372.234 103.912 372.195 103.912C371.652 103.912 371.149 104.222 370.994 104.726Z" fill="#93EAFF"/>
<path d="M408.081 79.7684C409.205 79.4196 410.406 80.0008 410.755 81.1247L414.475 92.5959C414.669 93.2159 415.328 93.5259 415.909 93.3323C416.529 93.1384 416.839 92.4797 416.646 91.8983L412.925 80.4271C412.189 78.102 409.67 76.8619 407.383 77.5981C406.763 77.7919 406.453 78.4506 406.647 79.032C406.841 79.652 407.461 79.9621 408.081 79.7684Z" fill="#0086FF"/>
<path d="M415.212 80.6595C416.335 80.3107 417.537 80.892 417.886 82.0159L419.591 87.2864C419.784 87.9066 420.443 88.2165 421.025 88.0228C421.645 87.8289 421.955 87.1702 421.761 86.5888L420.056 81.3184C419.319 78.9931 416.8 77.753 414.514 78.4894C413.894 78.6831 413.584 79.342 413.778 79.9232C413.971 80.5046 414.63 80.8532 415.212 80.6595Z" fill="#0086FF"/>
<path d="M432.806 105.966H431.682C431.101 105.966 430.597 105.501 430.557 104.92L430.364 112.089L432.612 114.337L432.806 105.966Z" fill="#0086FF"/>
<path d="M431.682 103.68H432.883L432.961 100.114C432.961 99.9979 432.961 99.843 432.923 99.7268L428.117 84.9615H426.528C425.908 84.9615 425.365 84.4576 425.365 83.7989C425.365 83.1787 425.869 82.6362 426.528 82.6362H427.342C426.489 80.5048 424.125 79.3422 421.877 80.0785C421.257 80.2722 420.947 80.9311 421.141 81.5123C421.335 82.1325 421.994 82.4426 422.575 82.2487C423.699 81.8999 424.9 82.4813 425.249 83.605L430.636 100.192L430.52 104.571C430.674 104.067 431.14 103.68 431.682 103.68Z" fill="#0086FF"/>
<path d="M430.364 114.957L433.233 123.754L435.17 122.32L432.613 114.415V114.337L430.364 112.089L430.287 114.531C430.287 114.686 430.326 114.802 430.364 114.957Z" fill="#0086FF"/>
<path d="M425.404 83.7987C425.404 84.4188 425.908 84.9613 426.567 84.9613H428.156L427.497 82.9461C427.458 82.8686 427.419 82.7524 427.38 82.6747H426.567C425.908 82.6747 425.404 83.1787 425.404 83.7987Z" fill="#0086FF"/>
<path d="M431.682 105.966H432.806L432.883 103.68H431.682C431.101 103.68 430.636 104.106 430.557 104.648V104.959C430.597 105.501 431.101 105.966 431.682 105.966Z" fill="#0086FF"/>
<path d="M442.456 152.161L445.051 160.144C445.245 160.764 445.905 161.074 446.486 160.881C447.107 160.687 447.417 160.028 447.223 159.447L444.393 150.727C444.316 150.804 444.239 150.843 444.16 150.921L442.456 152.161Z" fill="#0086FF"/>
<path d="M424.319 160.609C424.28 160.609 424.241 160.648 424.203 160.648L424.513 160.57C424.435 160.57 424.358 160.57 424.319 160.609Z" fill="#0086FF"/>
<path d="M427.225 173.243C427.419 173.863 428.077 174.173 428.66 173.979C429.279 173.785 429.589 173.126 429.395 172.545L426.14 162.469L423.931 163.128L427.225 173.243Z" fill="#0086FF"/>
<path d="M415.715 138.209C415.754 138.248 415.754 138.248 415.793 138.287C415.793 138.248 415.754 138.248 415.715 138.209Z" fill="#0086FF"/>
<path d="M416.994 138.364C417.033 138.364 417.072 138.325 417.111 138.325C417.072 138.325 417.033 138.325 416.994 138.364Z" fill="#0086FF"/>
<path d="M415.638 138.132C415.599 138.093 415.599 138.054 415.56 138.054C415.599 138.054 415.638 138.093 415.638 138.132Z" fill="#0086FF"/>
<path d="M415.909 138.325C415.948 138.325 415.987 138.364 415.987 138.364C415.987 138.364 415.948 138.364 415.909 138.325Z" fill="#0086FF"/>
<path d="M416.878 138.403C416.839 138.403 416.801 138.442 416.801 138.442H416.839C416.839 138.403 416.878 138.403 416.878 138.403Z" fill="#0086FF"/>
<path d="M416.103 138.403C416.142 138.403 416.181 138.403 416.219 138.442C416.181 138.442 416.142 138.442 416.103 138.403Z" fill="#0086FF"/>
<path d="M401.57 114.259C401.725 114.453 401.88 114.569 402.113 114.647L408.623 116.933L412.111 127.668L412.421 127.203C412.499 127.087 412.576 127.009 412.693 126.932C413.08 126.661 413.623 126.622 414.01 126.932C414.514 127.281 414.669 128.017 414.282 128.521L412.964 130.42L415.328 137.705C415.328 137.744 415.328 137.744 415.367 137.783C415.173 137.318 415.328 136.737 415.754 136.427L417.033 135.496L410.6 115.693C410.484 115.344 410.212 115.073 409.902 114.957L403.159 112.593L398.315 106.237H395.447L401.57 114.259Z" fill="#0086FF"/>
<path d="M415.444 137.86C415.444 137.899 415.483 137.938 415.522 137.977C415.483 137.938 415.483 137.899 415.444 137.86Z" fill="#0086FF"/>
<path d="M395.331 104.183C394.943 104.493 394.788 104.997 394.943 105.462C394.982 105.579 395.06 105.695 395.137 105.811L395.486 106.276H398.354L396.959 104.455C396.571 103.873 395.835 103.796 395.331 104.183Z" fill="#0086FF"/>
<path d="M399.439 81.202C399.09 80.0781 399.671 78.8767 400.795 78.5279C401.919 78.1791 403.121 78.7605 403.469 79.8844L406.221 88.3327L409.786 91.8981L405.678 79.1868C404.942 76.8615 402.423 75.5827 400.137 76.3578C398.703 76.8228 397.656 77.9854 397.269 79.3418L399.671 81.7445L399.439 81.202Z" fill="#0086FF"/>
<path d="M406.918 105.733C406.88 105.772 406.88 105.811 406.841 105.811C406.88 105.811 406.918 105.772 406.918 105.733Z" fill="#0086FF"/>
<path d="M406.376 106.16H406.415C406.376 106.16 406.337 106.199 406.337 106.199C406.337 106.16 406.337 106.16 406.376 106.16Z" fill="#0086FF"/>
<path d="M410.678 98.7192H410.174C410.329 98.758 410.523 98.758 410.678 98.7192Z" fill="#0086FF"/>
<path d="M404.438 103.912H406.027C406.57 103.912 406.996 104.26 407.112 104.764C407.112 104.725 407.112 104.725 407.112 104.687L405.136 98.6799H402.733L404.438 103.912Z" fill="#0086FF"/>
<path d="M406.608 106.044C406.57 106.044 406.531 106.082 406.531 106.082C406.531 106.082 406.57 106.082 406.608 106.044Z" fill="#0086FF"/>
<path d="M406.802 105.927C406.763 105.966 406.763 105.966 406.724 106.005C406.724 105.966 406.763 105.927 406.802 105.927Z" fill="#0086FF"/>
<path d="M407.112 105.346C407.112 105.385 407.073 105.423 407.073 105.462C407.112 105.423 407.112 105.385 407.112 105.346Z" fill="#0086FF"/>
<path d="M397.269 81.8995L397.501 82.6746H399.09C399.71 82.6746 400.253 83.1783 400.253 83.8372C400.253 84.4572 399.749 84.9999 399.09 84.9999H398.276L402.733 98.7574H405.136L399.594 81.7833L397.191 79.3805C396.959 80.1556 396.959 81.0469 397.269 81.8995Z" fill="#0086FF"/>
<path d="M409.321 97.944C409.437 98.3315 409.786 98.6027 410.135 98.7191H410.639C410.677 98.7191 410.716 98.7191 410.755 98.6803C411.375 98.4865 411.685 97.8276 411.491 97.2463L409.747 91.8983L406.182 88.3329L409.321 97.944Z" fill="#0086FF"/>
<path d="M399.09 84.9615C399.71 84.9615 400.253 84.4578 400.253 83.7989C400.253 83.1789 399.749 82.6362 399.09 82.6362H397.501L398.238 84.9228H399.09V84.9615Z" fill="#0086FF"/>
<path d="M405.988 103.912H404.399L404.903 105.423C405.058 105.927 405.562 106.237 406.066 106.198C406.105 106.198 406.143 106.198 406.182 106.198C406.221 106.198 406.26 106.198 406.298 106.16C406.337 106.16 406.376 106.16 406.376 106.121C406.415 106.121 406.453 106.082 406.492 106.082C406.531 106.082 406.57 106.043 406.57 106.043C406.608 106.005 406.647 106.005 406.647 105.966C406.686 105.927 406.725 105.927 406.725 105.888C406.763 105.85 406.763 105.85 406.802 105.811C406.841 105.772 406.841 105.772 406.88 105.733C406.918 105.695 406.918 105.656 406.918 105.656C406.918 105.617 406.957 105.578 406.957 105.54C406.957 105.501 406.996 105.462 406.996 105.423C406.996 105.385 407.035 105.346 407.035 105.307C407.035 105.268 407.035 105.23 407.035 105.191C407.035 105.152 407.035 105.113 407.035 105.075C407.035 105.036 407.035 104.997 407.035 104.958C407.035 104.919 407.035 104.881 407.035 104.842C407.035 104.803 407.035 104.764 406.996 104.726C406.996 104.299 406.531 103.912 405.988 103.912Z" fill="#0086FF"/>
<path d="M430.674 143.131C431.061 143.635 431.759 143.751 432.263 143.402L435.093 141.348L433.465 139.721L430.947 141.542C430.443 141.891 430.326 142.627 430.674 143.131Z" fill="#93EAFF"/>
<path d="M442.067 136.31C444.045 134.876 444.47 132.125 443.038 130.148C442.65 129.645 441.953 129.528 441.449 129.877C440.945 130.265 440.828 130.962 441.176 131.466C441.874 132.396 441.642 133.752 440.712 134.411L433.464 139.682L435.093 141.31L442.067 136.31Z" fill="#93EAFF"/>
<path d="M437.34 146.386C437.727 146.89 438.425 147.006 438.929 146.657L439.783 146.037L438.425 144.681L438.154 144.41L437.611 144.797C437.069 145.146 436.953 145.882 437.34 146.386Z" fill="#93EAFF"/>
<path d="M439.783 146.038L443.425 143.402C445.401 141.968 445.828 139.217 444.393 137.24C444.006 136.737 443.308 136.62 442.804 136.969C442.301 137.318 442.184 138.054 442.534 138.558C443.231 139.488 442.998 140.845 442.067 141.503L438.115 144.371L438.387 144.642L439.783 146.038Z" fill="#93EAFF"/>
<path d="M424.513 160.531C425.055 160.454 425.598 160.764 425.753 161.306L426.14 162.43L429.551 161.423C429.666 161.384 429.783 161.345 429.899 161.267L442.457 152.16L441.953 150.649C441.759 150.029 442.067 149.409 442.688 149.215C442.765 149.176 442.844 149.176 442.921 149.176L442.804 149.06L428.698 159.291L424.513 160.531Z" fill="#93EAFF"/>
<path d="M424.203 160.648L414.94 163.36C414.824 163.399 414.708 163.438 414.592 163.515L407.112 168.941L409.05 170.375L415.754 165.492L423.892 163.089L423.544 162.004C423.389 161.461 423.66 160.88 424.203 160.648Z" fill="#93EAFF"/>
<path d="M444.393 150.726L444.433 150.688L444.316 150.572L444.393 150.726Z" fill="#93EAFF"/>
<path d="M444.123 149.951L444.316 150.571L444.433 150.688C446.176 149.215 446.486 146.619 445.13 144.758C444.743 144.254 444.045 144.138 443.542 144.487C443.038 144.875 442.921 145.572 443.269 146.076C443.967 147.006 443.735 148.362 442.804 149.021L442.921 149.137C443.463 149.099 443.967 149.409 444.123 149.951Z" fill="#93EAFF"/>
<path d="M406.453 169.445C405.949 169.832 405.833 170.53 406.182 171.034C406.57 171.537 407.267 171.654 407.771 171.305L409.05 170.375L407.112 168.941L406.453 169.445Z" fill="#93EAFF"/>
<path d="M442.921 149.176C442.844 149.176 442.765 149.215 442.688 149.215C442.067 149.409 441.759 150.068 441.953 150.649L442.457 152.16L444.2 150.92C444.277 150.882 444.354 150.804 444.433 150.726L444.393 150.571L442.921 149.176Z" fill="#93EAFF"/>
<path d="M444.123 149.952C443.967 149.409 443.425 149.099 442.921 149.176L444.354 150.61L444.123 149.952Z" fill="#93EAFF"/>
<path d="M424.513 160.532L424.203 160.609C423.66 160.842 423.389 161.462 423.583 162.004L423.931 163.089L426.14 162.431L425.753 161.307C425.559 160.803 425.055 160.454 424.513 160.532Z" fill="#93EAFF"/>
<path d="M376.148 191.457C375.644 191.844 375.528 192.542 375.876 193.046C376.264 193.549 376.962 193.666 377.465 193.317L384.325 188.318L382.697 186.69L376.148 191.457Z" fill="#93EAFF"/>
<path d="M382.969 186.536L382.736 186.691L384.364 188.318L384.906 187.931C384.829 187.892 384.751 187.815 384.674 187.776L382.969 186.536Z" fill="#93EAFF"/>
<path d="M385.836 185.876C385.449 185.372 384.751 185.256 384.247 185.605L382.969 186.535L384.712 187.775C384.79 187.814 384.867 187.891 384.945 187.93L385.604 187.465C386.107 187.078 386.185 186.38 385.836 185.876Z" fill="#93EAFF"/>
<path d="M358.205 178.552C357.701 178.94 357.585 179.637 357.933 180.141C358.321 180.645 359.018 180.761 359.522 180.412L368.087 174.211L366.808 172.313L358.205 178.552Z" fill="#93EAFF"/>
<path d="M369.327 171.886C369.288 171.847 369.288 171.847 369.25 171.809L369.443 172.08C369.405 172.003 369.366 171.964 369.327 171.886Z" fill="#93EAFF"/>
<path d="M369.288 173.282L367.699 171.693L366.808 172.313L368.087 174.212L369.056 173.514C369.172 173.437 369.249 173.359 369.288 173.282Z" fill="#93EAFF"/>
<path d="M367.738 171.654L369.327 173.281C369.598 172.933 369.637 172.468 369.443 172.08L369.25 171.809C368.862 171.382 368.203 171.305 367.738 171.654Z" fill="#93EAFF"/>
<path d="M388.123 156.54C388.161 156.501 388.161 156.462 388.2 156.462C388.2 156.462 388.161 156.501 388.123 156.54Z" fill="#93EAFF"/>
<path d="M388.006 156.734C388.006 156.695 388.045 156.656 388.084 156.617C388.045 156.656 388.045 156.695 388.006 156.734Z" fill="#93EAFF"/>
<path d="M389.712 156.307L390.99 157.237L407.848 144.991C408.12 144.797 408.313 144.449 408.313 144.1L408.468 136.969L413.041 130.381L412.15 127.629L406.415 135.923C406.298 136.116 406.221 136.31 406.221 136.543L406.066 143.441L396.92 150.068L397.462 150.223C397.579 150.262 397.695 150.3 397.811 150.378C398.199 150.649 398.392 151.153 398.237 151.618C398.044 152.238 397.424 152.587 396.803 152.393L394.595 151.734L388.394 156.23L388.355 156.268C388.704 156.036 389.285 155.997 389.712 156.307Z" fill="#93EAFF"/>
<path d="M388.084 157.935L388.123 157.974C388.123 157.935 388.084 157.935 388.084 157.935C388.084 157.896 388.084 157.896 388.084 157.935Z" fill="#93EAFF"/>
<path d="M388.316 158.129C388.278 158.09 388.239 158.09 388.239 158.051C388.239 158.09 388.278 158.129 388.316 158.129Z" fill="#93EAFF"/>
<path d="M387.929 157.586C387.929 157.547 387.89 157.508 387.89 157.47C387.929 157.508 387.929 157.547 387.929 157.586Z" fill="#93EAFF"/>
<path d="M398.199 151.734C398.354 151.269 398.16 150.766 397.773 150.494C397.656 150.417 397.54 150.378 397.424 150.339L396.881 150.184L394.556 151.889L396.765 152.548C397.346 152.664 398.005 152.316 398.199 151.734Z" fill="#93EAFF"/>
<path d="M389.712 158.168L390.99 157.238L389.712 156.307C389.285 155.997 388.704 156.036 388.316 156.346C388.278 156.385 388.278 156.385 388.239 156.424C388.2 156.463 388.2 156.501 388.161 156.501C388.123 156.54 388.123 156.54 388.084 156.579C388.045 156.618 388.045 156.656 388.006 156.695C388.006 156.734 387.968 156.772 387.968 156.772C387.968 156.811 387.929 156.85 387.929 156.889C387.929 156.928 387.89 156.966 387.89 157.005C387.89 157.044 387.89 157.083 387.89 157.121C387.89 157.16 387.89 157.199 387.89 157.238C387.89 157.276 387.89 157.315 387.89 157.354C387.89 157.393 387.89 157.431 387.89 157.47C387.89 157.509 387.89 157.548 387.929 157.586C387.929 157.625 387.968 157.664 387.968 157.703C387.968 157.741 388.006 157.78 388.006 157.78C388.045 157.819 388.045 157.858 388.084 157.896C388.084 157.935 388.123 157.935 388.161 157.974C388.2 158.013 388.2 158.051 388.239 158.051C388.278 158.09 388.278 158.09 388.316 158.129C388.704 158.478 389.285 158.478 389.712 158.168Z" fill="#93EAFF"/>
<path d="M414.32 128.521C414.669 128.017 414.553 127.281 414.049 126.932C413.623 126.66 413.119 126.66 412.731 126.932C412.615 127.009 412.538 127.087 412.46 127.203L412.15 127.668L413.041 130.419L414.32 128.521Z" fill="#93EAFF"/>
<path d="M415.715 138.209C415.677 138.17 415.677 138.17 415.638 138.132C415.677 138.17 415.715 138.17 415.715 138.209Z" fill="#93EAFF"/>
<path d="M416.878 138.403C416.917 138.403 416.956 138.364 416.995 138.364C416.956 138.364 416.917 138.364 416.878 138.403Z" fill="#93EAFF"/>
<path d="M416.219 138.442C416.258 138.442 416.297 138.442 416.336 138.48C416.297 138.48 416.258 138.442 416.219 138.442Z" fill="#93EAFF"/>
<path d="M415.561 138.054C415.522 138.016 415.522 138.016 415.483 137.977C415.522 137.977 415.522 137.977 415.561 138.054C415.561 138.016 415.561 138.016 415.561 138.054Z" fill="#93EAFF"/>
<path d="M416.025 138.364C416.064 138.364 416.103 138.403 416.142 138.403C416.064 138.403 416.064 138.403 416.025 138.364Z" fill="#93EAFF"/>
<path d="M441.99 122.824C441.332 121.933 440.401 121.351 439.393 121.119L442.727 124.452C442.571 123.87 442.34 123.328 441.99 122.824Z" fill="#93EAFF"/>
<path d="M415.832 138.287C415.871 138.325 415.909 138.325 415.909 138.364C415.871 138.325 415.871 138.287 415.832 138.287Z" fill="#93EAFF"/>
<path d="M417.072 138.286C417.072 138.286 417.111 138.286 417.111 138.248L425.714 131.97L424.086 130.342L417.033 135.457L417.537 136.969C417.731 137.473 417.498 138.015 417.072 138.286Z" fill="#93EAFF"/>
<path d="M424.28 138.287C423.776 138.674 423.66 139.372 424.009 139.876C424.396 140.379 425.094 140.496 425.598 140.147L430.403 136.659L428.775 135.031L424.28 138.287Z" fill="#93EAFF"/>
<path d="M437.146 123.715C438.077 123.018 439.433 123.25 440.091 124.18C440.789 125.11 440.557 126.467 439.627 127.125L428.775 135.031L430.403 136.659L440.982 128.986C442.457 127.901 443.075 126.118 442.688 124.451L439.356 121.119C438.154 120.847 436.836 121.08 435.791 121.855L435.131 122.32L435.634 123.831C435.828 124.451 435.518 125.071 434.899 125.265C434.279 125.459 433.658 125.149 433.465 124.529L433.194 123.754L424.086 130.381L425.714 132.008L437.146 123.715Z" fill="#93EAFF"/>
<path d="M433.464 124.529C433.658 125.149 434.318 125.459 434.899 125.266C435.518 125.072 435.828 124.413 435.634 123.832L435.131 122.32L433.194 123.754L433.464 124.529Z" fill="#93EAFF"/>
<path d="M415.406 137.744C415.406 137.783 415.444 137.821 415.444 137.86C415.444 137.899 415.483 137.938 415.522 137.977C415.522 138.015 415.56 138.015 415.599 138.054C415.638 138.093 415.638 138.132 415.677 138.132C415.715 138.17 415.715 138.17 415.754 138.209C415.793 138.248 415.832 138.248 415.832 138.287C415.871 138.325 415.909 138.325 415.909 138.364C415.948 138.364 415.987 138.403 415.987 138.403C416.026 138.403 416.064 138.442 416.103 138.442C416.142 138.442 416.18 138.442 416.219 138.48C416.258 138.48 416.297 138.48 416.336 138.519C416.374 138.519 416.413 138.519 416.452 138.519C416.491 138.519 416.529 138.519 416.568 138.519C416.607 138.519 416.646 138.519 416.684 138.519C416.723 138.519 416.762 138.519 416.801 138.48C416.839 138.48 416.878 138.442 416.878 138.442C416.917 138.442 416.956 138.403 416.994 138.403C417.033 138.403 417.072 138.364 417.111 138.364C417.537 138.093 417.731 137.55 417.576 137.046L417.072 135.535L415.793 136.465C415.367 136.698 415.212 137.279 415.406 137.744Z" fill="#93EAFF"/>
<path d="M290.967 163.051H318.482V98.7192C318.482 98.7192 292.013 98.7192 290.967 98.7192V163.051Z" fill="#93EAFF"/>
</g>
</svg>
