<svg width="756" height="378" viewBox="0 0 756 378" fill="none" xmlns="http://www.w3.org/2000/svg">
<g clip-path="url(#clip0_1_710)">
<path d="M210.905 303.344C210.827 303.425 210.827 316.302 210.667 319.664C210.508 322.381 210.266 328.222 204.507 328.222C198.587 328.222 197.147 321.421 196.667 318.464C196.108 315.184 196.108 312.461 196.108 311.265C196.108 307.424 196.348 296.701 205.387 296.701C208.108 296.701 209.627 297.504 210.827 298.141L210.905 303.344ZM187.707 312.786C187.707 335.343 199.707 335.343 201.467 335.343C206.427 335.343 209.627 332.622 210.986 327.904L211.146 335.022C212.667 334.941 214.187 334.782 216.666 334.782C217.546 334.782 218.264 334.782 218.907 334.863C219.547 334.863 220.186 334.941 220.906 335.022C219.627 332.463 218.667 326.704 218.667 314.22C218.667 302.061 218.667 281.503 219.706 275.262C216.828 276.624 214.345 277.505 208.906 277.983C211.065 280.303 211.065 281.503 211.065 292.06C209.548 291.582 207.626 291.021 204.346 291.021C190.027 291.022 187.707 303.503 187.707 312.786Z" fill="black"/>
<path d="M231.092 308.701C231.174 302.061 232.534 296.142 238.212 296.142C244.453 296.142 244.929 303.02 244.771 308.701H231.092ZM252.69 309.504C252.69 300.143 250.851 290.942 239.011 290.942C222.693 290.942 222.693 309.026 222.693 312.862C222.693 329.1 229.972 335.5 242.212 335.5C247.649 335.5 250.292 334.704 251.732 334.3C251.652 331.421 252.051 329.58 252.534 327.101C250.851 328.144 248.691 329.503 243.892 329.503C231.412 329.503 231.251 318.139 231.251 314.221H252.534L252.69 309.504Z" fill="black"/>
<path d="M278.714 312.943C278.714 320.382 277.355 330.383 268.076 330.383C266.795 330.383 265.196 330.139 264.157 329.901C263.996 327.022 263.996 322.062 263.996 316.302C263.996 309.421 264.714 305.827 265.277 304.062C266.955 298.384 270.715 298.306 271.434 298.306C277.514 298.306 278.714 306.705 278.714 312.943ZM255.756 321.663C255.756 327.584 255.756 330.942 254.796 333.501C258.076 334.782 262.154 335.5 267.036 335.5C270.156 335.5 279.195 335.5 284.074 325.502C286.395 320.862 287.194 314.621 287.194 309.901C287.194 307.021 286.873 300.703 284.554 296.701C282.317 292.944 278.716 291.023 274.878 291.023C267.197 291.023 264.958 297.422 263.76 300.703C263.76 296.623 263.837 282.384 264.476 275.103C259.278 277.505 256.075 277.902 252.638 278.223C255.758 279.501 255.758 284.785 255.758 301.985V321.663" fill="black"/>
<path d="M302.574 335.022C300.972 334.782 299.849 334.622 297.529 334.622C294.974 334.622 293.21 334.784 291.373 335.022C292.172 333.501 292.491 332.78 292.731 327.583C293.053 320.462 293.132 301.421 292.573 297.421C292.172 294.379 291.454 293.901 290.333 293.101C296.892 292.461 298.732 291.983 301.771 290.543C301.134 294.06 301.049 295.824 301.049 301.181C300.892 328.785 300.811 331.742 302.574 335.022Z" fill="black"/>
<path d="M328.189 312.38C328.031 317.421 327.949 320.941 326.587 323.74C324.907 327.341 322.109 328.38 320.029 328.38C315.224 328.38 314.188 324.382 314.188 320.463C314.188 312.945 320.909 312.38 323.946 312.38H328.189ZM306.188 322.222C306.188 327.263 307.709 332.301 312.191 334.463C314.19 335.343 316.189 335.343 316.831 335.343C324.193 335.343 326.67 329.901 328.191 326.542C328.11 330.062 328.191 332.22 328.431 335.022C329.871 334.941 331.311 334.782 333.712 334.782C335.071 334.782 336.352 334.941 337.71 335.022C336.83 333.663 336.352 332.86 336.108 329.741C335.95 326.702 335.95 323.662 335.95 319.422L336.031 303.102C336.031 297.02 334.429 291.021 322.429 291.021C314.511 291.021 309.872 293.422 307.552 294.622C308.514 296.383 309.313 297.899 310.031 301.343C313.154 298.622 317.234 297.183 321.391 297.183C328.034 297.183 328.034 301.583 328.034 307.821C326.513 307.743 325.232 307.584 323.071 307.584C312.907 307.586 306.188 311.5 306.188 322.222Z" fill="black"/>
<path d="M374.268 327.103C374.349 329.824 374.349 332.703 375.468 335.024C373.705 334.865 372.666 334.623 369.389 334.623C367.468 334.623 366.429 334.785 364.908 335.024C365.225 333.984 365.389 333.584 365.548 332.222C365.788 330.385 365.949 324.223 365.949 322.062V313.423C365.949 309.663 365.949 304.221 365.705 302.303C365.546 300.944 365.149 297.265 360.505 297.265C355.946 297.265 354.426 300.623 353.865 303.344C353.228 306.143 353.228 309.185 353.228 321.023C353.306 331.264 353.306 332.22 354.105 335.022C352.747 334.863 351.067 334.704 348.667 334.704C346.746 334.704 345.466 334.782 343.869 335.022C344.429 333.741 344.75 333.1 344.909 328.622C345.071 324.222 345.39 302.621 344.665 297.504C344.268 294.381 343.465 293.662 342.588 292.863C349.069 292.542 351.146 291.501 353.149 290.465V298.942C354.107 296.459 356.106 290.94 364.108 290.94C374.109 290.94 374.187 298.22 374.268 303.018L374.268 327.103Z" fill="black"/>
<path d="M303.248 279.221L296.622 285.844L290 279.221L296.622 272.599L303.248 279.221Z" fill="#A80030"/>
<path d="M410.67 299.094C410.67 295.302 410.838 283.167 411.259 279.712C411.512 277.689 411.934 276.762 412.524 275.667C410.501 276.004 409.153 276.257 405.782 276.257C404.349 276.257 403.254 276.172 402.242 276.088C401.315 276.004 400.557 275.835 399.63 275.667C400.978 278.616 401.063 281.987 401.147 285.527C401.315 290.077 401.315 294.797 401.315 298.842L401.147 325.05C401.062 328.59 401.062 332.382 399.63 335.5C401.652 335.331 403.506 335.079 406.287 335.079C408.31 335.079 410.332 335.247 412.439 335.5C411.344 333.14 410.922 331.876 410.838 325.387C410.67 318.646 410.67 316.707 410.67 310.555V299.094Z" fill="black"/>
<path d="M448.799 303.777C448.72 299.019 448.641 291.802 438.727 291.802C430.796 291.802 428.814 297.274 427.862 299.733V291.326C425.879 292.357 423.817 293.388 417.394 293.705C418.266 294.498 419.059 295.212 419.456 298.305C420.169 303.381 419.852 324.794 419.693 329.156C419.535 333.597 419.218 334.231 418.662 335.5C420.249 335.262 421.518 335.183 423.421 335.183C425.8 335.183 427.466 335.341 428.814 335.5C428.021 332.724 428.021 331.773 427.941 321.621C427.941 309.884 427.941 306.87 428.576 304.094C429.131 301.398 430.638 298.067 435.158 298.067C439.758 298.067 440.155 301.715 440.313 303.063C440.551 304.967 440.551 310.36 440.551 314.087V322.652C440.551 324.794 440.393 330.9 440.155 332.724C439.996 334.073 439.837 334.469 439.52 335.5C441.027 335.262 442.058 335.104 443.961 335.104C447.213 335.104 448.244 335.341 449.989 335.5C448.879 333.2 448.879 330.345 448.799 327.649V303.777Z" fill="black"/>
<path d="M454.859 312.94C454.859 335.5 466.859 335.5 468.619 335.5C473.579 335.5 476.779 332.78 478.139 328.06L478.299 335.18C479.818 335.1 481.338 334.94 483.818 334.94C484.698 334.94 485.418 334.94 486.058 335.02C486.698 335.02 487.338 335.1 488.058 335.18C486.778 332.62 485.818 326.86 485.818 314.38C485.818 302.22 485.818 281.659 486.858 275.419C483.978 276.779 481.498 277.659 476.059 278.139C478.219 280.459 478.219 281.659 478.219 292.219C476.699 291.739 474.779 291.179 471.499 291.179C457.179 291.179 454.859 303.66 454.859 312.94ZM478.059 303.5C477.979 303.58 477.979 316.46 477.819 319.82C477.659 322.54 477.419 328.38 471.659 328.38C465.739 328.38 464.299 321.58 463.819 318.62C463.259 315.34 463.259 312.62 463.259 311.42C463.259 307.58 463.499 296.859 472.539 296.859C475.259 296.859 476.779 297.66 477.979 298.3L478.059 303.5Z" fill="black"/>
<path d="M511.047 322.494C511.047 327.49 512.554 332.486 516.995 334.628C518.978 335.5 520.961 335.5 521.595 335.5C528.891 335.5 531.35 330.107 532.857 326.776C532.778 330.266 532.857 332.407 533.095 335.183C534.522 335.104 535.95 334.945 538.329 334.945C539.677 334.945 540.946 335.104 542.294 335.183C541.422 333.835 540.946 333.042 540.708 329.949C540.55 326.935 540.55 323.921 540.55 319.718L540.629 303.539C540.629 297.512 539.043 291.564 527.147 291.564C519.295 291.564 514.696 293.943 512.396 295.133C513.347 296.877 514.14 298.384 514.854 301.794C517.947 299.098 521.992 297.671 526.116 297.671C532.698 297.671 532.698 302.032 532.698 308.218C531.191 308.139 529.923 307.98 527.781 307.98C517.709 307.98 511.047 311.867 511.047 322.494ZM532.857 312.739C532.698 317.735 532.619 321.225 531.271 324.001C529.605 327.569 526.83 328.6 524.768 328.6C520.009 328.6 518.978 324.635 518.978 320.749C518.978 313.294 525.64 312.739 528.654 312.739H532.857Z" fill="black"/>
<path d="M504.113 301.953C504.113 296.639 504.192 294.895 504.827 291.405C501.813 292.833 499.989 293.309 493.486 293.943C494.596 294.736 495.31 295.212 495.706 298.226C496.262 302.191 496.182 321.066 495.865 328.124C495.627 333.279 495.31 333.993 494.517 335.5C496.341 335.262 498.086 335.104 500.623 335.104C502.923 335.104 504.034 335.262 505.62 335.5C503.875 332.248 503.954 329.314 504.113 301.953Z" fill="black"/>
<path d="M506.178 279.221L499.552 285.844L492.929 279.221L499.552 272.599L506.178 279.221Z" fill="#A80030"/>
<g filter="url(#filter0_f_1_710)">
<path fill-rule="evenodd" clip-rule="evenodd" d="M365.002 30.5145C336.463 30.5145 309.093 41.8516 288.913 62.0318C268.733 82.2119 257.396 109.582 257.396 138.121C257.396 166.66 268.733 194.03 288.913 214.21C309.093 234.391 336.463 245.728 365.002 245.728C393.541 245.728 420.911 234.391 441.091 214.21C461.272 194.03 472.609 166.66 472.609 138.121C472.609 109.582 461.272 82.2119 441.091 62.0318C420.911 41.8516 393.541 30.5145 365.002 30.5145ZM365.002 43.9654C340.03 43.9654 316.082 53.8853 298.424 71.5429C280.766 89.2006 270.846 113.149 270.846 138.121C270.846 163.093 280.766 187.042 298.424 204.699C316.082 222.357 340.03 232.277 365.002 232.277C389.974 232.277 413.923 222.357 431.58 204.699C449.238 187.042 459.158 163.093 459.158 138.121C459.158 113.149 449.238 89.2006 431.58 71.5429C413.923 53.8853 389.974 43.9654 365.002 43.9654Z" fill="#D6D6D6"/>
<path d="M365.003 156.952C375.403 156.952 383.834 148.521 383.834 138.121C383.834 127.721 375.403 119.29 365.003 119.29C354.603 119.29 346.172 127.721 346.172 138.121C346.172 148.521 354.603 156.952 365.003 156.952Z" fill="#D6D6D6"/>
<path d="M457.74 155.078C460.318 155.418 462.682 153.603 463.022 151.025C463.361 148.448 461.547 146.083 458.969 145.743C456.391 145.404 454.026 147.219 453.687 149.796C453.347 152.374 455.162 154.739 457.74 155.078Z" fill="#D6D6D6"/>
<path d="M365.004 232.277L368.232 175.783L365.004 148.882L361.775 175.783L365.004 232.277Z" fill="#D6D6D6"/>
<path d="M450.19 178.503C452.592 179.498 455.346 178.357 456.341 175.955C457.336 173.553 456.195 170.799 453.793 169.804C451.391 168.809 448.637 169.949 447.642 172.352C446.647 174.754 447.788 177.508 450.19 178.503Z" fill="#D6D6D6"/>
<path d="M340.634 229.069L358.373 175.336L362.218 148.515L352.137 173.665L340.634 229.069Z" fill="#D6D6D6"/>
<path d="M436.835 199.174C438.898 200.757 441.853 200.368 443.436 198.305C445.019 196.243 444.63 193.287 442.567 191.704C440.504 190.122 437.549 190.511 435.966 192.574C434.383 194.636 434.772 197.592 436.835 199.174Z" fill="#D6D6D6"/>
<path d="M317.924 219.662L348.967 172.352L359.622 147.44L343.375 169.123L317.924 219.662Z" fill="#D6D6D6"/>
<path d="M418.585 215.686C420.168 217.749 423.123 218.138 425.186 216.555C427.249 214.972 427.638 212.017 426.055 209.954C424.472 207.891 421.517 207.502 419.454 209.085C417.391 210.668 417.002 213.623 418.585 215.686Z" fill="#D6D6D6"/>
<path d="M298.423 204.699L340.653 167.035L357.393 145.73L336.088 162.47L298.423 204.699Z" fill="#D6D6D6"/>
<path d="M396.686 226.912C397.681 229.314 400.435 230.454 402.837 229.459C405.239 228.464 406.38 225.71 405.385 223.308C404.39 220.906 401.636 219.766 399.234 220.761C396.832 221.756 395.691 224.509 396.686 226.912Z" fill="#D6D6D6"/>
<path d="M283.463 185.199L334.002 159.748L355.685 143.502L330.774 154.157L283.463 185.199Z" fill="#D6D6D6"/>
<path d="M372.627 232.086C372.966 234.664 375.331 236.479 377.909 236.139C380.487 235.8 382.302 233.435 381.962 230.857C381.623 228.279 379.258 226.465 376.68 226.804C374.102 227.144 372.288 229.508 372.627 232.086Z" fill="#D6D6D6"/>
<path d="M274.057 162.491L329.461 150.988L354.611 140.907L327.79 144.751L274.057 162.491Z" fill="#D6D6D6"/>
<path d="M348.047 230.857C347.707 233.435 349.522 235.799 352.1 236.139C354.677 236.478 357.042 234.664 357.382 232.086C357.721 229.508 355.906 227.143 353.329 226.804C350.751 226.464 348.386 228.279 348.047 230.857Z" fill="#D6D6D6"/>
<path d="M270.848 138.121L327.342 141.349L354.243 138.121L327.342 134.893L270.848 138.121Z" fill="#D6D6D6"/>
<path d="M324.623 223.308C323.628 225.71 324.768 228.464 327.17 229.459C329.573 230.454 332.326 229.313 333.321 226.911C334.316 224.509 333.176 221.755 330.774 220.76C328.371 219.765 325.618 220.906 324.623 223.308Z" fill="#D6D6D6"/>
<path d="M274.056 113.752L327.789 131.492L354.61 135.336L329.46 125.255L274.056 113.752Z" fill="#D6D6D6"/>
<path d="M303.949 209.954C302.367 212.017 302.756 214.972 304.818 216.555C306.881 218.138 309.836 217.748 311.419 215.686C313.002 213.623 312.613 210.668 310.55 209.085C308.487 207.502 305.532 207.891 303.949 209.954Z" fill="#D6D6D6"/>
<path d="M283.461 91.0429L330.772 122.085L355.684 132.74L334 116.494L283.461 91.0429Z" fill="#D6D6D6"/>
<path d="M287.437 191.704C285.374 193.287 284.985 196.243 286.568 198.305C288.15 200.368 291.106 200.757 293.168 199.174C295.231 197.591 295.62 194.636 294.037 192.573C292.455 190.511 289.499 190.122 287.437 191.704Z" fill="#D6D6D6"/>
<path d="M298.423 71.543L336.088 113.773L357.393 130.512L340.653 109.207L298.423 71.543Z" fill="#D6D6D6"/>
<path d="M276.21 169.803C273.808 170.798 272.667 173.552 273.662 175.955C274.657 178.357 277.411 179.497 279.813 178.502C282.215 177.507 283.356 174.753 282.361 172.351C281.366 169.949 278.612 168.808 276.21 169.803Z" fill="#D6D6D6"/>
<path d="M317.923 56.58L343.374 107.119L359.62 128.802L348.965 103.891L317.923 56.58Z" fill="#D6D6D6"/>
<path d="M271.035 145.743C268.457 146.083 266.643 148.448 266.982 151.025C267.321 153.603 269.686 155.418 272.264 155.078C274.842 154.739 276.657 152.374 276.317 149.796C275.978 147.219 273.613 145.404 271.035 145.743Z" fill="#D6D6D6"/>
<path d="M340.632 47.1739L352.135 102.578L362.216 127.727L358.372 100.907L340.632 47.1739Z" fill="#D6D6D6"/>
<path d="M272.266 121.164C269.688 120.825 267.323 122.639 266.984 125.217C266.645 127.795 268.459 130.16 271.037 130.499C273.615 130.838 275.98 129.024 276.319 126.446C276.658 123.868 274.844 121.503 272.266 121.164Z" fill="#D6D6D6"/>
<path d="M365.002 43.9655L361.774 100.459L365.002 127.361L368.23 100.459L365.002 43.9655Z" fill="#D6D6D6"/>
<path d="M279.814 97.7399C277.412 96.7449 274.658 97.8856 273.663 100.288C272.668 102.69 273.809 105.444 276.211 106.439C278.613 107.434 281.367 106.293 282.362 103.891C283.357 101.489 282.216 98.7349 279.814 97.7399Z" fill="#D6D6D6"/>
<path d="M389.37 47.1737L371.631 100.907L367.786 127.727L377.867 102.578L389.37 47.1737Z" fill="#D6D6D6"/>
<path d="M293.169 77.0681C291.107 75.4853 288.151 75.8744 286.568 77.9371C284.986 79.9999 285.375 82.9552 287.437 84.538C289.5 86.1208 292.455 85.7317 294.038 83.669C295.621 81.6062 295.232 78.6509 293.169 77.0681Z" fill="#D6D6D6"/>
<path d="M412.08 56.5803L381.038 103.891L370.383 128.803L386.629 107.119L412.08 56.5803Z" fill="#D6D6D6"/>
<path d="M311.419 60.5567C309.836 58.494 306.881 58.1049 304.818 59.6877C302.755 61.2705 302.366 64.2258 303.949 66.2886C305.532 68.3513 308.487 68.7404 310.55 67.1576C312.613 65.5748 313.002 62.6195 311.419 60.5567Z" fill="#D6D6D6"/>
<path d="M431.582 71.5434L389.352 109.208L372.612 130.513L393.917 113.773L431.582 71.5434Z" fill="#D6D6D6"/>
<path d="M333.321 49.331C332.326 46.9288 329.572 45.7881 327.17 46.7831C324.767 47.7781 323.627 50.532 324.622 52.9341C325.617 55.3363 328.371 56.477 330.773 55.482C333.175 54.487 334.316 51.7331 333.321 49.331Z" fill="#D6D6D6"/>
<path d="M446.544 91.0434L396.005 116.494L374.321 132.741L399.233 122.086L446.544 91.0434Z" fill="#D6D6D6"/>
<path d="M357.38 44.1563C357.041 41.5785 354.676 39.7639 352.098 40.1033C349.52 40.4427 347.706 42.8075 348.045 45.3853C348.385 47.9631 350.749 49.7777 353.327 49.4383C355.905 49.0989 357.72 46.7341 357.38 44.1563Z" fill="#D6D6D6"/>
<path d="M455.95 113.752L400.546 125.255L375.396 135.336L402.217 131.491L455.95 113.752Z" fill="#D6D6D6"/>
<path d="M381.959 45.3857C382.298 42.8079 380.484 40.4431 377.906 40.1037C375.328 39.7643 372.963 41.5789 372.624 44.1567C372.284 46.7345 374.099 49.0993 376.677 49.4387C379.255 49.7781 381.619 47.9635 381.959 45.3857Z" fill="#D6D6D6"/>
<path d="M459.157 138.121L402.664 134.893L375.762 138.121L402.664 141.35L459.157 138.121Z" fill="#D6D6D6"/>
<path d="M405.383 52.9344C406.378 50.5322 405.238 47.7783 402.835 46.7833C400.433 45.7883 397.679 46.929 396.684 49.3312C395.689 51.7333 396.83 54.4872 399.232 55.4822C401.634 56.4772 404.388 55.3365 405.383 52.9344Z" fill="#D6D6D6"/>
<path d="M455.95 162.491L402.217 144.751L375.396 140.906L400.546 150.987L455.95 162.491Z" fill="#D6D6D6"/>
<path d="M426.056 66.2877C427.639 64.225 427.25 61.2697 425.187 59.6869C423.124 58.1041 420.169 58.4931 418.586 60.5559C417.003 62.6186 417.392 65.5739 419.455 67.1568C421.518 68.7396 424.473 68.3505 426.056 66.2877Z" fill="#D6D6D6"/>
<path d="M446.544 185.199L399.233 154.156L374.322 143.501L396.005 159.748L446.544 185.199Z" fill="#D6D6D6"/>
<path d="M442.568 84.5372C444.631 82.9544 445.02 79.9991 443.437 77.9364C441.854 75.8736 438.899 75.4846 436.836 77.0674C434.773 78.6502 434.384 81.6055 435.967 83.6682C437.55 85.731 440.505 86.1201 442.568 84.5372Z" fill="#D6D6D6"/>
<path d="M431.581 204.699L393.916 162.469L372.611 145.73L389.351 167.035L431.581 204.699Z" fill="#D6D6D6"/>
<path d="M453.794 106.439C456.196 105.444 457.337 102.69 456.342 100.288C455.347 97.8854 452.593 96.7447 450.191 97.7397C447.789 98.7347 446.648 101.489 447.643 103.891C448.638 106.293 451.392 107.434 453.794 106.439Z" fill="#D6D6D6"/>
<path d="M412.082 219.662L386.631 169.123L370.384 147.44L381.039 172.351L412.082 219.662Z" fill="#D6D6D6"/>
<path d="M458.969 130.499C461.547 130.159 463.362 127.795 463.022 125.217C462.683 122.639 460.318 120.824 457.74 121.164C455.162 121.503 453.348 123.868 453.687 126.446C454.027 129.024 456.391 130.838 458.969 130.499Z" fill="#D6D6D6"/>
<path d="M389.372 229.068L377.869 173.664L367.788 148.515L371.633 175.335L389.372 229.068Z" fill="#D6D6D6"/>
</g>
<path d="M376.937 142.889C374.416 142.924 377.411 144.321 380.703 144.882C381.616 144.095 382.436 143.305 383.172 142.533C381.125 143.087 379.04 143.099 376.937 142.889Z" fill="url(#paint0_linear_1_710)"/>
<path d="M390.466 139.162C391.973 136.87 393.066 134.364 393.453 131.773C393.113 133.619 392.211 135.213 391.353 136.898C386.64 140.178 390.908 134.952 391.35 132.962C386.284 140.016 390.651 137.191 390.466 139.162Z" fill="url(#paint1_linear_1_710)"/>
<path d="M395.464 124.798C395.771 119.78 394.572 121.369 394.168 123.28C394.638 123.552 395.01 126.819 395.464 124.798Z" fill="url(#paint2_linear_1_710)"/>
<path d="M367.373 56.2231C368.719 56.488 370.282 56.693 370.057 57.049C371.535 56.6889 371.868 56.3648 367.373 56.2231Z" fill="url(#paint3_linear_1_710)"/>
<path d="M370.058 57.0493L369.111 57.2678L369.994 57.1783L370.058 57.0493Z" fill="url(#paint4_linear_1_710)"/>
<path d="M412.024 126.7C412.176 131.204 410.834 133.393 409.621 137.264L407.439 138.463C405.656 142.292 407.617 140.894 406.339 143.939C403.552 146.674 397.892 152.495 396.08 153.028C394.755 152.993 396.976 151.302 397.266 150.64C393.538 153.466 394.274 154.883 388.572 156.604L388.407 156.192C374.351 163.501 354.824 149.019 355.08 129.263C354.932 130.516 354.653 130.203 354.343 130.706C353.617 120.543 358.592 110.335 366.982 106.16C375.188 101.674 384.808 103.513 390.682 109.57C387.455 104.898 381.028 99.944 373.416 100.403C365.956 100.537 358.975 105.774 356.646 111.463C352.826 114.12 352.38 121.71 350.717 123.101C348.474 141.299 354.93 149.157 365.853 158.407C367.567 159.686 366.335 159.882 366.565 160.855C362.937 158.98 359.616 156.146 356.882 152.676C358.334 155.019 359.898 157.298 361.921 159.088C358.497 157.81 353.926 149.927 352.595 149.607C358.492 161.275 376.519 170.07 385.964 165.705C381.593 165.884 376.043 165.804 371.136 163.799C369.069 162.627 366.27 160.201 366.771 159.748C379.656 165.063 392.963 163.771 404.11 153.899C406.948 151.456 410.046 147.304 410.942 147.248C409.594 149.489 411.174 148.326 410.138 150.304C412.959 145.268 408.907 148.253 413.057 141.608L414.589 143.939C414.015 139.755 419.288 134.68 418.752 128.068C419.962 126.047 420.1 130.246 418.818 134.896C420.598 129.737 419.288 128.907 419.744 124.649C420.235 126.08 420.888 127.6 421.221 129.112C420.06 124.125 422.407 120.716 422.991 117.817C422.414 117.537 421.2 120.021 420.92 114.133C420.962 111.575 421.566 112.792 421.798 112.162C421.345 111.873 420.152 109.912 419.428 106.151C419.95 105.265 420.832 108.442 421.548 108.571C421.087 105.582 420.296 103.302 420.262 101.007C418.17 96.1777 419.521 101.652 417.827 98.9334C415.6 91.2628 419.673 97.1528 419.95 93.6699C423.321 99.0677 425.243 107.439 426.129 110.905C425.454 106.679 424.366 102.582 423.035 98.6202C424.062 99.0994 421.383 89.9261 424.369 96.0006C421.182 83.0516 410.738 70.9509 401.128 65.2754C402.301 66.4631 403.784 67.9548 403.255 68.1898C398.472 65.048 399.313 64.8 398.628 63.4726C394.738 61.7218 394.478 63.6161 391.905 63.476C384.565 59.1727 383.151 59.6296 376.396 56.9373L376.703 58.5258C371.841 56.7358 371.038 59.2009 365.785 58.5293C365.466 58.2553 367.469 57.5299 369.12 57.2671C364.418 57.9535 364.638 56.2416 360.038 57.4552C361.17 56.577 362.372 55.9935 363.58 55.2476C359.748 55.5047 354.427 57.7125 356.069 55.7029C349.817 58.7867 338.712 63.1143 332.481 69.5711L332.285 68.1242C329.43 71.911 319.833 79.4342 319.069 84.3435L318.305 84.5394C316.821 87.3193 315.858 90.4684 314.68 93.3267C312.738 96.9867 311.832 94.7363 312.108 95.3106C308.286 103.872 306.385 111.066 304.746 116.969C305.914 118.898 304.775 128.588 305.215 136.343C303.298 174.647 329.544 211.834 358.234 220.418C362.439 222.083 368.691 222.024 374.01 222.188C367.736 220.204 366.926 221.138 360.811 218.783C356.401 216.486 355.436 213.867 352.311 210.87L353.548 213.285C347.423 210.889 349.986 210.32 345.001 208.577L346.323 206.673C344.336 206.506 341.063 202.978 340.168 201.018L337.995 201.113C335.386 197.56 333.994 194.992 334.097 193.003L333.395 194.386C332.6 192.878 323.792 181.04 328.362 183.796C327.513 182.942 326.384 182.403 325.161 179.944L326.09 178.771C323.895 175.645 322.044 171.638 322.186 170.303C323.358 172.052 324.172 172.38 324.978 172.68C319.425 157.459 319.113 171.843 314.909 157.186L315.797 157.108C315.117 155.969 314.7 154.74 314.153 153.53L314.542 149.27C310.546 144.169 313.424 127.558 314.003 118.45C314.4 114.747 317.339 110.803 319.572 104.619L318.212 104.362C320.814 99.3499 333.064 84.227 338.741 85.0026C341.49 81.1879 338.194 84.9884 337.656 84.0293C343.695 77.1251 345.594 79.1518 349.669 77.9081C354.061 75.0275 345.897 79.0343 347.98 76.8099C355.578 74.6677 353.362 71.9361 363.273 70.8492C364.319 71.5052 360.848 71.8634 359.977 72.7155C366.305 69.2923 380.005 70.0736 388.908 74.6137C399.23 79.948 410.834 95.7085 411.293 110.537L411.815 110.692C411.552 116.587 412.632 123.406 410.757 129.667L412.024 126.7Z" fill="url(#paint5_linear_1_710)"/>
<path d="M349.413 146.711L349.057 148.663C350.716 151.152 352.032 153.849 354.146 155.788C352.624 152.508 351.495 151.152 349.413 146.711Z" fill="url(#paint6_linear_1_710)"/>
<path d="M353.33 146.543C352.452 145.47 351.936 144.179 351.352 142.896C351.909 145.154 353.05 147.095 354.108 149.072L353.33 146.543Z" fill="url(#paint7_linear_1_710)"/>
<path d="M422.656 129.893L422.286 130.922C421.608 136.251 420.138 141.524 417.891 146.415C420.375 141.255 421.976 135.612 422.656 129.893Z" fill="url(#paint8_linear_1_710)"/>
<path d="M367.873 54.8862C369.576 54.1985 372.061 54.5079 373.874 54.0547C371.515 54.2733 369.167 54.4035 366.851 54.7299L367.873 54.8862Z" fill="url(#paint9_linear_1_710)"/>
<path d="M308.018 90.0546C308.412 94.0708 305.285 95.6314 308.71 92.9801C310.55 88.4046 307.995 91.7177 308.018 90.0546Z" fill="url(#paint10_linear_1_710)"/>
<path d="M303.99 108.651C304.781 105.972 304.923 104.365 305.225 102.812C303.043 105.895 304.219 106.554 303.99 108.651Z" fill="url(#paint11_linear_1_710)"/>
<path d="M376.937 142.889C374.416 142.924 377.411 144.321 380.703 144.882C381.616 144.095 382.436 143.305 383.172 142.533C381.125 143.087 379.04 143.099 376.937 142.889Z" fill="url(#paint12_linear_1_710)"/>
<path d="M390.466 139.162C391.973 136.87 393.066 134.364 393.453 131.773C393.113 133.619 392.211 135.213 391.353 136.898C386.64 140.178 390.908 134.952 391.35 132.962C386.284 140.016 390.651 137.191 390.466 139.162Z" fill="url(#paint13_linear_1_710)"/>
<path d="M395.464 124.798C395.771 119.78 394.572 121.369 394.168 123.28C394.638 123.552 395.01 126.819 395.464 124.798Z" fill="url(#paint14_linear_1_710)"/>
<path d="M367.373 56.2231C368.719 56.488 370.282 56.693 370.057 57.049C371.535 56.6889 371.868 56.3648 367.373 56.2231Z" fill="url(#paint15_linear_1_710)"/>
<path d="M370.058 57.0493L369.111 57.2678L369.994 57.1783L370.058 57.0493Z" fill="url(#paint16_linear_1_710)"/>
<path d="M412.024 126.7C412.176 131.204 410.834 133.393 409.621 137.264L407.439 138.463C405.656 142.292 407.617 140.894 406.339 143.939C403.552 146.674 397.892 152.495 396.08 153.028C394.755 152.993 396.976 151.302 397.266 150.64C393.538 153.466 394.274 154.883 388.572 156.604L388.407 156.192C374.351 163.501 354.824 149.019 355.08 129.263C354.932 130.516 354.653 130.203 354.343 130.706C353.617 120.543 358.592 110.335 366.982 106.16C375.188 101.674 384.808 103.513 390.682 109.57C387.455 104.898 381.028 99.944 373.416 100.403C365.956 100.537 358.975 105.774 356.646 111.463C352.826 114.12 352.38 121.71 350.717 123.101C348.474 141.299 354.93 149.157 365.853 158.407C367.567 159.686 366.335 159.882 366.565 160.855C362.937 158.98 359.616 156.146 356.882 152.676C358.334 155.019 359.898 157.298 361.921 159.088C358.497 157.81 353.926 149.927 352.595 149.607C358.492 161.275 376.519 170.07 385.964 165.705C381.593 165.884 376.043 165.804 371.136 163.799C369.069 162.627 366.27 160.201 366.771 159.748C379.656 165.063 392.963 163.771 404.11 153.899C406.948 151.456 410.046 147.304 410.942 147.248C409.594 149.489 411.174 148.326 410.138 150.304C412.959 145.268 408.907 148.253 413.057 141.608L414.589 143.939C414.015 139.755 419.288 134.68 418.752 128.068C419.962 126.047 420.1 130.246 418.818 134.896C420.598 129.737 419.288 128.907 419.744 124.649C420.235 126.08 420.888 127.6 421.221 129.112C420.06 124.125 422.407 120.716 422.991 117.817C422.414 117.537 421.2 120.021 420.92 114.133C420.962 111.575 421.566 112.792 421.798 112.162C421.345 111.873 420.152 109.912 419.428 106.151C419.95 105.265 420.832 108.442 421.548 108.571C421.087 105.582 420.296 103.302 420.262 101.007C418.17 96.1777 419.521 101.652 417.827 98.9334C415.6 91.2628 419.673 97.1528 419.95 93.6699C423.321 99.0677 425.243 107.439 426.129 110.905C425.454 106.679 424.366 102.582 423.035 98.6202C424.062 99.0994 421.383 89.9261 424.369 96.0006C421.182 83.0516 410.738 70.9509 401.128 65.2754C402.301 66.4631 403.784 67.9548 403.255 68.1898C398.472 65.048 399.313 64.8 398.628 63.4726C394.738 61.7218 394.478 63.6161 391.905 63.476C384.565 59.1727 383.151 59.6296 376.396 56.9373L376.703 58.5258C371.841 56.7358 371.038 59.2009 365.785 58.5293C365.466 58.2553 367.469 57.5299 369.12 57.2671C364.418 57.9535 364.638 56.2416 360.038 57.4552C361.17 56.577 362.372 55.9935 363.58 55.2476C359.748 55.5047 354.427 57.7125 356.069 55.7029C349.817 58.7867 338.712 63.1143 332.481 69.5711L332.285 68.1242C329.43 71.911 319.833 79.4342 319.069 84.3435L318.305 84.5394C316.821 87.3193 315.858 90.4684 314.68 93.3267C312.738 96.9867 311.832 94.7363 312.108 95.3106C308.286 103.872 306.385 111.066 304.746 116.969C305.914 118.898 304.775 128.588 305.215 136.343C303.298 174.647 329.544 211.834 358.234 220.418C362.439 222.083 368.691 222.024 374.01 222.188C367.736 220.204 366.926 221.138 360.811 218.783C356.401 216.486 355.436 213.867 352.311 210.87L353.548 213.285C347.423 210.889 349.986 210.32 345.001 208.577L346.323 206.673C344.336 206.506 341.063 202.978 340.168 201.018L337.995 201.113C335.386 197.56 333.994 194.992 334.097 193.003L333.395 194.386C332.6 192.878 323.792 181.04 328.362 183.796C327.513 182.942 326.384 182.403 325.161 179.944L326.09 178.771C323.895 175.645 322.044 171.638 322.186 170.303C323.358 172.052 324.172 172.38 324.978 172.68C319.425 157.459 319.113 171.843 314.909 157.186L315.797 157.108C315.117 155.969 314.7 154.74 314.153 153.53L314.542 149.27C310.546 144.169 313.424 127.558 314.003 118.45C314.4 114.747 317.339 110.803 319.572 104.619L318.212 104.362C320.814 99.3499 333.064 84.227 338.741 85.0026C341.49 81.1879 338.194 84.9884 337.656 84.0293C343.695 77.1251 345.594 79.1518 349.669 77.9081C354.061 75.0275 345.897 79.0343 347.98 76.8099C355.578 74.6677 353.362 71.9361 363.273 70.8492C364.319 71.5052 360.848 71.8634 359.977 72.7155C366.305 69.2923 380.005 70.0736 388.908 74.6137C399.23 79.948 410.834 95.7085 411.293 110.537L411.815 110.692C411.552 116.587 412.632 123.406 410.757 129.667L412.024 126.7Z" fill="url(#paint17_linear_1_710)"/>
<path d="M349.413 146.711L349.057 148.663C350.716 151.152 352.032 153.849 354.146 155.788C352.624 152.508 351.495 151.152 349.413 146.711Z" fill="url(#paint18_linear_1_710)"/>
<path d="M353.33 146.543C352.452 145.47 351.936 144.179 351.352 142.896C351.909 145.154 353.05 147.095 354.108 149.072L353.33 146.543Z" fill="url(#paint19_linear_1_710)"/>
<path d="M422.656 129.893L422.286 130.922C421.608 136.251 420.138 141.524 417.891 146.415C420.375 141.255 421.976 135.612 422.656 129.893Z" fill="url(#paint20_linear_1_710)"/>
<path d="M367.873 54.8862C369.576 54.1985 372.061 54.5079 373.874 54.0547C371.515 54.2733 369.167 54.4035 366.851 54.7299L367.873 54.8862Z" fill="url(#paint21_linear_1_710)"/>
<path d="M308.018 90.0546C308.412 94.0708 305.285 95.6314 308.71 92.9801C310.55 88.4046 307.995 91.7177 308.018 90.0546Z" fill="url(#paint22_linear_1_710)"/>
<path d="M303.99 108.651C304.781 105.972 304.923 104.365 305.225 102.812C303.043 105.895 304.219 106.554 303.99 108.651Z" fill="url(#paint23_linear_1_710)"/>
<g filter="url(#filter1_f_1_710)">
<path fill-rule="evenodd" clip-rule="evenodd" d="M365.002 30.5145C336.463 30.5145 309.093 41.8516 288.913 62.0318C268.733 82.2119 257.396 109.582 257.396 138.121C257.396 166.66 268.733 194.03 288.913 214.21C309.093 234.391 336.463 245.728 365.002 245.728C393.541 245.728 420.911 234.391 441.091 214.21C461.272 194.03 472.609 166.66 472.609 138.121C472.609 109.582 461.272 82.2119 441.091 62.0318C420.911 41.8516 393.541 30.5145 365.002 30.5145ZM365.002 43.9654C340.03 43.9654 316.082 53.8853 298.424 71.5429C280.766 89.2006 270.846 113.149 270.846 138.121C270.846 163.093 280.766 187.042 298.424 204.699C316.082 222.357 340.03 232.277 365.002 232.277C389.974 232.277 413.923 222.357 431.58 204.699C449.238 187.042 459.158 163.093 459.158 138.121C459.158 113.149 449.238 89.2006 431.58 71.5429C413.923 53.8853 389.974 43.9654 365.002 43.9654Z" fill="#D6D6D6"/>
<path d="M365.003 156.952C375.403 156.952 383.834 148.521 383.834 138.121C383.834 127.721 375.403 119.29 365.003 119.29C354.603 119.29 346.172 127.721 346.172 138.121C346.172 148.521 354.603 156.952 365.003 156.952Z" fill="#D6D6D6"/>
<path d="M457.74 155.078C460.318 155.418 462.682 153.603 463.022 151.025C463.361 148.448 461.547 146.083 458.969 145.743C456.391 145.404 454.026 147.219 453.687 149.796C453.347 152.374 455.162 154.739 457.74 155.078Z" fill="#D6D6D6"/>
<path d="M365.004 232.277L368.232 175.783L365.004 148.882L361.775 175.783L365.004 232.277Z" fill="#D6D6D6"/>
<path d="M450.19 178.503C452.592 179.498 455.346 178.357 456.341 175.955C457.336 173.553 456.195 170.799 453.793 169.804C451.391 168.809 448.637 169.949 447.642 172.352C446.647 174.754 447.788 177.508 450.19 178.503Z" fill="#D6D6D6"/>
<path d="M340.634 229.069L358.373 175.336L362.218 148.515L352.137 173.665L340.634 229.069Z" fill="#D6D6D6"/>
<path d="M436.835 199.174C438.898 200.757 441.853 200.368 443.436 198.305C445.019 196.243 444.63 193.287 442.567 191.704C440.504 190.122 437.549 190.511 435.966 192.574C434.383 194.636 434.772 197.592 436.835 199.174Z" fill="#D6D6D6"/>
<path d="M317.924 219.662L348.967 172.352L359.622 147.44L343.375 169.123L317.924 219.662Z" fill="#D6D6D6"/>
<path d="M418.585 215.686C420.168 217.749 423.123 218.138 425.186 216.555C427.249 214.972 427.638 212.017 426.055 209.954C424.472 207.891 421.517 207.502 419.454 209.085C417.391 210.668 417.002 213.623 418.585 215.686Z" fill="#D6D6D6"/>
<path d="M298.423 204.699L340.653 167.035L357.393 145.73L336.088 162.47L298.423 204.699Z" fill="#D6D6D6"/>
<path d="M396.686 226.912C397.681 229.314 400.435 230.454 402.837 229.459C405.239 228.464 406.38 225.71 405.385 223.308C404.39 220.906 401.636 219.766 399.234 220.761C396.832 221.756 395.691 224.509 396.686 226.912Z" fill="#D6D6D6"/>
<path d="M283.463 185.199L334.002 159.748L355.685 143.502L330.774 154.157L283.463 185.199Z" fill="#D6D6D6"/>
<path d="M372.627 232.086C372.966 234.664 375.331 236.479 377.909 236.139C380.487 235.8 382.302 233.435 381.962 230.857C381.623 228.279 379.258 226.465 376.68 226.804C374.102 227.144 372.288 229.508 372.627 232.086Z" fill="#D6D6D6"/>
<path d="M274.057 162.491L329.461 150.988L354.611 140.907L327.79 144.751L274.057 162.491Z" fill="#D6D6D6"/>
<path d="M348.047 230.857C347.707 233.435 349.522 235.799 352.1 236.139C354.677 236.478 357.042 234.664 357.382 232.086C357.721 229.508 355.906 227.143 353.329 226.804C350.751 226.464 348.386 228.279 348.047 230.857Z" fill="#D6D6D6"/>
<path d="M270.848 138.121L327.342 141.349L354.243 138.121L327.342 134.893L270.848 138.121Z" fill="#D6D6D6"/>
<path d="M324.623 223.308C323.628 225.71 324.768 228.464 327.17 229.459C329.573 230.454 332.326 229.313 333.321 226.911C334.316 224.509 333.176 221.755 330.774 220.76C328.371 219.765 325.618 220.906 324.623 223.308Z" fill="#D6D6D6"/>
<path d="M274.056 113.752L327.789 131.492L354.61 135.336L329.46 125.255L274.056 113.752Z" fill="#D6D6D6"/>
<path d="M303.949 209.954C302.367 212.017 302.756 214.972 304.818 216.555C306.881 218.138 309.836 217.748 311.419 215.686C313.002 213.623 312.613 210.668 310.55 209.085C308.487 207.502 305.532 207.891 303.949 209.954Z" fill="#D6D6D6"/>
<path d="M283.461 91.0429L330.772 122.085L355.684 132.74L334 116.494L283.461 91.0429Z" fill="#D6D6D6"/>
<path d="M287.437 191.704C285.374 193.287 284.985 196.243 286.568 198.305C288.15 200.368 291.106 200.757 293.168 199.174C295.231 197.591 295.62 194.636 294.037 192.573C292.455 190.511 289.499 190.122 287.437 191.704Z" fill="#D6D6D6"/>
<path d="M298.423 71.543L336.088 113.773L357.393 130.512L340.653 109.207L298.423 71.543Z" fill="#D6D6D6"/>
<path d="M276.21 169.803C273.808 170.798 272.667 173.552 273.662 175.955C274.657 178.357 277.411 179.497 279.813 178.502C282.215 177.507 283.356 174.753 282.361 172.351C281.366 169.949 278.612 168.808 276.21 169.803Z" fill="#D6D6D6"/>
<path d="M317.923 56.58L343.374 107.119L359.62 128.802L348.965 103.891L317.923 56.58Z" fill="#D6D6D6"/>
<path d="M271.035 145.743C268.457 146.083 266.643 148.448 266.982 151.025C267.321 153.603 269.686 155.418 272.264 155.078C274.842 154.739 276.657 152.374 276.317 149.796C275.978 147.219 273.613 145.404 271.035 145.743Z" fill="#D6D6D6"/>
<path d="M340.632 47.1739L352.135 102.578L362.216 127.727L358.372 100.907L340.632 47.1739Z" fill="#D6D6D6"/>
<path d="M272.266 121.164C269.688 120.825 267.323 122.639 266.984 125.217C266.645 127.795 268.459 130.16 271.037 130.499C273.615 130.838 275.98 129.024 276.319 126.446C276.658 123.868 274.844 121.503 272.266 121.164Z" fill="#D6D6D6"/>
<path d="M365.002 43.9655L361.774 100.459L365.002 127.361L368.23 100.459L365.002 43.9655Z" fill="#D6D6D6"/>
<path d="M279.814 97.7399C277.412 96.7449 274.658 97.8856 273.663 100.288C272.668 102.69 273.809 105.444 276.211 106.439C278.613 107.434 281.367 106.293 282.362 103.891C283.357 101.489 282.216 98.7349 279.814 97.7399Z" fill="#D6D6D6"/>
<path d="M389.37 47.1737L371.631 100.907L367.786 127.727L377.867 102.578L389.37 47.1737Z" fill="#D6D6D6"/>
<path d="M293.169 77.0681C291.107 75.4853 288.151 75.8744 286.568 77.9371C284.986 79.9999 285.375 82.9552 287.437 84.538C289.5 86.1208 292.455 85.7317 294.038 83.669C295.621 81.6062 295.232 78.6509 293.169 77.0681Z" fill="#D6D6D6"/>
<path d="M412.08 56.5803L381.038 103.891L370.383 128.803L386.629 107.119L412.08 56.5803Z" fill="#D6D6D6"/>
<path d="M311.419 60.5567C309.836 58.494 306.881 58.1049 304.818 59.6877C302.755 61.2705 302.366 64.2258 303.949 66.2886C305.532 68.3513 308.487 68.7404 310.55 67.1576C312.613 65.5748 313.002 62.6195 311.419 60.5567Z" fill="#D6D6D6"/>
<path d="M431.582 71.5434L389.352 109.208L372.612 130.513L393.917 113.773L431.582 71.5434Z" fill="#D6D6D6"/>
<path d="M333.321 49.331C332.326 46.9288 329.572 45.7881 327.17 46.7831C324.767 47.7781 323.627 50.532 324.622 52.9341C325.617 55.3363 328.371 56.477 330.773 55.482C333.175 54.487 334.316 51.7331 333.321 49.331Z" fill="#D6D6D6"/>
<path d="M446.544 91.0434L396.005 116.494L374.321 132.741L399.233 122.086L446.544 91.0434Z" fill="#D6D6D6"/>
<path d="M357.38 44.1563C357.041 41.5785 354.676 39.7639 352.098 40.1033C349.52 40.4427 347.706 42.8075 348.045 45.3853C348.385 47.9631 350.749 49.7777 353.327 49.4383C355.905 49.0989 357.72 46.7341 357.38 44.1563Z" fill="#D6D6D6"/>
<path d="M455.95 113.752L400.546 125.255L375.396 135.336L402.217 131.491L455.95 113.752Z" fill="#D6D6D6"/>
<path d="M381.959 45.3857C382.298 42.8079 380.484 40.4431 377.906 40.1037C375.328 39.7643 372.963 41.5789 372.624 44.1567C372.284 46.7345 374.099 49.0993 376.677 49.4387C379.255 49.7781 381.619 47.9635 381.959 45.3857Z" fill="#D6D6D6"/>
<path d="M459.157 138.121L402.664 134.893L375.762 138.121L402.664 141.35L459.157 138.121Z" fill="#D6D6D6"/>
<path d="M405.383 52.9344C406.378 50.5322 405.238 47.7783 402.835 46.7833C400.433 45.7883 397.679 46.929 396.684 49.3312C395.689 51.7333 396.83 54.4872 399.232 55.4822C401.634 56.4772 404.388 55.3365 405.383 52.9344Z" fill="#D6D6D6"/>
<path d="M455.95 162.491L402.217 144.751L375.396 140.906L400.546 150.987L455.95 162.491Z" fill="#D6D6D6"/>
<path d="M426.056 66.2877C427.639 64.225 427.25 61.2697 425.187 59.6869C423.124 58.1041 420.169 58.4931 418.586 60.5559C417.003 62.6186 417.392 65.5739 419.455 67.1568C421.518 68.7396 424.473 68.3505 426.056 66.2877Z" fill="#D6D6D6"/>
<path d="M446.544 185.199L399.233 154.156L374.322 143.501L396.005 159.748L446.544 185.199Z" fill="#D6D6D6"/>
<path d="M442.568 84.5372C444.631 82.9544 445.02 79.9991 443.437 77.9364C441.854 75.8736 438.899 75.4846 436.836 77.0674C434.773 78.6502 434.384 81.6055 435.967 83.6682C437.55 85.731 440.505 86.1201 442.568 84.5372Z" fill="#D6D6D6"/>
<path d="M431.581 204.699L393.916 162.469L372.611 145.73L389.351 167.035L431.581 204.699Z" fill="#D6D6D6"/>
<path d="M453.794 106.439C456.196 105.444 457.337 102.69 456.342 100.288C455.347 97.8854 452.593 96.7447 450.191 97.7397C447.789 98.7347 446.648 101.489 447.643 103.891C448.638 106.293 451.392 107.434 453.794 106.439Z" fill="#D6D6D6"/>
<path d="M412.082 219.662L386.631 169.123L370.384 147.44L381.039 172.351L412.082 219.662Z" fill="#D6D6D6"/>
<path d="M458.969 130.499C461.547 130.159 463.362 127.795 463.022 125.217C462.683 122.639 460.318 120.824 457.74 121.164C455.162 121.503 453.348 123.868 453.687 126.446C454.027 129.024 456.391 130.838 458.969 130.499Z" fill="#D6D6D6"/>
<path d="M389.372 229.068L377.869 173.664L367.788 148.515L371.633 175.335L389.372 229.068Z" fill="#D6D6D6"/>
</g>
<path d="M376.937 142.889C374.416 142.924 377.411 144.321 380.703 144.882C381.616 144.095 382.436 143.305 383.172 142.533C381.125 143.087 379.04 143.099 376.937 142.889Z" fill="url(#paint24_linear_1_710)"/>
<path d="M390.466 139.162C391.973 136.87 393.066 134.364 393.453 131.773C393.113 133.619 392.211 135.213 391.353 136.898C386.64 140.178 390.908 134.952 391.35 132.962C386.284 140.016 390.651 137.191 390.466 139.162Z" fill="url(#paint25_linear_1_710)"/>
<path d="M395.464 124.798C395.771 119.78 394.572 121.369 394.168 123.28C394.638 123.552 395.01 126.819 395.464 124.798Z" fill="url(#paint26_linear_1_710)"/>
<path d="M367.373 56.2231C368.719 56.488 370.282 56.693 370.057 57.049C371.535 56.6889 371.868 56.3648 367.373 56.2231Z" fill="url(#paint27_linear_1_710)"/>
<path d="M370.058 57.0493L369.111 57.2678L369.994 57.1783L370.058 57.0493Z" fill="url(#paint28_linear_1_710)"/>
<path d="M412.024 126.7C412.176 131.204 410.834 133.393 409.621 137.264L407.439 138.463C405.656 142.292 407.617 140.894 406.339 143.939C403.552 146.674 397.892 152.495 396.08 153.028C394.755 152.993 396.976 151.302 397.266 150.64C393.538 153.466 394.274 154.883 388.572 156.604L388.407 156.192C374.351 163.501 354.824 149.019 355.08 129.263C354.932 130.516 354.653 130.203 354.343 130.706C353.617 120.543 358.592 110.335 366.982 106.16C375.188 101.674 384.808 103.513 390.682 109.57C387.455 104.898 381.028 99.944 373.416 100.403C365.956 100.537 358.975 105.774 356.646 111.463C352.826 114.12 352.38 121.71 350.717 123.101C348.474 141.299 354.93 149.157 365.853 158.407C367.567 159.686 366.335 159.882 366.565 160.855C362.937 158.98 359.616 156.146 356.882 152.676C358.334 155.019 359.898 157.298 361.921 159.088C358.497 157.81 353.926 149.927 352.595 149.607C358.492 161.275 376.519 170.07 385.964 165.705C381.593 165.884 376.043 165.804 371.136 163.799C369.069 162.627 366.27 160.201 366.771 159.748C379.656 165.063 392.963 163.771 404.11 153.899C406.948 151.456 410.046 147.304 410.942 147.248C409.594 149.489 411.174 148.326 410.138 150.304C412.959 145.268 408.907 148.253 413.057 141.608L414.589 143.939C414.015 139.755 419.288 134.68 418.752 128.068C419.962 126.047 420.1 130.246 418.818 134.896C420.598 129.737 419.288 128.907 419.744 124.649C420.235 126.08 420.888 127.6 421.221 129.112C420.06 124.125 422.407 120.716 422.991 117.817C422.414 117.537 421.2 120.021 420.92 114.133C420.962 111.575 421.566 112.792 421.798 112.162C421.345 111.873 420.152 109.912 419.428 106.151C419.95 105.265 420.832 108.442 421.548 108.571C421.087 105.582 420.296 103.302 420.262 101.007C418.17 96.1777 419.521 101.652 417.827 98.9334C415.6 91.2628 419.673 97.1528 419.95 93.6699C423.321 99.0677 425.243 107.439 426.129 110.905C425.454 106.679 424.366 102.582 423.035 98.6202C424.062 99.0994 421.383 89.9261 424.369 96.0006C421.182 83.0516 410.738 70.9509 401.128 65.2754C402.301 66.4631 403.784 67.9548 403.255 68.1898C398.472 65.048 399.313 64.8 398.628 63.4726C394.738 61.7218 394.478 63.6161 391.905 63.476C384.565 59.1727 383.151 59.6296 376.396 56.9373L376.703 58.5258C371.841 56.7358 371.038 59.2009 365.785 58.5293C365.466 58.2553 367.469 57.5299 369.12 57.2671C364.418 57.9535 364.638 56.2416 360.038 57.4552C361.17 56.577 362.372 55.9935 363.58 55.2476C359.748 55.5047 354.427 57.7125 356.069 55.7029C349.817 58.7867 338.712 63.1143 332.481 69.5711L332.285 68.1242C329.43 71.911 319.833 79.4342 319.069 84.3435L318.305 84.5394C316.821 87.3193 315.858 90.4684 314.68 93.3267C312.738 96.9867 311.832 94.7363 312.108 95.3106C308.286 103.872 306.385 111.066 304.746 116.969C305.914 118.898 304.775 128.588 305.215 136.343C303.298 174.647 329.544 211.834 358.234 220.418C362.439 222.083 368.691 222.024 374.01 222.188C367.736 220.204 366.926 221.138 360.811 218.783C356.401 216.486 355.436 213.867 352.311 210.87L353.548 213.285C347.423 210.889 349.986 210.32 345.001 208.577L346.323 206.673C344.336 206.506 341.063 202.978 340.168 201.018L337.995 201.113C335.386 197.56 333.994 194.992 334.097 193.003L333.395 194.386C332.6 192.878 323.792 181.04 328.362 183.796C327.513 182.942 326.384 182.403 325.161 179.944L326.09 178.771C323.895 175.645 322.044 171.638 322.186 170.303C323.358 172.052 324.172 172.38 324.978 172.68C319.425 157.459 319.113 171.843 314.909 157.186L315.797 157.108C315.117 155.969 314.7 154.74 314.153 153.53L314.542 149.27C310.546 144.169 313.424 127.558 314.003 118.45C314.4 114.747 317.339 110.803 319.572 104.619L318.212 104.362C320.814 99.3499 333.064 84.227 338.741 85.0026C341.49 81.1879 338.194 84.9884 337.656 84.0293C343.695 77.1251 345.594 79.1518 349.669 77.9081C354.061 75.0275 345.897 79.0343 347.98 76.8099C355.578 74.6677 353.362 71.9361 363.273 70.8492C364.319 71.5052 360.848 71.8634 359.977 72.7155C366.305 69.2923 380.005 70.0736 388.908 74.6137C399.23 79.948 410.834 95.7085 411.293 110.537L411.815 110.692C411.552 116.587 412.632 123.406 410.757 129.667L412.024 126.7Z" fill="url(#paint29_linear_1_710)"/>
<path d="M349.413 146.711L349.057 148.663C350.716 151.152 352.032 153.849 354.146 155.788C352.624 152.508 351.495 151.152 349.413 146.711Z" fill="url(#paint30_linear_1_710)"/>
<path d="M353.33 146.543C352.452 145.47 351.936 144.179 351.352 142.896C351.909 145.154 353.05 147.095 354.108 149.072L353.33 146.543Z" fill="url(#paint31_linear_1_710)"/>
<path d="M422.656 129.893L422.286 130.922C421.608 136.251 420.138 141.524 417.891 146.415C420.375 141.255 421.976 135.612 422.656 129.893Z" fill="url(#paint32_linear_1_710)"/>
<path d="M367.873 54.8862C369.576 54.1985 372.061 54.5079 373.874 54.0547C371.515 54.2733 369.167 54.4035 366.851 54.7299L367.873 54.8862Z" fill="url(#paint33_linear_1_710)"/>
<path d="M308.018 90.0546C308.412 94.0708 305.285 95.6314 308.71 92.9801C310.55 88.4046 307.995 91.7177 308.018 90.0546Z" fill="url(#paint34_linear_1_710)"/>
<path d="M303.99 108.651C304.781 105.972 304.923 104.365 305.225 102.812C303.043 105.895 304.219 106.554 303.99 108.651Z" fill="url(#paint35_linear_1_710)"/>
<path d="M376.937 142.889C374.416 142.924 377.411 144.321 380.703 144.882C381.616 144.095 382.436 143.305 383.172 142.533C381.125 143.087 379.04 143.099 376.937 142.889Z" fill="url(#paint36_linear_1_710)"/>
<path d="M390.466 139.162C391.973 136.87 393.066 134.364 393.453 131.773C393.113 133.619 392.211 135.213 391.353 136.898C386.64 140.178 390.908 134.952 391.35 132.962C386.284 140.016 390.651 137.191 390.466 139.162Z" fill="url(#paint37_linear_1_710)"/>
<path d="M395.464 124.798C395.771 119.78 394.572 121.369 394.168 123.28C394.638 123.552 395.01 126.819 395.464 124.798Z" fill="url(#paint38_linear_1_710)"/>
<path d="M367.373 56.2231C368.719 56.488 370.282 56.693 370.057 57.049C371.535 56.6889 371.868 56.3648 367.373 56.2231Z" fill="url(#paint39_linear_1_710)"/>
<path d="M370.058 57.0493L369.111 57.2678L369.994 57.1783L370.058 57.0493Z" fill="url(#paint40_linear_1_710)"/>
<path d="M412.024 126.7C412.176 131.204 410.834 133.393 409.621 137.264L407.439 138.463C405.656 142.292 407.617 140.894 406.339 143.939C403.552 146.674 397.892 152.495 396.08 153.028C394.755 152.993 396.976 151.302 397.266 150.64C393.538 153.466 394.274 154.883 388.572 156.604L388.407 156.192C374.351 163.501 354.824 149.019 355.08 129.263C354.932 130.516 354.653 130.203 354.343 130.706C353.617 120.543 358.592 110.335 366.982 106.16C375.188 101.674 384.808 103.513 390.682 109.57C387.455 104.898 381.028 99.944 373.416 100.403C365.956 100.537 358.975 105.774 356.646 111.463C352.826 114.12 352.38 121.71 350.717 123.101C348.474 141.299 354.93 149.157 365.853 158.407C367.567 159.686 366.335 159.882 366.565 160.855C362.937 158.98 359.616 156.146 356.882 152.676C358.334 155.019 359.898 157.298 361.921 159.088C358.497 157.81 353.926 149.927 352.595 149.607C358.492 161.275 376.519 170.07 385.964 165.705C381.593 165.884 376.043 165.804 371.136 163.799C369.069 162.627 366.27 160.201 366.771 159.748C379.656 165.063 392.963 163.771 404.11 153.899C406.948 151.456 410.046 147.304 410.942 147.248C409.594 149.489 411.174 148.326 410.138 150.304C412.959 145.268 408.907 148.253 413.057 141.608L414.589 143.939C414.015 139.755 419.288 134.68 418.752 128.068C419.962 126.047 420.1 130.246 418.818 134.896C420.598 129.737 419.288 128.907 419.744 124.649C420.235 126.08 420.888 127.6 421.221 129.112C420.06 124.125 422.407 120.716 422.991 117.817C422.414 117.537 421.2 120.021 420.92 114.133C420.962 111.575 421.566 112.792 421.798 112.162C421.345 111.873 420.152 109.912 419.428 106.151C419.95 105.265 420.832 108.442 421.548 108.571C421.087 105.582 420.296 103.302 420.262 101.007C418.17 96.1777 419.521 101.652 417.827 98.9334C415.6 91.2628 419.673 97.1528 419.95 93.6699C423.321 99.0677 425.243 107.439 426.129 110.905C425.454 106.679 424.366 102.582 423.035 98.6202C424.062 99.0994 421.383 89.9261 424.369 96.0006C421.182 83.0516 410.738 70.9509 401.128 65.2754C402.301 66.4631 403.784 67.9548 403.255 68.1898C398.472 65.048 399.313 64.8 398.628 63.4726C394.738 61.7218 394.478 63.6161 391.905 63.476C384.565 59.1727 383.151 59.6296 376.396 56.9373L376.703 58.5258C371.841 56.7358 371.038 59.2009 365.785 58.5293C365.466 58.2553 367.469 57.5299 369.12 57.2671C364.418 57.9535 364.638 56.2416 360.038 57.4552C361.17 56.577 362.372 55.9935 363.58 55.2476C359.748 55.5047 354.427 57.7125 356.069 55.7029C349.817 58.7867 338.712 63.1143 332.481 69.5711L332.285 68.1242C329.43 71.911 319.833 79.4342 319.069 84.3435L318.305 84.5394C316.821 87.3193 315.858 90.4684 314.68 93.3267C312.738 96.9867 311.832 94.7363 312.108 95.3106C308.286 103.872 306.385 111.066 304.746 116.969C305.914 118.898 304.775 128.588 305.215 136.343C303.298 174.647 329.544 211.834 358.234 220.418C362.439 222.083 368.691 222.024 374.01 222.188C367.736 220.204 366.926 221.138 360.811 218.783C356.401 216.486 355.436 213.867 352.311 210.87L353.548 213.285C347.423 210.889 349.986 210.32 345.001 208.577L346.323 206.673C344.336 206.506 341.063 202.978 340.168 201.018L337.995 201.113C335.386 197.56 333.994 194.992 334.097 193.003L333.395 194.386C332.6 192.878 323.792 181.04 328.362 183.796C327.513 182.942 326.384 182.403 325.161 179.944L326.09 178.771C323.895 175.645 322.044 171.638 322.186 170.303C323.358 172.052 324.172 172.38 324.978 172.68C319.425 157.459 319.113 171.843 314.909 157.186L315.797 157.108C315.117 155.969 314.7 154.74 314.153 153.53L314.542 149.27C310.546 144.169 313.424 127.558 314.003 118.45C314.4 114.747 317.339 110.803 319.572 104.619L318.212 104.362C320.814 99.3499 333.064 84.227 338.741 85.0026C341.49 81.1879 338.194 84.9884 337.656 84.0293C343.695 77.1251 345.594 79.1518 349.669 77.9081C354.061 75.0275 345.897 79.0343 347.98 76.8099C355.578 74.6677 353.362 71.9361 363.273 70.8492C364.319 71.5052 360.848 71.8634 359.977 72.7155C366.305 69.2923 380.005 70.0736 388.908 74.6137C399.23 79.948 410.834 95.7085 411.293 110.537L411.815 110.692C411.552 116.587 412.632 123.406 410.757 129.667L412.024 126.7Z" fill="url(#paint41_linear_1_710)"/>
<path d="M349.413 146.711L349.057 148.663C350.716 151.152 352.032 153.849 354.146 155.788C352.624 152.508 351.495 151.152 349.413 146.711Z" fill="url(#paint42_linear_1_710)"/>
<path d="M353.33 146.543C352.452 145.47 351.936 144.179 351.352 142.896C351.909 145.154 353.05 147.095 354.108 149.072L353.33 146.543Z" fill="url(#paint43_linear_1_710)"/>
<path d="M422.656 129.893L422.286 130.922C421.608 136.251 420.138 141.524 417.891 146.415C420.375 141.255 421.976 135.612 422.656 129.893Z" fill="url(#paint44_linear_1_710)"/>
<path d="M367.873 54.8862C369.576 54.1985 372.061 54.5079 373.874 54.0547C371.515 54.2733 369.167 54.4035 366.851 54.7299L367.873 54.8862Z" fill="url(#paint45_linear_1_710)"/>
<path d="M308.018 90.0546C308.412 94.0708 305.285 95.6314 308.71 92.9801C310.55 88.4046 307.995 91.7177 308.018 90.0546Z" fill="url(#paint46_linear_1_710)"/>
<path d="M303.99 108.651C304.781 105.972 304.923 104.365 305.225 102.812C303.043 105.895 304.219 106.554 303.99 108.651Z" fill="url(#paint47_linear_1_710)"/>
<path fill-rule="evenodd" clip-rule="evenodd" d="M365.002 30.5145C336.463 30.5145 309.093 41.8516 288.913 62.0318C268.733 82.2119 257.396 109.582 257.396 138.121C257.396 166.66 268.733 194.03 288.913 214.21C309.093 234.391 336.463 245.728 365.002 245.728C393.541 245.728 420.911 234.391 441.091 214.21C461.272 194.03 472.609 166.66 472.609 138.121C472.609 109.582 461.272 82.2119 441.091 62.0318C420.911 41.8516 393.541 30.5145 365.002 30.5145ZM365.002 43.9654C340.03 43.9654 316.082 53.8853 298.424 71.5429C280.766 89.2006 270.846 113.149 270.846 138.121C270.846 163.093 280.766 187.042 298.424 204.699C316.082 222.357 340.03 232.277 365.002 232.277C389.974 232.277 413.923 222.357 431.58 204.699C449.238 187.042 459.158 163.093 459.158 138.121C459.158 113.149 449.238 89.2006 431.58 71.5429C413.923 53.8853 389.974 43.9654 365.002 43.9654Z" fill="#D6D6D6"/>
<path d="M365.003 156.952C375.403 156.952 383.834 148.521 383.834 138.121C383.834 127.721 375.403 119.29 365.003 119.29C354.603 119.29 346.172 127.721 346.172 138.121C346.172 148.521 354.603 156.952 365.003 156.952Z" fill="#D6D6D6"/>
<path d="M457.74 155.078C460.318 155.418 462.682 153.603 463.022 151.025C463.361 148.448 461.547 146.083 458.969 145.743C456.391 145.404 454.026 147.219 453.687 149.796C453.347 152.374 455.162 154.739 457.74 155.078Z" fill="#D6D6D6"/>
<path d="M365.004 232.277L368.232 175.783L365.004 148.882L361.775 175.783L365.004 232.277Z" fill="#D6D6D6"/>
<path d="M450.19 178.503C452.592 179.498 455.346 178.357 456.341 175.955C457.336 173.553 456.195 170.799 453.793 169.804C451.391 168.809 448.637 169.949 447.642 172.352C446.647 174.754 447.788 177.508 450.19 178.503Z" fill="#D6D6D6"/>
<path d="M340.634 229.069L358.373 175.336L362.218 148.515L352.137 173.665L340.634 229.069Z" fill="#D6D6D6"/>
<path d="M436.835 199.174C438.898 200.757 441.853 200.368 443.436 198.305C445.019 196.243 444.63 193.287 442.567 191.704C440.504 190.122 437.549 190.511 435.966 192.574C434.383 194.636 434.772 197.592 436.835 199.174Z" fill="#D6D6D6"/>
<path d="M317.924 219.662L348.967 172.352L359.622 147.44L343.375 169.123L317.924 219.662Z" fill="#D6D6D6"/>
<path d="M418.585 215.686C420.168 217.749 423.123 218.138 425.186 216.555C427.249 214.972 427.638 212.017 426.055 209.954C424.472 207.891 421.517 207.502 419.454 209.085C417.391 210.668 417.002 213.623 418.585 215.686Z" fill="#D6D6D6"/>
<path d="M298.423 204.699L340.653 167.035L357.393 145.73L336.088 162.47L298.423 204.699Z" fill="#D6D6D6"/>
<path d="M396.686 226.912C397.681 229.314 400.435 230.454 402.837 229.459C405.239 228.464 406.38 225.71 405.385 223.308C404.39 220.906 401.636 219.766 399.234 220.761C396.832 221.756 395.691 224.509 396.686 226.912Z" fill="#D6D6D6"/>
<path d="M283.463 185.199L334.002 159.748L355.685 143.502L330.774 154.157L283.463 185.199Z" fill="#D6D6D6"/>
<path d="M372.627 232.086C372.966 234.664 375.331 236.479 377.909 236.139C380.487 235.8 382.302 233.435 381.962 230.857C381.623 228.279 379.258 226.465 376.68 226.804C374.102 227.144 372.288 229.508 372.627 232.086Z" fill="#D6D6D6"/>
<path d="M274.057 162.491L329.461 150.988L354.611 140.907L327.79 144.751L274.057 162.491Z" fill="#D6D6D6"/>
<path d="M348.047 230.857C347.707 233.435 349.522 235.799 352.1 236.139C354.677 236.478 357.042 234.664 357.382 232.086C357.721 229.508 355.906 227.143 353.329 226.804C350.751 226.464 348.386 228.279 348.047 230.857Z" fill="#D6D6D6"/>
<path d="M270.848 138.121L327.342 141.349L354.243 138.121L327.342 134.893L270.848 138.121Z" fill="#D6D6D6"/>
<path d="M324.623 223.308C323.628 225.71 324.768 228.464 327.17 229.459C329.573 230.454 332.326 229.313 333.321 226.911C334.316 224.509 333.176 221.755 330.774 220.76C328.371 219.765 325.618 220.906 324.623 223.308Z" fill="#D6D6D6"/>
<path d="M274.056 113.752L327.789 131.492L354.61 135.336L329.46 125.255L274.056 113.752Z" fill="#D6D6D6"/>
<path d="M303.949 209.954C302.367 212.017 302.756 214.972 304.818 216.555C306.881 218.138 309.836 217.748 311.419 215.686C313.002 213.623 312.613 210.668 310.55 209.085C308.487 207.502 305.532 207.891 303.949 209.954Z" fill="#D6D6D6"/>
<path d="M283.461 91.0429L330.772 122.085L355.684 132.74L334 116.494L283.461 91.0429Z" fill="#D6D6D6"/>
<path d="M287.437 191.704C285.374 193.287 284.985 196.243 286.568 198.305C288.15 200.368 291.106 200.757 293.168 199.174C295.231 197.591 295.62 194.636 294.037 192.573C292.455 190.511 289.499 190.122 287.437 191.704Z" fill="#D6D6D6"/>
<path d="M298.423 71.543L336.088 113.773L357.393 130.512L340.653 109.207L298.423 71.543Z" fill="#D6D6D6"/>
<path d="M276.21 169.803C273.808 170.798 272.667 173.552 273.662 175.955C274.657 178.357 277.411 179.497 279.813 178.502C282.215 177.507 283.356 174.753 282.361 172.351C281.366 169.949 278.612 168.808 276.21 169.803Z" fill="#D6D6D6"/>
<path d="M317.923 56.58L343.374 107.119L359.62 128.802L348.965 103.891L317.923 56.58Z" fill="#D6D6D6"/>
<path d="M271.035 145.743C268.457 146.083 266.643 148.448 266.982 151.025C267.321 153.603 269.686 155.418 272.264 155.078C274.842 154.739 276.657 152.374 276.317 149.796C275.978 147.219 273.613 145.404 271.035 145.743Z" fill="#D6D6D6"/>
<path d="M340.632 47.1739L352.135 102.578L362.216 127.727L358.372 100.907L340.632 47.1739Z" fill="#D6D6D6"/>
<path d="M272.266 121.164C269.688 120.825 267.323 122.639 266.984 125.217C266.645 127.795 268.459 130.16 271.037 130.499C273.615 130.838 275.98 129.024 276.319 126.446C276.658 123.868 274.844 121.503 272.266 121.164Z" fill="#D6D6D6"/>
<path d="M365.002 43.9655L361.774 100.459L365.002 127.361L368.23 100.459L365.002 43.9655Z" fill="#D6D6D6"/>
<path d="M279.814 97.7399C277.412 96.7449 274.658 97.8856 273.663 100.288C272.668 102.69 273.809 105.444 276.211 106.439C278.613 107.434 281.367 106.293 282.362 103.891C283.357 101.489 282.216 98.7349 279.814 97.7399Z" fill="#D6D6D6"/>
<path d="M389.37 47.1737L371.631 100.907L367.786 127.727L377.867 102.578L389.37 47.1737Z" fill="#D6D6D6"/>
<path d="M293.169 77.0681C291.107 75.4853 288.151 75.8744 286.568 77.9371C284.986 79.9999 285.375 82.9552 287.437 84.538C289.5 86.1208 292.455 85.7317 294.038 83.669C295.621 81.6062 295.232 78.6509 293.169 77.0681Z" fill="#D6D6D6"/>
<path d="M412.08 56.5803L381.038 103.891L370.383 128.803L386.629 107.119L412.08 56.5803Z" fill="#D6D6D6"/>
<path d="M311.419 60.5567C309.836 58.494 306.881 58.1049 304.818 59.6877C302.755 61.2705 302.366 64.2258 303.949 66.2886C305.532 68.3513 308.487 68.7404 310.55 67.1576C312.613 65.5748 313.002 62.6195 311.419 60.5567Z" fill="#D6D6D6"/>
<path d="M431.582 71.5434L389.352 109.208L372.612 130.513L393.917 113.773L431.582 71.5434Z" fill="#D6D6D6"/>
<path d="M333.321 49.331C332.326 46.9288 329.572 45.7881 327.17 46.7831C324.767 47.7781 323.627 50.532 324.622 52.9341C325.617 55.3363 328.371 56.477 330.773 55.482C333.175 54.487 334.316 51.7331 333.321 49.331Z" fill="#D6D6D6"/>
<path d="M446.544 91.0434L396.005 116.494L374.321 132.741L399.233 122.086L446.544 91.0434Z" fill="#D6D6D6"/>
<path d="M357.38 44.1563C357.041 41.5785 354.676 39.7639 352.098 40.1033C349.52 40.4427 347.706 42.8075 348.045 45.3853C348.385 47.9631 350.749 49.7777 353.327 49.4383C355.905 49.0989 357.72 46.7341 357.38 44.1563Z" fill="#D6D6D6"/>
<path d="M455.95 113.752L400.546 125.255L375.396 135.336L402.217 131.491L455.95 113.752Z" fill="#D6D6D6"/>
<path d="M381.959 45.3857C382.298 42.8079 380.484 40.4431 377.906 40.1037C375.328 39.7643 372.963 41.5789 372.624 44.1567C372.284 46.7345 374.099 49.0993 376.677 49.4387C379.255 49.7781 381.619 47.9635 381.959 45.3857Z" fill="#D6D6D6"/>
<path d="M459.157 138.121L402.664 134.893L375.762 138.121L402.664 141.35L459.157 138.121Z" fill="#D6D6D6"/>
<path d="M405.383 52.9344C406.378 50.5322 405.238 47.7783 402.835 46.7833C400.433 45.7883 397.679 46.929 396.684 49.3312C395.689 51.7333 396.83 54.4872 399.232 55.4822C401.634 56.4772 404.388 55.3365 405.383 52.9344Z" fill="#D6D6D6"/>
<path d="M455.95 162.491L402.217 144.751L375.396 140.906L400.546 150.987L455.95 162.491Z" fill="#D6D6D6"/>
<path d="M426.056 66.2877C427.639 64.225 427.25 61.2697 425.187 59.6869C423.124 58.1041 420.169 58.4931 418.586 60.5559C417.003 62.6186 417.392 65.5739 419.455 67.1568C421.518 68.7396 424.473 68.3505 426.056 66.2877Z" fill="#D6D6D6"/>
<path d="M446.544 185.199L399.233 154.156L374.322 143.501L396.005 159.748L446.544 185.199Z" fill="#D6D6D6"/>
<path d="M442.568 84.5372C444.631 82.9544 445.02 79.9991 443.437 77.9364C441.854 75.8736 438.899 75.4846 436.836 77.0674C434.773 78.6502 434.384 81.6055 435.967 83.6682C437.55 85.731 440.505 86.1201 442.568 84.5372Z" fill="#D6D6D6"/>
<path d="M431.581 204.699L393.916 162.469L372.611 145.73L389.351 167.035L431.581 204.699Z" fill="#D6D6D6"/>
<path d="M453.794 106.439C456.196 105.444 457.337 102.69 456.342 100.288C455.347 97.8854 452.593 96.7447 450.191 97.7397C447.789 98.7347 446.648 101.489 447.643 103.891C448.638 106.293 451.392 107.434 453.794 106.439Z" fill="#D6D6D6"/>
<path d="M412.082 219.662L386.631 169.123L370.384 147.44L381.039 172.351L412.082 219.662Z" fill="#D6D6D6"/>
<path d="M458.969 130.499C461.547 130.159 463.362 127.795 463.022 125.217C462.683 122.639 460.318 120.824 457.74 121.164C455.162 121.503 453.348 123.868 453.687 126.446C454.027 129.024 456.391 130.838 458.969 130.499Z" fill="#D6D6D6"/>
<path d="M389.372 229.068L377.869 173.664L367.788 148.515L371.633 175.335L389.372 229.068Z" fill="#D6D6D6"/>
<path d="M376.937 142.889C374.416 142.924 377.411 144.321 380.703 144.882C381.616 144.095 382.436 143.305 383.172 142.533C381.125 143.087 379.04 143.099 376.937 142.889Z" fill="#A80030"/>
<path d="M390.466 139.162C391.973 136.87 393.066 134.364 393.453 131.773C393.113 133.619 392.211 135.213 391.353 136.898C386.64 140.178 390.908 134.952 391.35 132.962C386.284 140.016 390.651 137.191 390.466 139.162Z" fill="#A80030"/>
<path d="M395.464 124.798C395.771 119.78 394.572 121.369 394.168 123.28C394.638 123.552 395.01 126.819 395.464 124.798Z" fill="#A80030"/>
<path d="M367.373 56.2231C368.719 56.488 370.282 56.693 370.057 57.049C371.535 56.6889 371.868 56.3648 367.373 56.2231Z" fill="#A80030"/>
<path d="M370.058 57.0493L369.111 57.2678L369.994 57.1783L370.058 57.0493Z" fill="#A80030"/>
<path d="M412.024 126.7C412.176 131.204 410.834 133.393 409.621 137.264L407.439 138.463C405.656 142.292 407.617 140.894 406.339 143.939C403.552 146.674 397.892 152.495 396.08 153.028C394.755 152.993 396.976 151.302 397.266 150.64C393.538 153.466 394.274 154.883 388.572 156.604L388.407 156.192C374.351 163.501 354.824 149.019 355.08 129.263C354.932 130.516 354.653 130.203 354.343 130.706C353.617 120.543 358.592 110.335 366.982 106.16C375.188 101.674 384.808 103.513 390.682 109.57C387.455 104.898 381.028 99.944 373.416 100.403C365.956 100.537 358.975 105.774 356.646 111.463C352.826 114.12 352.38 121.71 350.717 123.101C348.474 141.299 354.93 149.157 365.853 158.407C367.567 159.686 366.335 159.882 366.565 160.855C362.937 158.98 359.616 156.146 356.882 152.676C358.334 155.019 359.898 157.298 361.921 159.088C358.497 157.81 353.926 149.927 352.595 149.607C358.492 161.275 376.519 170.07 385.964 165.705C381.593 165.884 376.043 165.804 371.136 163.799C369.069 162.627 366.27 160.201 366.771 159.748C379.656 165.063 392.963 163.771 404.11 153.899C406.948 151.456 410.046 147.304 410.942 147.248C409.594 149.489 411.174 148.326 410.138 150.304C412.959 145.268 408.907 148.253 413.057 141.608L414.589 143.939C414.015 139.755 419.288 134.68 418.752 128.068C419.962 126.047 420.1 130.246 418.818 134.896C420.598 129.737 419.288 128.907 419.744 124.649C420.235 126.08 420.888 127.6 421.221 129.112C420.06 124.125 422.407 120.716 422.991 117.817C422.414 117.537 421.2 120.021 420.92 114.133C420.962 111.575 421.566 112.792 421.798 112.162C421.345 111.873 420.152 109.912 419.428 106.151C419.95 105.265 420.832 108.442 421.548 108.571C421.087 105.582 420.296 103.302 420.262 101.007C418.17 96.1777 419.521 101.652 417.827 98.9334C415.6 91.2628 419.673 97.1528 419.95 93.6699C423.321 99.0677 425.243 107.439 426.129 110.905C425.454 106.679 424.366 102.582 423.035 98.6202C424.062 99.0994 421.383 89.9261 424.369 96.0006C421.182 83.0516 410.738 70.9509 401.128 65.2754C402.301 66.4631 403.784 67.9548 403.255 68.1898C398.472 65.048 399.313 64.8 398.628 63.4726C394.738 61.7218 394.478 63.6161 391.905 63.476C384.565 59.1727 383.151 59.6296 376.396 56.9373L376.703 58.5258C371.841 56.7358 371.038 59.2009 365.785 58.5293C365.466 58.2553 367.469 57.5299 369.12 57.2671C364.418 57.9535 364.638 56.2416 360.038 57.4552C361.17 56.577 362.372 55.9935 363.58 55.2476C359.748 55.5047 354.427 57.7125 356.069 55.7029C349.817 58.7867 338.712 63.1143 332.481 69.5711L332.285 68.1242C329.43 71.911 319.833 79.4342 319.069 84.3435L318.305 84.5394C316.821 87.3193 315.858 90.4684 314.68 93.3267C312.738 96.9867 311.832 94.7363 312.108 95.3106C308.286 103.872 306.385 111.066 304.746 116.969C305.914 118.898 304.775 128.588 305.215 136.343C303.298 174.647 329.544 211.834 358.234 220.418C362.439 222.083 368.691 222.024 374.01 222.188C367.736 220.204 366.926 221.138 360.811 218.783C356.401 216.486 355.436 213.867 352.311 210.87L353.548 213.285C347.423 210.889 349.986 210.32 345.001 208.577L346.323 206.673C344.336 206.506 341.063 202.978 340.168 201.018L337.995 201.113C335.386 197.56 333.994 194.992 334.097 193.003L333.395 194.386C332.6 192.878 323.792 181.04 328.362 183.796C327.513 182.942 326.384 182.403 325.161 179.944L326.09 178.771C323.895 175.645 322.044 171.638 322.186 170.303C323.358 172.052 324.172 172.38 324.978 172.68C319.425 157.459 319.113 171.843 314.909 157.186L315.797 157.108C315.117 155.969 314.7 154.74 314.153 153.53L314.542 149.27C310.546 144.169 313.424 127.558 314.003 118.45C314.4 114.747 317.339 110.803 319.572 104.619L318.212 104.362C320.814 99.3499 333.064 84.227 338.741 85.0026C341.49 81.1879 338.194 84.9884 337.656 84.0293C343.695 77.1251 345.594 79.1518 349.669 77.9081C354.061 75.0275 345.897 79.0343 347.98 76.8099C355.578 74.6677 353.362 71.9361 363.273 70.8492C364.319 71.5052 360.848 71.8634 359.977 72.7155C366.305 69.2923 380.005 70.0736 388.908 74.6137C399.23 79.948 410.834 95.7085 411.293 110.537L411.815 110.692C411.552 116.587 412.632 123.406 410.757 129.667L412.024 126.7Z" fill="#A80030"/>
<path d="M349.413 146.711L349.057 148.663C350.716 151.152 352.032 153.849 354.146 155.788C352.624 152.508 351.495 151.152 349.413 146.711Z" fill="#A80030"/>
<path d="M353.33 146.543C352.452 145.47 351.936 144.179 351.352 142.896C351.909 145.154 353.05 147.095 354.108 149.072L353.33 146.543Z" fill="#A80030"/>
<path d="M422.656 129.893L422.286 130.922C421.608 136.251 420.138 141.524 417.891 146.415C420.375 141.255 421.976 135.612 422.656 129.893Z" fill="#A80030"/>
<path d="M367.873 54.8862C369.576 54.1985 372.061 54.5079 373.874 54.0547C371.515 54.2733 369.167 54.4035 366.851 54.7299L367.873 54.8862Z" fill="#A80030"/>
<path d="M308.018 90.0546C308.412 94.0708 305.285 95.6314 308.71 92.9801C310.55 88.4046 307.995 91.7177 308.018 90.0546Z" fill="#A80030"/>
<path d="M303.99 108.651C304.781 105.972 304.923 104.365 305.225 102.812C303.043 105.895 304.219 106.554 303.99 108.651Z" fill="#A80030"/>
<path d="M376.937 142.889C374.416 142.924 377.411 144.321 380.703 144.882C381.616 144.095 382.436 143.305 383.172 142.533C381.125 143.087 379.04 143.099 376.937 142.889Z" fill="#A80030"/>
<path d="M390.466 139.162C391.973 136.87 393.066 134.364 393.453 131.773C393.113 133.619 392.211 135.213 391.353 136.898C386.64 140.178 390.908 134.952 391.35 132.962C386.284 140.016 390.651 137.191 390.466 139.162Z" fill="#A80030"/>
<path d="M395.464 124.798C395.771 119.78 394.572 121.369 394.168 123.28C394.638 123.552 395.01 126.819 395.464 124.798Z" fill="#A80030"/>
<path d="M367.373 56.2231C368.719 56.488 370.282 56.693 370.057 57.049C371.535 56.6889 371.868 56.3648 367.373 56.2231Z" fill="#A80030"/>
<path d="M370.058 57.0493L369.111 57.2678L369.994 57.1783L370.058 57.0493Z" fill="#A80030"/>
<path d="M349.413 146.711L349.057 148.663C350.716 151.152 352.032 153.849 354.146 155.788C352.624 152.508 351.495 151.152 349.413 146.711Z" fill="#A80030"/>
<path d="M353.33 146.543C352.452 145.47 351.936 144.179 351.352 142.896C351.909 145.154 353.05 147.095 354.108 149.072L353.33 146.543Z" fill="#A80030"/>
<path d="M422.656 129.893L422.286 130.922C421.608 136.251 420.138 141.524 417.891 146.415C420.375 141.255 421.976 135.612 422.656 129.893Z" fill="#A80030"/>
<path d="M367.873 54.8862C369.576 54.1985 372.061 54.5079 373.874 54.0547C371.515 54.2733 369.167 54.4035 366.851 54.7299L367.873 54.8862Z" fill="#A80030"/>
<path d="M308.018 90.0546C308.412 94.0708 305.285 95.6314 308.71 92.9801C310.55 88.4046 307.995 91.7177 308.018 90.0546Z" fill="#A80030"/>
<path d="M303.99 108.651C304.781 105.972 304.923 104.365 305.225 102.812C303.043 105.895 304.219 106.554 303.99 108.651Z" fill="#A80030"/>
</g>
<defs>
<filter id="filter0_f_1_710" x="257.383" y="30.5024" width="215.238" height="215.237" filterUnits="userSpaceOnUse" color-interpolation-filters="sRGB">
<feFlood flood-opacity="0" result="BackgroundImageFix"/>
<feBlend mode="normal" in="SourceGraphic" in2="BackgroundImageFix" result="shape"/>
<feGaussianBlur stdDeviation="0.00605287" result="effect1_foregroundBlur_1_710"/>
</filter>
<filter id="filter1_f_1_710" x="257.383" y="30.5024" width="215.238" height="215.237" filterUnits="userSpaceOnUse" color-interpolation-filters="sRGB">
<feFlood flood-opacity="0" result="BackgroundImageFix"/>
<feBlend mode="normal" in="SourceGraphic" in2="BackgroundImageFix" result="shape"/>
<feGaussianBlur stdDeviation="0.00605287" result="effect1_foregroundBlur_1_710"/>
</filter>
<linearGradient id="paint0_linear_1_710" x1="303.875" y1="138.121" x2="426.129" y2="138.121" gradientUnits="userSpaceOnUse">
<stop stop-color="#FF8F1C"/>
<stop offset="1" stop-color="#509E2F"/>
</linearGradient>
<linearGradient id="paint1_linear_1_710" x1="303.876" y1="138.121" x2="426.129" y2="138.121" gradientUnits="userSpaceOnUse">
<stop stop-color="#FF8F1C"/>
<stop offset="1" stop-color="#509E2F"/>
</linearGradient>
<linearGradient id="paint2_linear_1_710" x1="303.875" y1="138.121" x2="426.128" y2="138.121" gradientUnits="userSpaceOnUse">
<stop stop-color="#FF8F1C"/>
<stop offset="1" stop-color="#509E2F"/>
</linearGradient>
<linearGradient id="paint3_linear_1_710" x1="303.875" y1="138.114" x2="426.129" y2="138.114" gradientUnits="userSpaceOnUse">
<stop stop-color="#FF8F1C"/>
<stop offset="1" stop-color="#509E2F"/>
</linearGradient>
<linearGradient id="paint4_linear_1_710" x1="303.874" y1="138.119" x2="426.128" y2="138.119" gradientUnits="userSpaceOnUse">
<stop stop-color="#FF8F1C"/>
<stop offset="1" stop-color="#509E2F"/>
</linearGradient>
<linearGradient id="paint5_linear_1_710" x1="303.875" y1="138.121" x2="426.129" y2="138.121" gradientUnits="userSpaceOnUse">
<stop stop-color="#FF8F1C"/>
<stop offset="1" stop-color="#509E2F"/>
</linearGradient>
<linearGradient id="paint6_linear_1_710" x1="303.875" y1="138.121" x2="426.129" y2="138.121" gradientUnits="userSpaceOnUse">
<stop stop-color="#FF8F1C"/>
<stop offset="1" stop-color="#509E2F"/>
</linearGradient>
<linearGradient id="paint7_linear_1_710" x1="303.875" y1="138.121" x2="426.129" y2="138.121" gradientUnits="userSpaceOnUse">
<stop stop-color="#FF8F1C"/>
<stop offset="1" stop-color="#509E2F"/>
</linearGradient>
<linearGradient id="paint8_linear_1_710" x1="303.875" y1="138.121" x2="426.129" y2="138.121" gradientUnits="userSpaceOnUse">
<stop stop-color="#FF8F1C"/>
<stop offset="1" stop-color="#509E2F"/>
</linearGradient>
<linearGradient id="paint9_linear_1_710" x1="303.874" y1="138.117" x2="426.128" y2="138.117" gradientUnits="userSpaceOnUse">
<stop stop-color="#FF8F1C"/>
<stop offset="1" stop-color="#509E2F"/>
</linearGradient>
<linearGradient id="paint10_linear_1_710" x1="303.874" y1="138.122" x2="426.128" y2="138.122" gradientUnits="userSpaceOnUse">
<stop stop-color="#FF8F1C"/>
<stop offset="1" stop-color="#509E2F"/>
</linearGradient>
<linearGradient id="paint11_linear_1_710" x1="303.875" y1="138.121" x2="426.129" y2="138.121" gradientUnits="userSpaceOnUse">
<stop stop-color="#FF8F1C"/>
<stop offset="1" stop-color="#509E2F"/>
</linearGradient>
<linearGradient id="paint12_linear_1_710" x1="303.875" y1="138.121" x2="426.129" y2="138.121" gradientUnits="userSpaceOnUse">
<stop stop-color="#FF8F1C"/>
<stop offset="1" stop-color="#509E2F"/>
</linearGradient>
<linearGradient id="paint13_linear_1_710" x1="303.876" y1="138.121" x2="426.129" y2="138.121" gradientUnits="userSpaceOnUse">
<stop stop-color="#FF8F1C"/>
<stop offset="1" stop-color="#509E2F"/>
</linearGradient>
<linearGradient id="paint14_linear_1_710" x1="303.875" y1="138.121" x2="426.128" y2="138.121" gradientUnits="userSpaceOnUse">
<stop stop-color="#FF8F1C"/>
<stop offset="1" stop-color="#509E2F"/>
</linearGradient>
<linearGradient id="paint15_linear_1_710" x1="303.875" y1="138.114" x2="426.129" y2="138.114" gradientUnits="userSpaceOnUse">
<stop stop-color="#FF8F1C"/>
<stop offset="1" stop-color="#509E2F"/>
</linearGradient>
<linearGradient id="paint16_linear_1_710" x1="303.874" y1="138.119" x2="426.128" y2="138.119" gradientUnits="userSpaceOnUse">
<stop stop-color="#FF8F1C"/>
<stop offset="1" stop-color="#509E2F"/>
</linearGradient>
<linearGradient id="paint17_linear_1_710" x1="303.875" y1="138.121" x2="426.129" y2="138.121" gradientUnits="userSpaceOnUse">
<stop stop-color="#FF8F1C"/>
<stop offset="1" stop-color="#509E2F"/>
</linearGradient>
<linearGradient id="paint18_linear_1_710" x1="303.875" y1="138.121" x2="426.129" y2="138.121" gradientUnits="userSpaceOnUse">
<stop stop-color="#FF8F1C"/>
<stop offset="1" stop-color="#509E2F"/>
</linearGradient>
<linearGradient id="paint19_linear_1_710" x1="303.875" y1="138.121" x2="426.129" y2="138.121" gradientUnits="userSpaceOnUse">
<stop stop-color="#FF8F1C"/>
<stop offset="1" stop-color="#509E2F"/>
</linearGradient>
<linearGradient id="paint20_linear_1_710" x1="303.875" y1="138.121" x2="426.129" y2="138.121" gradientUnits="userSpaceOnUse">
<stop stop-color="#FF8F1C"/>
<stop offset="1" stop-color="#509E2F"/>
</linearGradient>
<linearGradient id="paint21_linear_1_710" x1="303.874" y1="138.117" x2="426.128" y2="138.117" gradientUnits="userSpaceOnUse">
<stop stop-color="#FF8F1C"/>
<stop offset="1" stop-color="#509E2F"/>
</linearGradient>
<linearGradient id="paint22_linear_1_710" x1="303.874" y1="138.122" x2="426.128" y2="138.122" gradientUnits="userSpaceOnUse">
<stop stop-color="#FF8F1C"/>
<stop offset="1" stop-color="#509E2F"/>
</linearGradient>
<linearGradient id="paint23_linear_1_710" x1="303.875" y1="138.121" x2="426.129" y2="138.121" gradientUnits="userSpaceOnUse">
<stop stop-color="#FF8F1C"/>
<stop offset="1" stop-color="#509E2F"/>
</linearGradient>
<linearGradient id="paint24_linear_1_710" x1="303.875" y1="138.121" x2="426.129" y2="138.121" gradientUnits="userSpaceOnUse">
<stop stop-color="#FF8F1C"/>
<stop offset="1" stop-color="#509E2F"/>
</linearGradient>
<linearGradient id="paint25_linear_1_710" x1="303.876" y1="138.121" x2="426.129" y2="138.121" gradientUnits="userSpaceOnUse">
<stop stop-color="#FF8F1C"/>
<stop offset="1" stop-color="#509E2F"/>
</linearGradient>
<linearGradient id="paint26_linear_1_710" x1="303.875" y1="138.121" x2="426.128" y2="138.121" gradientUnits="userSpaceOnUse">
<stop stop-color="#FF8F1C"/>
<stop offset="1" stop-color="#509E2F"/>
</linearGradient>
<linearGradient id="paint27_linear_1_710" x1="303.875" y1="138.114" x2="426.129" y2="138.114" gradientUnits="userSpaceOnUse">
<stop stop-color="#FF8F1C"/>
<stop offset="1" stop-color="#509E2F"/>
</linearGradient>
<linearGradient id="paint28_linear_1_710" x1="303.874" y1="138.119" x2="426.128" y2="138.119" gradientUnits="userSpaceOnUse">
<stop stop-color="#FF8F1C"/>
<stop offset="1" stop-color="#509E2F"/>
</linearGradient>
<linearGradient id="paint29_linear_1_710" x1="303.875" y1="138.121" x2="426.129" y2="138.121" gradientUnits="userSpaceOnUse">
<stop stop-color="#FF8F1C"/>
<stop offset="1" stop-color="#509E2F"/>
</linearGradient>
<linearGradient id="paint30_linear_1_710" x1="303.875" y1="138.121" x2="426.129" y2="138.121" gradientUnits="userSpaceOnUse">
<stop stop-color="#FF8F1C"/>
<stop offset="1" stop-color="#509E2F"/>
</linearGradient>
<linearGradient id="paint31_linear_1_710" x1="303.875" y1="138.121" x2="426.129" y2="138.121" gradientUnits="userSpaceOnUse">
<stop stop-color="#FF8F1C"/>
<stop offset="1" stop-color="#509E2F"/>
</linearGradient>
<linearGradient id="paint32_linear_1_710" x1="303.875" y1="138.121" x2="426.129" y2="138.121" gradientUnits="userSpaceOnUse">
<stop stop-color="#FF8F1C"/>
<stop offset="1" stop-color="#509E2F"/>
</linearGradient>
<linearGradient id="paint33_linear_1_710" x1="303.874" y1="138.117" x2="426.128" y2="138.117" gradientUnits="userSpaceOnUse">
<stop stop-color="#FF8F1C"/>
<stop offset="1" stop-color="#509E2F"/>
</linearGradient>
<linearGradient id="paint34_linear_1_710" x1="303.874" y1="138.122" x2="426.128" y2="138.122" gradientUnits="userSpaceOnUse">
<stop stop-color="#FF8F1C"/>
<stop offset="1" stop-color="#509E2F"/>
</linearGradient>
<linearGradient id="paint35_linear_1_710" x1="303.875" y1="138.121" x2="426.129" y2="138.121" gradientUnits="userSpaceOnUse">
<stop stop-color="#FF8F1C"/>
<stop offset="1" stop-color="#509E2F"/>
</linearGradient>
<linearGradient id="paint36_linear_1_710" x1="303.875" y1="138.121" x2="426.129" y2="138.121" gradientUnits="userSpaceOnUse">
<stop stop-color="#FF8F1C"/>
<stop offset="1" stop-color="#509E2F"/>
</linearGradient>
<linearGradient id="paint37_linear_1_710" x1="303.876" y1="138.121" x2="426.129" y2="138.121" gradientUnits="userSpaceOnUse">
<stop stop-color="#FF8F1C"/>
<stop offset="1" stop-color="#509E2F"/>
</linearGradient>
<linearGradient id="paint38_linear_1_710" x1="303.875" y1="138.121" x2="426.128" y2="138.121" gradientUnits="userSpaceOnUse">
<stop stop-color="#FF8F1C"/>
<stop offset="1" stop-color="#509E2F"/>
</linearGradient>
<linearGradient id="paint39_linear_1_710" x1="303.875" y1="138.114" x2="426.129" y2="138.114" gradientUnits="userSpaceOnUse">
<stop stop-color="#FF8F1C"/>
<stop offset="1" stop-color="#509E2F"/>
</linearGradient>
<linearGradient id="paint40_linear_1_710" x1="303.874" y1="138.119" x2="426.128" y2="138.119" gradientUnits="userSpaceOnUse">
<stop stop-color="#FF8F1C"/>
<stop offset="1" stop-color="#509E2F"/>
</linearGradient>
<linearGradient id="paint41_linear_1_710" x1="303.875" y1="138.121" x2="426.129" y2="138.121" gradientUnits="userSpaceOnUse">
<stop stop-color="#FF8F1C"/>
<stop offset="1" stop-color="#509E2F"/>
</linearGradient>
<linearGradient id="paint42_linear_1_710" x1="303.875" y1="138.121" x2="426.129" y2="138.121" gradientUnits="userSpaceOnUse">
<stop stop-color="#FF8F1C"/>
<stop offset="1" stop-color="#509E2F"/>
</linearGradient>
<linearGradient id="paint43_linear_1_710" x1="303.875" y1="138.121" x2="426.129" y2="138.121" gradientUnits="userSpaceOnUse">
<stop stop-color="#FF8F1C"/>
<stop offset="1" stop-color="#509E2F"/>
</linearGradient>
<linearGradient id="paint44_linear_1_710" x1="303.875" y1="138.121" x2="426.129" y2="138.121" gradientUnits="userSpaceOnUse">
<stop stop-color="#FF8F1C"/>
<stop offset="1" stop-color="#509E2F"/>
</linearGradient>
<linearGradient id="paint45_linear_1_710" x1="303.874" y1="138.117" x2="426.128" y2="138.117" gradientUnits="userSpaceOnUse">
<stop stop-color="#FF8F1C"/>
<stop offset="1" stop-color="#509E2F"/>
</linearGradient>
<linearGradient id="paint46_linear_1_710" x1="303.874" y1="138.122" x2="426.128" y2="138.122" gradientUnits="userSpaceOnUse">
<stop stop-color="#FF8F1C"/>
<stop offset="1" stop-color="#509E2F"/>
</linearGradient>
<linearGradient id="paint47_linear_1_710" x1="303.875" y1="138.121" x2="426.129" y2="138.121" gradientUnits="userSpaceOnUse">
<stop stop-color="#FF8F1C"/>
<stop offset="1" stop-color="#509E2F"/>
</linearGradient>
<clipPath id="clip0_1_710">
<rect width="366" height="366" fill="white" transform="translate(182)"/>
</clipPath>
</defs>
</svg>
