<svg width="756" height="378" viewBox="0 0 756 378" fill="none" xmlns="http://www.w3.org/2000/svg">
<g clip-path="url(#clip0_1_2)">
<path d="M116.152 190.984L86.1839 172.923C85.2123 172.264 84.1223 171.818 82.9803 171.613C81.8382 171.408 80.6682 171.448 79.5414 171.73C78.4147 172.013 77.3548 172.532 76.4264 173.256C75.4981 173.98 74.7207 174.894 74.1417 175.942C73.5627 176.99 73.1942 178.15 73.0586 179.351C72.923 180.553 73.0233 181.77 73.3532 182.93C73.6832 184.09 74.2359 185.167 74.9777 186.097C75.7195 187.026 76.6349 187.788 77.6679 188.336L107.636 206.398C109.584 207.431 111.837 207.645 113.931 206.995C116.026 206.346 117.802 204.882 118.893 202.907C119.985 200.931 120.309 198.593 119.799 196.375C119.289 194.157 117.984 192.228 116.152 190.984Z" fill="#4286F5"/>
<path d="M176.769 173.242L146.801 155.193C145.83 154.602 144.757 154.218 143.644 154.061C142.53 153.905 141.399 153.979 140.313 154.281C139.227 154.582 138.209 155.104 137.317 155.817C136.425 156.53 135.677 157.42 135.115 158.436C134.553 159.451 134.189 160.573 134.043 161.736C133.898 162.899 133.973 164.08 134.266 165.212C134.559 166.345 135.064 167.405 135.75 168.334C136.437 169.262 137.292 170.04 138.267 170.622L168.236 188.686C170.195 189.856 172.518 190.168 174.698 189.553C176.877 188.939 178.734 187.448 179.863 185.407C180.992 183.367 181.3 180.942 180.72 178.665C180.14 176.387 178.719 174.442 176.769 173.256V173.242Z" fill="#159A56"/>
<path d="M166.743 190.353L152.885 181.986L138.228 190.852C137.262 191.43 136.414 192.202 135.734 193.123C135.053 194.044 134.554 195.097 134.264 196.22C133.973 197.344 133.898 198.516 134.042 199.67C134.187 200.824 134.548 201.936 135.104 202.945C135.661 203.952 136.402 204.835 137.286 205.543C138.169 206.25 139.178 206.768 140.254 207.067C141.33 207.366 142.451 207.44 143.555 207.285C144.658 207.13 145.721 206.748 146.683 206.162L170.554 191.755C169.211 191.542 167.918 191.066 166.743 190.353Z" fill="#F8BD09"/>
<path d="M87.2899 170.925L101.262 179.36L116.044 170.44C117.913 169.213 119.253 167.276 119.785 165.038C120.316 162.798 119.995 160.432 118.891 158.434C117.787 156.437 115.985 154.965 113.865 154.328C111.744 153.691 109.47 153.939 107.52 155.019L83.4523 169.543C84.8027 169.749 86.1043 170.218 87.2899 170.925Z" fill="#EA4235"/>
<path d="M210.508 165.516H222.206C222.251 165.806 222.296 166.119 222.34 166.454C222.385 166.767 222.407 167.102 222.407 167.46C222.407 168.89 222.184 170.309 221.737 171.717C221.29 173.125 220.53 174.376 219.458 175.471C218.363 176.611 217.078 177.493 215.603 178.119C214.128 178.745 212.441 179.057 210.542 179.057C208.821 179.057 207.189 178.745 205.647 178.119C204.128 177.493 202.798 176.622 201.659 175.504C200.519 174.387 199.614 173.069 198.944 171.549C198.296 170.007 197.972 168.331 197.972 166.521C197.972 164.711 198.296 163.046 198.944 161.527C199.614 159.985 200.519 158.655 201.659 157.538C202.798 156.421 204.128 155.549 205.647 154.924C207.189 154.298 208.821 153.985 210.542 153.985C212.374 153.985 214.061 154.309 215.603 154.957C217.167 155.605 218.474 156.51 219.525 157.672L216.876 160.32C216.094 159.449 215.167 158.778 214.095 158.309C213.044 157.84 211.849 157.605 210.508 157.605C209.368 157.605 208.273 157.817 207.223 158.242C206.173 158.667 205.245 159.27 204.441 160.052C203.637 160.812 203 161.739 202.53 162.834C202.061 163.929 201.827 165.158 201.827 166.521C201.827 167.884 202.061 169.113 202.53 170.208C203 171.303 203.637 172.242 204.441 173.024C205.245 173.784 206.173 174.376 207.223 174.8C208.273 175.225 209.38 175.437 210.542 175.437C212.083 175.437 213.324 175.203 214.262 174.733C215.223 174.264 216.028 173.717 216.676 173.091C217.145 172.644 217.558 172.063 217.915 171.348C218.273 170.611 218.508 169.806 218.62 168.935H210.508V165.516ZM233.093 161.56C234.344 161.56 235.495 161.784 236.545 162.231C237.595 162.655 238.5 163.259 239.26 164.041C240.02 164.823 240.612 165.75 241.037 166.823C241.461 167.895 241.673 169.057 241.673 170.309C241.673 171.56 241.461 172.722 241.037 173.795C240.612 174.867 240.02 175.795 239.26 176.577C238.5 177.359 237.595 177.974 236.545 178.421C235.495 178.845 234.344 179.057 233.093 179.057C231.841 179.057 230.69 178.845 229.64 178.421C228.59 177.974 227.685 177.359 226.925 176.577C226.165 175.795 225.573 174.867 225.149 173.795C224.724 172.722 224.512 171.56 224.512 170.309C224.512 169.057 224.724 167.895 225.149 166.823C225.573 165.75 226.165 164.823 226.925 164.041C227.685 163.259 228.59 162.655 229.64 162.231C230.69 161.784 231.841 161.56 233.093 161.56ZM233.093 175.605C233.718 175.605 234.322 175.482 234.903 175.236C235.484 174.99 235.998 174.644 236.444 174.197C236.914 173.75 237.283 173.203 237.551 172.555C237.819 171.884 237.953 171.136 237.953 170.309C237.953 169.482 237.819 168.745 237.551 168.097C237.283 167.426 236.914 166.868 236.444 166.421C235.998 165.974 235.484 165.627 234.903 165.382C234.322 165.136 233.718 165.013 233.093 165.013C232.467 165.013 231.863 165.136 231.283 165.382C230.701 165.627 230.176 165.974 229.707 166.421C229.26 166.868 228.903 167.426 228.634 168.097C228.366 168.745 228.232 169.482 228.232 170.309C228.232 171.136 228.366 171.884 228.634 172.555C228.903 173.203 229.26 173.75 229.707 174.197C230.176 174.644 230.701 174.99 231.283 175.236C231.863 175.482 232.467 175.605 233.093 175.605ZM252.143 161.56C253.395 161.56 254.546 161.784 255.596 162.231C256.646 162.655 257.551 163.259 258.311 164.041C259.071 164.823 259.663 165.75 260.088 166.823C260.512 167.895 260.725 169.057 260.725 170.309C260.725 171.56 260.512 172.722 260.088 173.795C259.663 174.867 259.071 175.795 258.311 176.577C257.551 177.359 256.646 177.974 255.596 178.421C254.546 178.845 253.395 179.057 252.143 179.057C250.892 179.057 249.742 178.845 248.691 178.421C247.641 177.974 246.736 177.359 245.976 176.577C245.216 175.795 244.624 174.867 244.199 173.795C243.775 172.722 243.563 171.56 243.563 170.309C243.563 169.057 243.775 167.895 244.199 166.823C244.624 165.75 245.216 164.823 245.976 164.041C246.736 163.259 247.641 162.655 248.691 162.231C249.742 161.784 250.892 161.56 252.143 161.56ZM252.143 175.605C252.769 175.605 253.373 175.482 253.954 175.236C254.535 174.99 255.048 174.644 255.496 174.197C255.965 173.75 256.333 173.203 256.601 172.555C256.87 171.884 257.004 171.136 257.004 170.309C257.004 169.482 256.87 168.745 256.601 168.097C256.333 167.426 255.965 166.868 255.496 166.421C255.048 165.974 254.535 165.627 253.954 165.382C253.373 165.136 252.769 165.013 252.143 165.013C251.518 165.013 250.915 165.136 250.333 165.382C249.753 165.627 249.228 165.974 248.758 166.421C248.311 166.868 247.954 167.426 247.685 168.097C247.417 168.745 247.283 169.482 247.283 170.309C247.283 171.136 247.417 171.884 247.685 172.555C247.954 173.203 248.311 173.75 248.758 174.197C249.228 174.644 249.753 174.99 250.333 175.236C250.915 175.482 251.518 175.605 252.143 175.605ZM270.993 186.298C269.854 186.298 268.837 186.141 267.943 185.828C267.071 185.538 266.312 185.158 265.664 184.689C265.016 184.219 264.479 183.694 264.055 183.113C263.653 182.532 263.351 181.974 263.15 181.437L266.703 179.996C267.016 180.867 267.552 181.571 268.312 182.108C269.072 182.666 269.965 182.946 270.993 182.946C272.535 182.946 273.731 182.476 274.58 181.538C275.451 180.599 275.887 179.303 275.887 177.65V176.309H275.686C275.172 177.046 274.457 177.661 273.541 178.152C272.647 178.644 271.597 178.89 270.39 178.89C269.385 178.89 268.412 178.677 267.474 178.253C266.535 177.828 265.698 177.236 264.96 176.476C264.245 175.717 263.675 174.8 263.251 173.728C262.826 172.655 262.614 171.482 262.614 170.208C262.614 168.935 262.826 167.773 263.251 166.722C263.675 165.65 264.245 164.733 264.96 163.974C265.698 163.214 266.535 162.622 267.474 162.197C268.412 161.773 269.385 161.56 270.39 161.56C271.597 161.56 272.647 161.806 273.541 162.298C274.457 162.789 275.172 163.404 275.686 164.141H275.887V162.097H279.474V177.583C279.474 178.99 279.25 180.231 278.803 181.303C278.379 182.398 277.786 183.314 277.027 184.052C276.29 184.789 275.396 185.348 274.345 185.728C273.317 186.108 272.2 186.298 270.993 186.298ZM271.127 175.437C271.731 175.437 272.323 175.326 272.904 175.102C273.485 174.879 273.988 174.543 274.412 174.097C274.859 173.65 275.217 173.102 275.485 172.454C275.753 171.806 275.887 171.057 275.887 170.208C275.887 169.382 275.753 168.644 275.485 167.996C275.217 167.326 274.859 166.778 274.412 166.354C273.988 165.907 273.485 165.571 272.904 165.348C272.323 165.102 271.731 164.979 271.127 164.979C270.502 164.979 269.899 165.102 269.317 165.348C268.759 165.571 268.256 165.907 267.809 166.354C267.362 166.801 267.005 167.348 266.737 167.996C266.468 168.644 266.334 169.382 266.334 170.208C266.334 171.035 266.468 171.773 266.737 172.421C267.005 173.069 267.362 173.616 267.809 174.063C268.256 174.51 268.759 174.856 269.317 175.102C269.899 175.326 270.502 175.437 271.127 175.437ZM283.225 178.521V154.521H286.946V178.521H283.225ZM305.742 174.599C305.05 175.873 304.066 176.935 302.793 177.784C301.519 178.633 299.955 179.057 298.1 179.057C296.871 179.057 295.731 178.845 294.681 178.421C293.653 177.974 292.759 177.359 292 176.577C291.24 175.795 290.647 174.879 290.223 173.828C289.799 172.756 289.586 171.583 289.586 170.309C289.586 169.125 289.788 168.007 290.19 166.957C290.592 165.884 291.15 164.957 291.866 164.175C292.603 163.37 293.485 162.734 294.513 162.264C295.542 161.795 296.681 161.56 297.932 161.56C299.206 161.56 300.335 161.773 301.318 162.197C302.324 162.622 303.172 163.214 303.865 163.974C304.558 164.733 305.083 165.65 305.441 166.722C305.821 167.795 306.011 168.968 306.011 170.242C306.011 170.354 306.011 170.454 306.011 170.544C305.988 170.655 305.977 170.756 305.977 170.845C305.955 170.935 305.944 171.024 305.944 171.113H293.307C293.374 171.895 293.564 172.577 293.876 173.158C294.189 173.739 294.569 174.219 295.016 174.599C295.485 174.979 295.999 175.259 296.558 175.437C297.117 175.616 297.664 175.705 298.2 175.705C299.273 175.705 300.156 175.449 300.849 174.935C301.542 174.421 302.111 173.784 302.558 173.024L305.742 174.599ZM302.29 168.264C302.245 167.929 302.133 167.56 301.955 167.158C301.799 166.733 301.542 166.354 301.184 166.018C300.849 165.661 300.402 165.359 299.843 165.113C299.307 164.868 298.648 164.745 297.866 164.745C296.793 164.745 295.865 165.069 295.083 165.717C294.324 166.342 293.81 167.192 293.541 168.264H302.29ZM316.724 154.521H324.434C326.333 154.521 328.031 154.823 329.528 155.426C331.048 156.007 332.333 156.823 333.383 157.873C334.456 158.924 335.271 160.186 335.83 161.661C336.411 163.136 336.702 164.756 336.702 166.521C336.702 168.287 336.411 169.907 335.83 171.381C335.271 172.856 334.456 174.119 333.383 175.169C332.333 176.219 331.048 177.046 329.528 177.65C328.031 178.231 326.333 178.521 324.434 178.521H316.724V154.521ZM324.367 174.901C327.07 174.901 329.16 174.164 330.635 172.689C332.11 171.214 332.847 169.158 332.847 166.521C332.847 163.907 332.11 161.862 330.635 160.387C329.16 158.89 327.07 158.141 324.367 158.141H320.512V174.901H324.367ZM354.548 174.599C353.856 175.873 352.872 176.935 351.599 177.784C350.325 178.633 348.761 179.057 346.906 179.057C345.677 179.057 344.537 178.845 343.487 178.421C342.459 177.974 341.565 177.359 340.805 176.577C340.045 175.795 339.454 174.879 339.029 173.828C338.604 172.756 338.392 171.583 338.392 170.309C338.392 169.125 338.593 168.007 338.995 166.957C339.397 165.884 339.956 164.957 340.671 164.175C341.409 163.37 342.291 162.734 343.319 162.264C344.347 161.795 345.487 161.56 346.738 161.56C348.012 161.56 349.141 161.773 350.124 162.197C351.129 162.622 351.979 163.214 352.671 163.974C353.364 164.733 353.889 165.65 354.247 166.722C354.627 167.795 354.816 168.968 354.816 170.242C354.816 170.354 354.816 170.454 354.816 170.544C354.794 170.655 354.783 170.756 354.783 170.845C354.761 170.935 354.75 171.024 354.75 171.113H342.113C342.18 171.895 342.37 172.577 342.682 173.158C342.996 173.739 343.375 174.219 343.822 174.599C344.292 174.979 344.805 175.259 345.364 175.437C345.922 175.616 346.47 175.705 347.006 175.705C348.079 175.705 348.962 175.449 349.655 174.935C350.347 174.421 350.917 173.784 351.364 173.024L354.548 174.599ZM351.096 168.264C351.051 167.929 350.94 167.56 350.76 167.158C350.604 166.733 350.347 166.354 349.99 166.018C349.655 165.661 349.207 165.359 348.649 165.113C348.113 164.868 347.453 164.745 346.671 164.745C345.599 164.745 344.671 165.069 343.889 165.717C343.13 166.342 342.616 167.192 342.347 168.264H351.096ZM355.558 162.097H359.748L364.173 173.694H364.341L368.865 162.097H372.955L366.083 178.521H362.363L355.558 162.097ZM389.704 174.599C389.012 175.873 388.028 176.935 386.754 177.784C385.481 178.633 383.917 179.057 382.062 179.057C380.833 179.057 379.693 178.845 378.643 178.421C377.615 177.974 376.721 177.359 375.961 176.577C375.202 175.795 374.609 174.879 374.185 173.828C373.76 172.756 373.548 171.583 373.548 170.309C373.548 169.125 373.749 168.007 374.152 166.957C374.554 165.884 375.112 164.957 375.827 164.175C376.564 163.37 377.447 162.734 378.475 162.264C379.503 161.795 380.643 161.56 381.894 161.56C383.168 161.56 384.296 161.773 385.28 162.197C386.285 162.622 387.134 163.214 387.827 163.974C388.52 164.733 389.045 165.65 389.403 166.722C389.782 167.795 389.972 168.968 389.972 170.242C389.972 170.354 389.972 170.454 389.972 170.544C389.95 170.655 389.939 170.756 389.939 170.845C389.917 170.935 389.905 171.024 389.905 171.113H377.269C377.335 171.895 377.526 172.577 377.838 173.158C378.151 173.739 378.531 174.219 378.978 174.599C379.447 174.979 379.961 175.259 380.52 175.437C381.079 175.616 381.626 175.705 382.162 175.705C383.235 175.705 384.117 175.449 384.81 174.935C385.503 174.421 386.073 173.784 386.52 173.024L389.704 174.599ZM386.252 168.264C386.207 167.929 386.095 167.56 385.917 167.158C385.76 166.733 385.503 166.354 385.146 166.018C384.81 165.661 384.363 165.359 383.805 165.113C383.269 164.868 382.609 164.745 381.827 164.745C380.754 164.745 379.827 165.069 379.045 165.717C378.285 166.342 377.771 167.192 377.503 168.264H386.252ZM392.785 178.521V154.521H396.505V178.521H392.785ZM407.726 161.56C408.978 161.56 410.129 161.784 411.179 162.231C412.229 162.655 413.134 163.259 413.894 164.041C414.654 164.823 415.246 165.75 415.671 166.823C416.095 167.895 416.308 169.057 416.308 170.309C416.308 171.56 416.095 172.722 415.671 173.795C415.246 174.867 414.654 175.795 413.894 176.577C413.134 177.359 412.229 177.974 411.179 178.421C410.129 178.845 408.978 179.057 407.726 179.057C406.475 179.057 405.325 178.845 404.274 178.421C403.224 177.974 402.319 177.359 401.559 176.577C400.799 175.795 400.207 174.867 399.782 173.795C399.358 172.722 399.146 171.56 399.146 170.309C399.146 169.057 399.358 167.895 399.782 166.823C400.207 165.75 400.799 164.823 401.559 164.041C402.319 163.259 403.224 162.655 404.274 162.231C405.325 161.784 406.475 161.56 407.726 161.56ZM407.726 175.605C408.352 175.605 408.956 175.482 409.537 175.236C410.118 174.99 410.631 174.644 411.079 174.197C411.548 173.75 411.916 173.203 412.184 172.555C412.453 171.884 412.587 171.136 412.587 170.309C412.587 169.482 412.453 168.745 412.184 168.097C411.916 167.426 411.548 166.868 411.079 166.421C410.631 165.974 410.118 165.627 409.537 165.382C408.956 165.136 408.352 165.013 407.726 165.013C407.101 165.013 406.498 165.136 405.916 165.382C405.336 165.627 404.811 165.974 404.341 166.421C403.894 166.868 403.537 167.426 403.268 168.097C403 168.745 402.866 169.482 402.866 170.309C402.866 171.136 403 171.884 403.268 172.555C403.537 173.203 403.894 173.75 404.341 174.197C404.811 174.644 405.336 174.99 405.916 175.236C406.498 175.482 407.101 175.605 407.726 175.605ZM418.837 162.097H422.357V164.208H422.558C423.005 163.493 423.686 162.879 424.602 162.365C425.519 161.829 426.614 161.56 427.888 161.56C428.938 161.56 429.932 161.784 430.871 162.231C431.832 162.655 432.67 163.259 433.385 164.041C434.1 164.823 434.67 165.75 435.094 166.823C435.519 167.873 435.731 169.035 435.731 170.309C435.731 171.583 435.519 172.756 435.094 173.828C434.67 174.879 434.1 175.795 433.385 176.577C432.67 177.359 431.832 177.974 430.871 178.421C429.932 178.845 428.938 179.057 427.888 179.057C426.614 179.057 425.519 178.8 424.602 178.286C423.686 177.75 423.005 177.124 422.558 176.409H422.357L422.558 178.689V185.761H418.837V162.097ZM427.184 175.605C427.81 175.605 428.413 175.482 428.994 175.236C429.597 174.99 430.111 174.644 430.536 174.197C430.982 173.728 431.34 173.169 431.608 172.521C431.876 171.873 432.01 171.136 432.01 170.309C432.01 169.482 431.876 168.745 431.608 168.097C431.34 167.449 430.982 166.901 430.536 166.454C430.111 165.985 429.597 165.627 428.994 165.382C428.413 165.136 427.81 165.013 427.184 165.013C426.536 165.013 425.921 165.136 425.34 165.382C424.759 165.627 424.245 165.974 423.798 166.421C423.374 166.868 423.027 167.426 422.759 168.097C422.491 168.745 422.357 169.482 422.357 170.309C422.357 171.136 422.491 171.884 422.759 172.555C423.027 173.203 423.374 173.75 423.798 174.197C424.245 174.644 424.759 174.99 425.34 175.236C425.921 175.482 426.536 175.605 427.184 175.605ZM453.764 174.599C453.071 175.873 452.088 176.935 450.814 177.784C449.541 178.633 447.976 179.057 446.122 179.057C444.892 179.057 443.753 178.845 442.703 178.421C441.675 177.974 440.781 177.359 440.021 176.577C439.261 175.795 438.669 174.879 438.244 173.828C437.82 172.756 437.608 171.583 437.608 170.309C437.608 169.125 437.809 168.007 438.211 166.957C438.613 165.884 439.172 164.957 439.887 164.175C440.624 163.37 441.507 162.734 442.535 162.264C443.563 161.795 444.703 161.56 445.954 161.56C447.228 161.56 448.356 161.773 449.339 162.197C450.345 162.622 451.194 163.214 451.887 163.974C452.579 164.733 453.105 165.65 453.462 166.722C453.842 167.795 454.032 168.968 454.032 170.242C454.032 170.354 454.032 170.454 454.032 170.544C454.01 170.655 453.999 170.756 453.999 170.845C453.976 170.935 453.965 171.024 453.965 171.113H441.328C441.395 171.895 441.585 172.577 441.898 173.158C442.211 173.739 442.591 174.219 443.038 174.599C443.507 174.979 444.021 175.259 444.58 175.437C445.138 175.616 445.686 175.705 446.222 175.705C447.295 175.705 448.177 175.449 448.87 174.935C449.563 174.421 450.133 173.784 450.58 173.024L453.764 174.599ZM450.312 168.264C450.267 167.929 450.155 167.56 449.976 167.158C449.82 166.733 449.563 166.354 449.205 166.018C448.87 165.661 448.423 165.359 447.865 165.113C447.328 164.868 446.669 164.745 445.887 164.745C444.814 164.745 443.887 165.069 443.105 165.717C442.345 166.342 441.831 167.192 441.563 168.264H450.312ZM456.844 162.097H460.364V164.577H460.565C460.766 164.153 461.034 163.761 461.37 163.404C461.727 163.024 462.118 162.711 462.543 162.465C462.989 162.197 463.448 161.996 463.917 161.862C464.408 161.706 464.878 161.627 465.325 161.627C465.861 161.627 466.319 161.672 466.699 161.761C467.079 161.851 467.425 161.974 467.738 162.13L466.665 165.583C466.42 165.471 466.14 165.393 465.828 165.348C465.537 165.281 465.18 165.247 464.755 165.247C464.151 165.247 463.593 165.37 463.079 165.616C462.587 165.862 462.152 166.197 461.772 166.622C461.392 167.046 461.09 167.549 460.867 168.13C460.665 168.711 460.565 169.326 460.565 169.974V178.521H456.844V162.097ZM483.701 179.057C482.739 179.057 481.801 178.912 480.885 178.622C479.991 178.353 479.153 177.94 478.371 177.381C477.611 176.823 476.941 176.13 476.36 175.303C475.779 174.476 475.332 173.516 475.019 172.421L478.639 170.946C478.795 171.571 479.019 172.164 479.309 172.722C479.622 173.259 479.991 173.728 480.416 174.13C480.863 174.532 481.354 174.856 481.891 175.102C482.449 175.326 483.064 175.437 483.734 175.437C484.293 175.437 484.829 175.37 485.343 175.236C485.857 175.08 486.304 174.856 486.684 174.566C487.064 174.275 487.366 173.918 487.589 173.493C487.834 173.069 487.957 172.577 487.957 172.018C487.957 171.527 487.868 171.08 487.689 170.678C487.511 170.275 487.231 169.907 486.852 169.571C486.472 169.236 485.969 168.923 485.343 168.633C484.717 168.32 483.969 168.007 483.097 167.694L481.589 167.158C480.941 166.935 480.27 166.644 479.578 166.287C478.907 165.907 478.292 165.46 477.734 164.946C477.198 164.409 476.751 163.784 476.394 163.069C476.058 162.354 475.891 161.516 475.891 160.555C475.891 159.661 476.069 158.823 476.427 158.041C476.807 157.236 477.332 156.532 478.002 155.929C478.672 155.326 479.466 154.856 480.382 154.521C481.321 154.164 482.348 153.985 483.466 153.985C484.628 153.985 485.645 154.153 486.516 154.488C487.41 154.801 488.159 155.203 488.762 155.694C489.365 156.186 489.846 156.734 490.203 157.337C490.583 157.918 490.862 158.465 491.041 158.979L487.622 160.421C487.511 160.086 487.343 159.75 487.12 159.415C486.918 159.058 486.65 158.745 486.315 158.477C485.98 158.208 485.578 157.985 485.108 157.806C484.661 157.627 484.136 157.538 483.533 157.538C482.996 157.538 482.494 157.616 482.025 157.773C481.555 157.907 481.142 158.108 480.784 158.376C480.449 158.644 480.181 158.957 479.98 159.315C479.779 159.672 479.678 160.063 479.678 160.488C479.678 161.337 480.025 162.03 480.718 162.566C481.432 163.08 482.471 163.572 483.835 164.041L485.343 164.577C486.281 164.89 487.142 165.259 487.924 165.683C488.706 166.108 489.387 166.622 489.969 167.225C490.549 167.806 490.997 168.488 491.309 169.27C491.645 170.052 491.812 170.957 491.812 171.985C491.812 173.236 491.555 174.309 491.041 175.203C490.55 176.074 489.913 176.8 489.13 177.381C488.348 177.962 487.477 178.387 486.516 178.655C485.555 178.923 484.617 179.057 483.701 179.057ZM495.97 165.382H493.088V162.097H495.97V157.069H499.692V162.097H503.747V165.382H499.692V172.689C499.692 173.091 499.736 173.46 499.826 173.795C499.915 174.13 500.049 174.409 500.228 174.633C500.608 175.057 501.088 175.27 501.669 175.27C502.027 175.27 502.306 175.247 502.507 175.203C502.708 175.136 502.92 175.046 503.144 174.935L504.284 178.219C503.814 178.398 503.323 178.532 502.809 178.622C502.295 178.733 501.713 178.789 501.065 178.789C500.283 178.789 499.591 178.666 498.987 178.421C498.384 178.175 497.859 177.84 497.412 177.415C496.451 176.454 495.97 175.147 495.97 173.493V165.382ZM518.258 176.309H518.058C517.566 177.091 516.862 177.75 515.946 178.286C515.052 178.8 514.035 179.057 512.896 179.057C510.817 179.057 509.264 178.443 508.236 177.214C507.208 175.962 506.695 174.309 506.695 172.253V162.097H510.415V171.75C510.415 173.18 510.739 174.186 511.387 174.767C512.058 175.326 512.929 175.605 514.002 175.605C514.627 175.605 515.186 175.471 515.678 175.203C516.191 174.935 516.628 174.577 516.985 174.13C517.342 173.661 517.61 173.136 517.789 172.555C517.968 171.951 518.058 171.326 518.058 170.678V162.097H521.778V178.521H518.258V176.309ZM537.792 176.409H537.59C537.144 177.124 536.462 177.75 535.546 178.286C534.629 178.8 533.534 179.057 532.261 179.057C531.21 179.057 530.205 178.845 529.244 178.421C528.306 177.974 527.479 177.359 526.764 176.577C526.049 175.795 525.479 174.879 525.054 173.828C524.63 172.756 524.417 171.583 524.417 170.309C524.417 169.035 524.63 167.873 525.054 166.823C525.479 165.75 526.049 164.823 526.764 164.041C527.479 163.259 528.306 162.655 529.244 162.231C530.205 161.784 531.21 161.56 532.261 161.56C533.534 161.56 534.629 161.829 535.546 162.365C536.462 162.879 537.144 163.493 537.59 164.208H537.792L537.59 161.929V154.521H541.311V178.521H537.792V176.409ZM532.965 175.605C533.59 175.605 534.194 175.482 534.775 175.236C535.378 174.99 535.892 174.644 536.316 174.197C536.764 173.75 537.121 173.203 537.389 172.555C537.657 171.884 537.792 171.136 537.792 170.309C537.792 169.482 537.657 168.745 537.389 168.097C537.121 167.426 536.764 166.868 536.316 166.421C535.892 165.974 535.378 165.627 534.775 165.382C534.194 165.136 533.59 165.013 532.965 165.013C532.317 165.013 531.702 165.136 531.121 165.382C530.54 165.627 530.026 165.985 529.579 166.454C529.155 166.901 528.809 167.449 528.54 168.097C528.272 168.745 528.138 169.482 528.138 170.309C528.138 171.136 528.272 171.873 528.54 172.521C528.809 173.169 529.155 173.728 529.579 174.197C530.026 174.644 530.54 174.99 531.121 175.236C531.702 175.482 532.317 175.605 532.965 175.605ZM560.116 174.599C559.423 175.873 558.44 176.935 557.166 177.784C555.892 178.633 554.328 179.057 552.473 179.057C551.244 179.057 550.104 178.845 549.054 178.421C548.026 177.974 547.132 177.359 546.373 176.577C545.613 175.795 545.021 174.879 544.596 173.828C544.172 172.756 543.959 171.583 543.959 170.309C543.959 169.125 544.16 168.007 544.563 166.957C544.965 165.884 545.523 164.957 546.239 164.175C546.976 163.37 547.859 162.734 548.887 162.264C549.915 161.795 551.054 161.56 552.305 161.56C553.58 161.56 554.708 161.773 555.691 162.197C556.697 162.622 557.546 163.214 558.238 163.974C558.931 164.733 559.457 165.65 559.814 166.722C560.194 167.795 560.384 168.968 560.384 170.242C560.384 170.354 560.384 170.454 560.384 170.544C560.362 170.655 560.35 170.756 560.35 170.845C560.328 170.935 560.316 171.024 560.316 171.113H547.68C547.747 171.895 547.937 172.577 548.25 173.158C548.562 173.739 548.942 174.219 549.39 174.599C549.858 174.979 550.372 175.259 550.931 175.437C551.49 175.616 552.038 175.705 552.574 175.705C553.646 175.705 554.529 175.449 555.222 174.935C555.915 174.421 556.484 173.784 556.931 173.024L560.116 174.599ZM556.663 168.264C556.618 167.929 556.506 167.56 556.328 167.158C556.172 166.733 555.915 166.354 555.557 166.018C555.222 165.661 554.775 165.359 554.216 165.113C553.68 164.868 553.021 164.745 552.238 164.745C551.166 164.745 550.238 165.069 549.456 165.717C548.696 166.342 548.183 167.192 547.914 168.264H556.663ZM566.716 164.309H566.916C567.408 163.527 568.101 162.879 568.995 162.365C569.911 161.829 570.939 161.56 572.079 161.56C574.157 161.56 575.71 162.186 576.738 163.437C577.765 164.666 578.279 166.309 578.279 168.365V178.521H574.559V168.868C574.559 167.437 574.224 166.443 573.553 165.884C572.905 165.303 572.045 165.013 570.972 165.013C570.324 165.013 569.755 165.147 569.263 165.415C568.771 165.683 568.346 166.052 567.989 166.521C567.632 166.968 567.364 167.493 567.184 168.097C567.006 168.678 566.916 169.292 566.916 169.94V178.521H563.196V162.097H566.716V164.309ZM582.846 165.382H579.963V162.097H582.846V157.069H586.567V162.097H590.622V165.382H586.567V172.689C586.567 173.091 586.611 173.46 586.701 173.795C586.79 174.13 586.924 174.409 587.103 174.633C587.483 175.057 587.963 175.27 588.544 175.27C588.902 175.27 589.181 175.247 589.382 175.203C589.583 175.136 589.795 175.046 590.019 174.935L591.159 178.219C590.689 178.398 590.198 178.532 589.684 178.622C589.17 178.733 588.588 178.789 587.94 178.789C587.158 178.789 586.466 178.666 585.862 178.421C585.259 178.175 584.734 177.84 584.287 177.415C583.326 176.454 582.846 175.147 582.846 173.493V165.382ZM621.866 174.733C620.727 176.074 619.352 177.136 617.744 177.918C616.135 178.677 614.325 179.057 612.313 179.057C610.526 179.057 608.872 178.745 607.352 178.119C605.833 177.471 604.503 176.588 603.364 175.471C602.246 174.331 601.364 173.002 600.716 171.482C600.09 169.963 599.777 168.309 599.777 166.521C599.777 164.756 600.09 163.113 600.716 161.594C601.364 160.052 602.246 158.722 603.364 157.605C604.503 156.465 605.833 155.583 607.352 154.957C608.872 154.309 610.526 153.985 612.313 153.985C614.168 153.985 615.833 154.331 617.308 155.024C618.783 155.694 620.079 156.655 621.196 157.907L618.515 160.521C617.71 159.56 616.805 158.834 615.799 158.342C614.816 157.851 613.654 157.605 612.313 157.605C611.129 157.605 610.001 157.817 608.928 158.242C607.878 158.644 606.961 159.236 606.179 160.018C605.397 160.778 604.772 161.717 604.302 162.834C603.855 163.929 603.632 165.158 603.632 166.521C603.632 167.884 603.855 169.125 604.302 170.242C604.772 171.337 605.397 172.275 606.179 173.057C606.961 173.817 607.878 174.409 608.928 174.834C610.001 175.236 611.129 175.437 612.313 175.437C613.743 175.437 615.017 175.147 616.135 174.566C617.252 173.962 618.247 173.136 619.118 172.085L621.866 174.733ZM624.637 178.521V154.521H628.36V178.521H624.637ZM643.532 176.309H643.328C642.837 177.091 642.131 177.75 641.216 178.286C640.322 178.8 639.307 179.057 638.166 179.057C636.087 179.057 634.537 178.443 633.505 177.214C632.48 175.962 631.967 174.309 631.967 172.253V162.097H635.689V171.75C635.689 173.18 636.009 174.186 636.66 174.767C637.328 175.326 638.199 175.605 639.274 175.605C639.898 175.605 640.46 175.471 640.951 175.203C641.464 174.935 641.9 174.577 642.258 174.13C642.617 173.661 642.881 173.136 643.063 172.555C643.24 171.951 643.328 171.326 643.328 170.678V162.097H647.051V178.521H643.532V176.309ZM650.79 154.521H654.513V161.929L654.309 164.208H654.513C654.96 163.493 655.638 162.879 656.559 162.365C657.475 161.829 658.567 161.56 659.841 161.56C660.894 161.56 661.887 161.784 662.824 162.231C663.784 162.655 664.622 163.259 665.339 164.041C666.056 164.823 666.624 165.75 667.049 166.823C667.474 167.873 667.683 169.035 667.683 170.309C667.683 171.583 667.474 172.756 667.049 173.828C666.624 174.879 666.056 175.795 665.339 176.577C664.622 177.359 663.784 177.974 662.824 178.421C661.887 178.845 660.894 179.057 659.841 179.057C658.567 179.057 657.475 178.8 656.559 178.286C655.638 177.75 654.96 177.124 654.513 176.409H654.309V178.521H650.79V154.521ZM659.14 175.605C659.763 175.605 660.365 175.482 660.949 175.236C661.55 174.99 662.063 174.644 662.488 174.197C662.935 173.728 663.293 173.169 663.563 172.521C663.828 171.873 663.966 171.136 663.966 170.309C663.966 169.482 663.828 168.745 663.563 168.097C663.293 167.449 662.935 166.901 662.488 166.454C662.063 165.985 661.55 165.627 660.949 165.382C660.365 165.136 659.763 165.013 659.14 165.013C658.489 165.013 657.877 165.136 657.293 165.382C656.713 165.627 656.201 165.974 655.754 166.421C655.329 166.868 654.982 167.426 654.711 168.097C654.447 168.745 654.309 169.482 654.309 170.309C654.309 171.136 654.447 171.884 654.711 172.555C654.982 173.203 655.329 173.75 655.754 174.197C656.201 174.644 656.713 174.99 657.293 175.236C657.877 175.482 658.489 175.605 659.14 175.605ZM676.568 179.057C675.564 179.057 674.654 178.923 673.855 178.655C673.05 178.387 672.344 178.041 671.742 177.616C671.136 177.169 670.623 176.666 670.198 176.108C669.796 175.549 669.487 174.968 669.261 174.365L672.614 172.957C672.994 173.918 673.54 174.633 674.257 175.102C674.969 175.549 675.741 175.773 676.568 175.773C677.506 175.773 678.245 175.583 678.78 175.203C679.315 174.823 679.585 174.398 679.585 173.929C679.585 173.46 679.381 173.057 678.978 172.722C678.581 172.365 677.82 172.052 676.701 171.784L674.357 171.214C673.844 171.102 673.314 170.935 672.779 170.711C672.266 170.465 671.787 170.164 671.34 169.806C670.893 169.426 670.524 168.979 670.231 168.465C669.967 167.929 669.829 167.303 669.829 166.588C669.829 165.784 670 165.069 670.331 164.443C670.689 163.817 671.169 163.292 671.776 162.868C672.377 162.443 673.072 162.119 673.855 161.896C674.654 161.672 675.504 161.56 676.403 161.56C677.136 161.56 677.842 161.639 678.51 161.795C679.205 161.951 679.839 162.186 680.423 162.499C681.002 162.812 681.515 163.214 681.962 163.706C682.431 164.175 682.8 164.734 683.071 165.382L679.784 166.756C679.475 166.041 678.978 165.527 678.311 165.214C677.638 164.879 676.96 164.711 676.265 164.711C675.951 164.711 675.631 164.756 675.294 164.845C674.98 164.912 674.693 165.024 674.423 165.18C674.175 165.315 673.965 165.493 673.783 165.717C673.629 165.94 673.551 166.186 673.551 166.454C673.551 166.901 673.739 167.259 674.12 167.527C674.522 167.773 675.129 167.996 675.928 168.197L678.443 168.834C680.142 169.259 681.383 169.907 682.166 170.778C682.971 171.627 683.374 172.633 683.374 173.795C683.374 174.51 683.203 175.18 682.867 175.806C682.558 176.432 682.1 176.99 681.493 177.482C680.892 177.974 680.164 178.353 679.315 178.622C678.488 178.912 677.572 179.057 676.568 179.057Z" fill="black"/>
<path d="M209.874 192.898H211.441V202.149C211.441 202.975 211.289 203.676 210.986 204.253C210.683 204.83 210.255 205.269 209.703 205.568C209.151 205.867 208.5 206.017 207.75 206.017C207.043 206.017 206.413 205.888 205.861 205.631C205.309 205.37 204.875 204.999 204.559 204.519C204.244 204.038 204.085 203.468 204.085 202.806H205.628C205.628 203.173 205.718 203.493 205.899 203.767C206.084 204.037 206.337 204.247 206.657 204.399C206.978 204.55 207.342 204.626 207.75 204.626C208.201 204.626 208.585 204.531 208.901 204.342C209.216 204.153 209.457 203.874 209.621 203.508C209.789 203.137 209.874 202.684 209.874 202.149V192.898ZM217.235 206.067C216.62 206.067 216.062 205.951 215.561 205.719C215.06 205.483 214.661 205.144 214.366 204.702C214.071 204.256 213.924 203.716 213.924 203.084C213.924 202.528 214.034 202.078 214.253 201.732C214.472 201.383 214.765 201.109 215.131 200.911C215.498 200.713 215.902 200.565 216.344 200.468C216.791 200.367 217.239 200.287 217.69 200.228C218.28 200.152 218.758 200.096 219.125 200.058C219.496 200.016 219.765 199.946 219.933 199.849C220.106 199.752 220.193 199.584 220.193 199.344V199.293C220.193 198.67 220.022 198.185 219.681 197.84C219.344 197.494 218.832 197.322 218.145 197.322C217.433 197.322 216.875 197.477 216.47 197.789C216.066 198.101 215.782 198.434 215.618 198.788L214.202 198.282C214.455 197.692 214.792 197.233 215.213 196.904C215.639 196.572 216.102 196.34 216.603 196.209C217.109 196.075 217.606 196.007 218.095 196.007C218.406 196.007 218.764 196.045 219.169 196.121C219.578 196.193 219.971 196.342 220.35 196.57C220.734 196.797 221.052 197.14 221.304 197.6C221.558 198.059 221.684 198.674 221.684 199.445V205.84H220.193V204.525H220.117C220.016 204.736 219.847 204.961 219.611 205.202C219.375 205.441 219.061 205.645 218.67 205.814C218.278 205.982 217.8 206.067 217.235 206.067ZM217.463 204.727C218.053 204.727 218.55 204.611 218.954 204.38C219.363 204.148 219.67 203.849 219.877 203.482C220.087 203.116 220.193 202.731 220.193 202.326V200.961C220.129 201.037 219.99 201.107 219.776 201.17C219.565 201.229 219.321 201.281 219.043 201.328C218.769 201.37 218.501 201.408 218.24 201.441C217.983 201.471 217.774 201.496 217.614 201.517C217.227 201.568 216.865 201.65 216.528 201.764C216.195 201.873 215.925 202.04 215.719 202.263C215.516 202.482 215.415 202.781 215.415 203.16C215.415 203.678 215.607 204.07 215.991 204.336C216.378 204.597 216.869 204.727 217.463 204.727ZM224.406 205.84V196.134H225.897V205.84H224.406ZM225.164 194.516C224.873 194.516 224.622 194.417 224.412 194.219C224.205 194.021 224.102 193.783 224.102 193.505C224.102 193.227 224.205 192.989 224.412 192.791C224.622 192.593 224.873 192.494 225.164 192.494C225.455 192.494 225.703 192.593 225.91 192.791C226.12 192.989 226.226 193.227 226.226 193.505C226.226 193.783 226.12 194.021 225.91 194.219C225.703 194.417 225.455 194.516 225.164 194.516ZM228.628 209.479V196.134H230.069V197.675H230.246C230.356 197.507 230.507 197.292 230.701 197.031C230.899 196.765 231.181 196.53 231.548 196.323C231.919 196.113 232.42 196.007 233.051 196.007C233.869 196.007 234.589 196.212 235.213 196.62C235.836 197.029 236.323 197.608 236.672 198.358C237.022 199.108 237.197 199.992 237.197 201.012C237.197 202.04 237.022 202.931 236.672 203.685C236.323 204.434 235.838 205.016 235.219 205.429C234.599 205.837 233.886 206.041 233.077 206.041C232.453 206.041 231.954 205.938 231.579 205.732C231.204 205.521 230.916 205.283 230.713 205.018C230.512 204.748 230.356 204.525 230.246 204.348H230.119V209.479H228.628ZM230.094 200.987C230.094 201.72 230.202 202.366 230.417 202.926C230.631 203.482 230.945 203.919 231.358 204.235C231.771 204.546 232.276 204.702 232.875 204.702C233.498 204.702 234.018 204.538 234.436 204.209C234.856 203.876 235.172 203.43 235.383 202.87C235.598 202.305 235.706 201.677 235.706 200.987C235.706 200.304 235.6 199.689 235.39 199.141C235.183 198.59 234.869 198.154 234.448 197.833C234.031 197.509 233.506 197.347 232.875 197.347C232.268 197.347 231.759 197.501 231.345 197.808C230.932 198.111 230.621 198.537 230.41 199.084C230.199 199.628 230.094 200.262 230.094 200.987ZM245.589 201.871V196.134H247.08V205.84H245.589V204.197H245.487C245.26 204.689 244.906 205.108 244.426 205.454C243.946 205.796 243.339 205.966 242.606 205.966C241.999 205.966 241.46 205.833 240.988 205.568C240.516 205.298 240.146 204.894 239.876 204.354C239.607 203.811 239.472 203.127 239.472 202.301V196.134H240.963V202.2C240.963 202.908 241.161 203.472 241.557 203.893C241.957 204.315 242.467 204.525 243.086 204.525C243.457 204.525 243.834 204.43 244.217 204.241C244.605 204.051 244.929 203.76 245.19 203.369C245.456 202.977 245.589 202.478 245.589 201.871ZM249.811 205.84V196.134H251.252V197.6H251.353C251.53 197.119 251.85 196.73 252.313 196.431C252.776 196.131 253.299 195.982 253.881 195.982C253.99 195.982 254.127 195.984 254.291 195.988C254.455 195.992 254.58 195.999 254.664 196.007V197.524C254.614 197.511 254.498 197.492 254.316 197.467C254.139 197.437 253.952 197.423 253.754 197.423C253.282 197.423 252.861 197.522 252.49 197.72C252.124 197.913 251.833 198.183 251.618 198.528C251.408 198.87 251.302 199.259 251.302 199.697V205.84H249.811ZM261.638 205.84V192.898H269.449V194.288H263.206V198.661H269.044V200.051H263.206V204.449H269.55V205.84H261.638ZM273.562 200.001V205.84H272.071V196.134H273.512V197.65H273.638C273.866 197.157 274.211 196.761 274.675 196.462C275.138 196.159 275.736 196.007 276.469 196.007C277.126 196.007 277.701 196.142 278.194 196.412C278.687 196.677 279.07 197.081 279.344 197.625C279.618 198.164 279.755 198.847 279.755 199.672V205.84H278.264V199.773C278.264 199.011 278.066 198.417 277.67 197.991C277.274 197.562 276.73 197.347 276.04 197.347C275.563 197.347 275.138 197.45 274.763 197.656C274.392 197.863 274.099 198.164 273.885 198.56C273.67 198.956 273.562 199.436 273.562 200.001ZM286.398 209.682C285.677 209.682 285.058 209.589 284.54 209.404C284.022 209.222 283.59 208.982 283.245 208.683C282.903 208.388 282.631 208.072 282.43 207.735L283.618 206.901C283.752 207.078 283.923 207.28 284.129 207.507C284.336 207.74 284.618 207.939 284.976 208.108C285.338 208.281 285.812 208.367 286.398 208.367C287.181 208.367 287.828 208.178 288.337 207.798C288.848 207.419 289.102 206.825 289.102 206.017V204.045H288.976C288.866 204.222 288.71 204.441 288.508 204.702C288.31 204.959 288.024 205.189 287.649 205.391C287.278 205.589 286.777 205.688 286.145 205.688C285.361 205.688 284.658 205.503 284.035 205.131C283.415 204.761 282.924 204.222 282.562 203.514C282.204 202.806 282.025 201.947 282.025 200.936C282.025 199.942 282.2 199.076 282.549 198.339C282.899 197.597 283.386 197.025 284.009 196.62C284.633 196.212 285.353 196.007 286.171 196.007C286.802 196.007 287.303 196.113 287.674 196.323C288.049 196.53 288.336 196.765 288.534 197.031C288.736 197.292 288.892 197.507 289.001 197.675H289.153V196.134H290.594V206.118C290.594 206.951 290.404 207.63 290.025 208.152C289.65 208.679 289.144 209.064 288.508 209.309C287.876 209.557 287.173 209.682 286.398 209.682ZM286.347 204.348C286.945 204.348 287.451 204.212 287.864 203.937C288.277 203.664 288.591 203.27 288.805 202.756C289.02 202.242 289.128 201.627 289.128 200.911C289.128 200.211 289.022 199.594 288.812 199.059C288.601 198.524 288.289 198.105 287.876 197.802C287.463 197.498 286.954 197.347 286.347 197.347C285.716 197.347 285.189 197.507 284.767 197.827C284.351 198.147 284.037 198.577 283.826 199.116C283.62 199.655 283.516 200.253 283.516 200.911C283.516 201.585 283.621 202.181 283.832 202.699C284.047 203.213 284.363 203.618 284.78 203.912C285.202 204.203 285.724 204.348 286.347 204.348ZM293.323 205.84V196.134H294.815V205.84H293.323ZM294.082 194.516C293.791 194.516 293.541 194.417 293.33 194.219C293.123 194.021 293.02 193.783 293.02 193.505C293.02 193.227 293.123 192.989 293.33 192.791C293.541 192.593 293.791 192.494 294.082 192.494C294.372 192.494 294.621 192.593 294.827 192.791C295.038 192.989 295.143 193.227 295.143 193.505C295.143 193.783 295.038 194.021 294.827 194.219C294.621 194.417 294.372 194.516 294.082 194.516ZM299.037 200.001V205.84H297.546V196.134H298.987V197.65H299.113C299.34 197.157 299.686 196.761 300.149 196.462C300.613 196.159 301.211 196.007 301.944 196.007C302.601 196.007 303.176 196.142 303.669 196.412C304.162 196.677 304.545 197.081 304.819 197.625C305.093 198.164 305.23 198.847 305.23 199.672V205.84H303.739V199.773C303.739 199.011 303.541 198.417 303.145 197.991C302.749 197.562 302.205 197.347 301.514 197.347C301.038 197.347 300.613 197.45 300.238 197.656C299.867 197.863 299.574 198.164 299.36 198.56C299.145 198.956 299.037 199.436 299.037 200.001ZM312.024 206.041C311.089 206.041 310.282 205.835 309.604 205.423C308.93 205.005 308.41 204.424 308.043 203.678C307.681 202.929 307.5 202.057 307.5 201.062C307.5 200.068 307.681 199.192 308.043 198.434C308.41 197.671 308.92 197.077 309.573 196.652C310.23 196.222 310.996 196.007 311.873 196.007C312.378 196.007 312.877 196.091 313.37 196.26C313.863 196.428 314.312 196.702 314.716 197.081C315.12 197.456 315.443 197.953 315.683 198.573C315.923 199.192 316.043 199.954 316.043 200.86V201.492H308.561V200.203H314.526C314.526 199.655 314.417 199.167 314.198 198.737C313.983 198.307 313.675 197.968 313.276 197.72C312.88 197.471 312.412 197.347 311.873 197.347C311.279 197.347 310.765 197.494 310.331 197.789C309.901 198.08 309.57 198.459 309.339 198.927C309.107 199.394 308.991 199.895 308.991 200.43V201.29C308.991 202.023 309.118 202.644 309.37 203.154C309.627 203.659 309.983 204.045 310.438 204.31C310.893 204.572 311.422 204.702 312.024 204.702C312.416 204.702 312.77 204.647 313.086 204.538C313.406 204.424 313.682 204.256 313.914 204.032C314.145 203.805 314.325 203.523 314.451 203.186L315.891 203.59C315.74 204.079 315.485 204.508 315.127 204.879C314.769 205.246 314.326 205.532 313.8 205.738C313.273 205.941 312.682 206.041 312.024 206.041ZM322.381 206.041C321.446 206.041 320.639 205.835 319.961 205.423C319.287 205.005 318.767 204.424 318.4 203.678C318.038 202.929 317.857 202.057 317.857 201.062C317.857 200.068 318.038 199.192 318.4 198.434C318.767 197.671 319.276 197.077 319.929 196.652C320.587 196.222 321.353 196.007 322.23 196.007C322.735 196.007 323.234 196.091 323.727 196.26C324.22 196.428 324.668 196.702 325.073 197.081C325.477 197.456 325.8 197.953 326.039 198.573C326.28 199.192 326.4 199.954 326.4 200.86V201.492H318.918V200.203H324.883C324.883 199.655 324.774 199.167 324.555 198.737C324.34 198.307 324.032 197.968 323.632 197.72C323.236 197.471 322.768 197.347 322.23 197.347C321.636 197.347 321.122 197.494 320.687 197.789C320.258 198.08 319.927 198.459 319.695 198.927C319.464 199.394 319.348 199.895 319.348 200.43V201.29C319.348 202.023 319.474 202.644 319.727 203.154C319.984 203.659 320.34 204.045 320.795 204.31C321.25 204.572 321.778 204.702 322.381 204.702C322.773 204.702 323.127 204.647 323.442 204.538C323.763 204.424 324.039 204.256 324.27 204.032C324.502 203.805 324.681 203.523 324.807 203.186L326.248 203.59C326.097 204.079 325.841 204.508 325.484 204.879C325.126 205.246 324.683 205.532 324.157 205.738C323.63 205.941 323.038 206.041 322.381 206.041ZM328.669 205.84V196.134H330.109V197.6H330.21C330.387 197.119 330.708 196.73 331.171 196.431C331.634 196.131 332.156 195.982 332.738 195.982C332.847 195.982 332.984 195.984 333.149 195.988C333.313 195.992 333.437 195.999 333.521 196.007V197.524C333.471 197.511 333.355 197.492 333.174 197.467C332.997 197.437 332.809 197.423 332.611 197.423C332.14 197.423 331.718 197.522 331.348 197.72C330.981 197.913 330.69 198.183 330.475 198.528C330.265 198.87 330.16 199.259 330.16 199.697V205.84H328.669ZM335.289 205.84V196.134H336.78V205.84H335.289ZM336.047 194.516C335.757 194.516 335.506 194.417 335.296 194.219C335.089 194.021 334.986 193.783 334.986 193.505C334.986 193.227 335.089 192.989 335.296 192.791C335.506 192.593 335.757 192.494 336.047 192.494C336.338 192.494 336.587 192.593 336.793 192.791C337.004 192.989 337.109 193.227 337.109 193.505C337.109 193.783 337.004 194.021 336.793 194.219C336.587 194.417 336.338 194.516 336.047 194.516ZM341.003 200.001V205.84H339.511V196.134H340.953V197.65H341.079C341.306 197.157 341.652 196.761 342.115 196.462C342.578 196.159 343.177 196.007 343.91 196.007C344.567 196.007 345.142 196.142 345.635 196.412C346.128 196.677 346.511 197.081 346.785 197.625C347.058 198.164 347.196 198.847 347.196 199.672V205.84H345.705V199.773C345.705 199.011 345.506 198.417 345.111 197.991C344.715 197.562 344.171 197.347 343.48 197.347C343.004 197.347 342.578 197.45 342.203 197.656C341.833 197.863 341.54 198.164 341.325 198.56C341.11 198.956 341.003 199.436 341.003 200.001ZM353.838 209.682C353.118 209.682 352.499 209.589 351.981 209.404C351.462 209.222 351.031 208.982 350.685 208.683C350.344 208.388 350.072 208.072 349.87 207.735L351.058 206.901C351.193 207.078 351.364 207.28 351.57 207.507C351.776 207.74 352.059 207.939 352.417 208.108C352.779 208.281 353.253 208.367 353.838 208.367C354.622 208.367 355.268 208.178 355.778 207.798C356.288 207.419 356.543 206.825 356.543 206.017V204.045H356.417C356.307 204.222 356.151 204.441 355.949 204.702C355.751 204.959 355.464 205.189 355.09 205.391C354.719 205.589 354.217 205.688 353.586 205.688C352.802 205.688 352.098 205.503 351.475 205.131C350.856 204.761 350.365 204.222 350.003 203.514C349.645 202.806 349.466 201.947 349.466 200.936C349.466 199.942 349.641 199.076 349.99 198.339C350.339 197.597 350.826 197.025 351.45 196.62C352.073 196.212 352.794 196.007 353.611 196.007C354.243 196.007 354.744 196.113 355.115 196.323C355.49 196.53 355.776 196.765 355.974 197.031C356.176 197.292 356.332 197.507 356.442 197.675H356.593V196.134H358.034V206.118C358.034 206.951 357.845 207.63 357.466 208.152C357.091 208.679 356.585 209.064 355.949 209.309C355.317 209.557 354.613 209.682 353.838 209.682ZM353.788 204.348C354.386 204.348 354.892 204.212 355.304 203.937C355.717 203.664 356.031 203.27 356.246 202.756C356.461 202.242 356.568 201.627 356.568 200.911C356.568 200.211 356.463 199.594 356.252 199.059C356.042 198.524 355.73 198.105 355.317 197.802C354.904 197.498 354.394 197.347 353.788 197.347C353.156 197.347 352.629 197.507 352.208 197.827C351.791 198.147 351.477 198.577 351.267 199.116C351.06 199.655 350.957 200.253 350.957 200.911C350.957 201.585 351.062 202.181 351.273 202.699C351.488 203.213 351.804 203.618 352.221 203.912C352.642 204.203 353.164 204.348 353.788 204.348ZM376.384 196.942H374.817C374.724 196.492 374.562 196.096 374.331 195.754C374.103 195.413 373.825 195.127 373.497 194.895C373.172 194.659 372.812 194.482 372.416 194.364C372.02 194.246 371.607 194.187 371.178 194.187C370.394 194.187 369.684 194.385 369.048 194.781C368.416 195.177 367.913 195.761 367.538 196.532C367.167 197.303 366.982 198.248 366.982 199.369C366.982 200.489 367.167 201.435 367.538 202.206C367.913 202.977 368.416 203.56 369.048 203.956C369.684 204.352 370.394 204.55 371.178 204.55C371.607 204.55 372.02 204.491 372.416 204.374C372.812 204.256 373.172 204.081 373.497 203.849C373.825 203.613 374.103 203.325 374.331 202.983C374.562 202.638 374.724 202.242 374.817 201.795H376.384C376.266 202.457 376.051 203.048 375.74 203.571C375.428 204.094 375.04 204.538 374.577 204.904C374.114 205.267 373.593 205.542 373.016 205.732C372.443 205.922 371.831 206.017 371.178 206.017C370.074 206.017 369.092 205.747 368.233 205.208C367.374 204.668 366.698 203.902 366.205 202.908C365.711 201.913 365.465 200.734 365.465 199.369C365.465 198.004 365.711 196.824 366.205 195.83C366.698 194.836 367.374 194.069 368.233 193.53C369.092 192.991 370.074 192.721 371.178 192.721C371.831 192.721 372.443 192.816 373.016 193.006C373.593 193.195 374.114 193.473 374.577 193.84C375.04 194.202 375.428 194.644 375.74 195.167C376.051 195.685 376.266 196.277 376.384 196.942ZM382.658 206.041C381.781 206.041 381.012 205.833 380.351 205.416C379.694 204.999 379.18 204.416 378.809 203.666C378.443 202.916 378.26 202.04 378.26 201.037C378.26 200.026 378.443 199.143 378.809 198.389C379.18 197.635 379.694 197.05 380.351 196.633C381.012 196.216 381.781 196.007 382.658 196.007C383.534 196.007 384.3 196.216 384.957 196.633C385.619 197.05 386.133 197.635 386.499 198.389C386.87 199.143 387.055 200.026 387.055 201.037C387.055 202.04 386.87 202.916 386.499 203.666C386.133 204.416 385.619 204.999 384.957 205.416C384.3 205.833 383.534 206.041 382.658 206.041ZM382.658 204.702C383.323 204.702 383.871 204.531 384.3 204.19C384.73 203.849 385.048 203.4 385.255 202.844C385.461 202.288 385.564 201.686 385.564 201.037C385.564 200.388 385.461 199.784 385.255 199.224C385.048 198.663 384.73 198.21 384.3 197.865C383.871 197.519 383.323 197.347 382.658 197.347C381.992 197.347 381.444 197.519 381.015 197.865C380.585 198.21 380.267 198.663 380.06 199.224C379.854 199.784 379.751 200.388 379.751 201.037C379.751 201.686 379.854 202.288 380.06 202.844C380.267 203.4 380.585 203.849 381.015 204.19C381.444 204.531 381.992 204.702 382.658 204.702ZM390.823 192.898V205.84H389.332V192.898H390.823ZM395.046 192.898V205.84H393.554V192.898H395.046ZM401.847 206.041C400.911 206.041 400.105 205.835 399.427 205.423C398.753 205.005 398.232 204.424 397.866 203.678C397.503 202.929 397.322 202.057 397.322 201.062C397.322 200.068 397.503 199.192 397.866 198.434C398.232 197.671 398.742 197.077 399.395 196.652C400.052 196.222 400.819 196.007 401.695 196.007C402.201 196.007 402.7 196.091 403.192 196.26C403.685 196.428 404.134 196.702 404.539 197.081C404.943 197.456 405.265 197.953 405.505 198.573C405.745 199.192 405.866 199.954 405.866 200.86V201.492H398.384V200.203H404.349C404.349 199.655 404.239 199.167 404.02 198.737C403.806 198.307 403.498 197.968 403.098 197.72C402.702 197.471 402.234 197.347 401.695 197.347C401.101 197.347 400.587 197.494 400.153 197.789C399.723 198.08 399.393 198.459 399.161 198.927C398.929 199.394 398.813 199.895 398.813 200.43V201.29C398.813 202.023 398.94 202.644 399.193 203.154C399.45 203.659 399.805 204.045 400.26 204.31C400.715 204.572 401.244 204.702 401.847 204.702C402.238 204.702 402.592 204.647 402.908 204.538C403.228 204.424 403.504 204.256 403.736 204.032C403.968 203.805 404.146 203.523 404.273 203.186L405.714 203.59C405.562 204.079 405.307 204.508 404.949 204.879C404.591 205.246 404.149 205.532 403.622 205.738C403.096 205.941 402.504 206.041 401.847 206.041ZM412.052 209.682C411.331 209.682 410.712 209.589 410.194 209.404C409.676 209.222 409.244 208.982 408.898 208.683C408.557 208.388 408.286 208.072 408.083 207.735L409.271 206.901C409.406 207.078 409.577 207.28 409.783 207.507C409.99 207.74 410.272 207.939 410.63 208.108C410.992 208.281 411.466 208.367 412.052 208.367C412.835 208.367 413.482 208.178 413.992 207.798C414.501 207.419 414.756 206.825 414.756 206.017V204.045H414.63C414.521 204.222 414.364 204.441 414.162 204.702C413.964 204.959 413.678 205.189 413.303 205.391C412.932 205.589 412.431 205.688 411.799 205.688C411.016 205.688 410.312 205.503 409.688 205.131C409.069 204.761 408.578 204.222 408.216 203.514C407.858 202.806 407.679 201.947 407.679 200.936C407.679 199.942 407.854 199.076 408.203 198.339C408.553 197.597 409.04 197.025 409.663 196.62C410.287 196.212 411.007 196.007 411.824 196.007C412.456 196.007 412.958 196.113 413.328 196.323C413.703 196.53 413.989 196.765 414.187 197.031C414.39 197.292 414.545 197.507 414.655 197.675H414.807V196.134H416.247V206.118C416.247 206.951 416.058 207.63 415.679 208.152C415.304 208.679 414.799 209.064 414.162 209.309C413.531 209.557 412.827 209.682 412.052 209.682ZM412.001 204.348C412.599 204.348 413.105 204.212 413.518 203.937C413.93 203.664 414.244 203.27 414.459 202.756C414.674 202.242 414.781 201.627 414.781 200.911C414.781 200.211 414.676 199.594 414.465 199.059C414.255 198.524 413.943 198.105 413.531 197.802C413.117 197.498 412.608 197.347 412.001 197.347C411.369 197.347 410.842 197.507 410.422 197.827C410.004 198.147 409.69 198.577 409.48 199.116C409.273 199.655 409.17 200.253 409.17 200.911C409.17 201.585 409.276 202.181 409.486 202.699C409.701 203.213 410.017 203.618 410.434 203.912C410.855 204.203 411.377 204.348 412.001 204.348ZM423.047 206.041C422.112 206.041 421.305 205.835 420.626 205.423C419.952 205.005 419.432 204.424 419.066 203.678C418.703 202.929 418.522 202.057 418.522 201.062C418.522 200.068 418.703 199.192 419.066 198.434C419.432 197.671 419.942 197.077 420.595 196.652C421.252 196.222 422.019 196.007 422.895 196.007C423.401 196.007 423.9 196.091 424.393 196.26C424.885 196.428 425.334 196.702 425.738 197.081C426.143 197.456 426.465 197.953 426.705 198.573C426.945 199.192 427.065 199.954 427.065 200.86V201.492H419.584V200.203H425.549C425.549 199.655 425.44 199.167 425.221 198.737C425.006 198.307 424.698 197.968 424.298 197.72C423.902 197.471 423.434 197.347 422.895 197.347C422.301 197.347 421.787 197.494 421.353 197.789C420.924 198.08 420.593 198.459 420.361 198.927C420.129 199.394 420.014 199.895 420.014 200.43V201.29C420.014 202.023 420.14 202.644 420.393 203.154C420.65 203.659 421.006 204.045 421.46 204.31C421.915 204.572 422.444 204.702 423.047 204.702C423.439 204.702 423.792 204.647 424.108 204.538C424.429 204.424 424.704 204.256 424.936 204.032C425.168 203.805 425.347 203.523 425.473 203.186L426.914 203.59C426.762 204.079 426.507 204.508 426.149 204.879C425.791 205.246 425.349 205.532 424.822 205.738C424.296 205.941 423.704 206.041 423.047 206.041ZM437.195 206.067C436.58 206.067 436.022 205.951 435.52 205.719C435.019 205.483 434.621 205.144 434.326 204.702C434.031 204.256 433.884 203.716 433.884 203.084C433.884 202.528 433.993 202.078 434.212 201.732C434.432 201.383 434.724 201.109 435.091 200.911C435.457 200.713 435.862 200.565 436.304 200.468C436.75 200.367 437.199 200.287 437.65 200.228C438.239 200.152 438.717 200.096 439.084 200.058C439.455 200.016 439.724 199.946 439.893 199.849C440.066 199.752 440.152 199.584 440.152 199.344V199.293C440.152 198.67 439.982 198.185 439.64 197.84C439.303 197.494 438.791 197.322 438.105 197.322C437.393 197.322 436.835 197.477 436.43 197.789C436.026 198.101 435.741 198.434 435.577 198.788L434.162 198.282C434.414 197.692 434.751 197.233 435.173 196.904C435.598 196.572 436.061 196.34 436.563 196.209C437.068 196.075 437.565 196.007 438.054 196.007C438.366 196.007 438.724 196.045 439.128 196.121C439.537 196.193 439.931 196.342 440.31 196.57C440.694 196.797 441.011 197.14 441.264 197.6C441.517 198.059 441.643 198.674 441.643 199.445V205.84H440.152V204.525H440.076C439.975 204.736 439.807 204.961 439.571 205.202C439.335 205.441 439.021 205.645 438.629 205.814C438.238 205.982 437.759 206.067 437.195 206.067ZM437.422 204.727C438.012 204.727 438.509 204.611 438.914 204.38C439.322 204.148 439.63 203.849 439.836 203.482C440.047 203.116 440.152 202.731 440.152 202.326V200.961C440.089 201.037 439.95 201.107 439.735 201.17C439.524 201.229 439.28 201.281 439.002 201.328C438.728 201.37 438.46 201.408 438.2 201.441C437.943 201.471 437.734 201.496 437.574 201.517C437.186 201.568 436.824 201.65 436.487 201.764C436.155 201.873 435.885 202.04 435.678 202.263C435.476 202.482 435.375 202.781 435.375 203.16C435.375 203.678 435.567 204.07 435.95 204.336C436.338 204.597 436.828 204.727 437.422 204.727ZM445.856 200.001V205.84H444.365V196.134H445.806V197.65H445.932C446.16 197.157 446.505 196.761 446.969 196.462C447.432 196.159 448.03 196.007 448.763 196.007C449.42 196.007 449.995 196.142 450.489 196.412C450.981 196.677 451.364 197.081 451.638 197.625C451.912 198.164 452.049 198.847 452.049 199.672V205.84H450.558V199.773C450.558 199.011 450.36 198.417 449.964 197.991C449.568 197.562 449.024 197.347 448.334 197.347C447.857 197.347 447.432 197.45 447.057 197.656C446.686 197.863 446.393 198.164 446.179 198.56C445.964 198.956 445.856 199.436 445.856 200.001ZM458.439 206.041C457.63 206.041 456.916 205.837 456.297 205.429C455.678 205.016 455.193 204.434 454.843 203.685C454.494 202.931 454.319 202.04 454.319 201.012C454.319 199.992 454.494 199.108 454.843 198.358C455.193 197.608 455.68 197.029 456.303 196.62C456.927 196.212 457.647 196.007 458.464 196.007C459.096 196.007 459.595 196.113 459.962 196.323C460.333 196.53 460.615 196.765 460.809 197.031C461.007 197.292 461.16 197.507 461.27 197.675H461.397V192.898H462.888V205.84H461.447V204.348H461.27C461.16 204.525 461.004 204.748 460.803 205.018C460.6 205.283 460.312 205.521 459.937 205.732C459.562 205.938 459.063 206.041 458.439 206.041ZM458.641 204.702C459.24 204.702 459.745 204.546 460.158 204.235C460.571 203.919 460.885 203.482 461.099 202.926C461.314 202.366 461.422 201.72 461.422 200.987C461.422 200.262 461.317 199.628 461.106 199.084C460.895 198.537 460.584 198.111 460.171 197.808C459.757 197.501 459.248 197.347 458.641 197.347C458.01 197.347 457.483 197.509 457.062 197.833C456.645 198.154 456.331 198.59 456.12 199.141C455.914 199.689 455.81 200.304 455.81 200.987C455.81 201.677 455.916 202.305 456.126 202.87C456.341 203.43 456.657 203.876 457.074 204.209C457.496 204.538 458.018 204.702 458.641 204.702ZM471.033 205.84V192.898H475.406C476.417 192.898 477.246 193.071 477.895 193.416C478.544 193.758 479.024 194.227 479.336 194.826C479.647 195.424 479.804 196.104 479.804 196.867C479.804 197.629 479.647 198.305 479.336 198.895C479.024 199.485 478.546 199.948 477.901 200.285C477.257 200.618 476.433 200.784 475.431 200.784H471.892V199.369H475.38C476.071 199.369 476.627 199.268 477.048 199.066C477.474 198.863 477.781 198.577 477.971 198.206C478.165 197.831 478.261 197.385 478.261 196.867C478.261 196.348 478.165 195.896 477.971 195.508C477.777 195.12 477.467 194.821 477.042 194.611C476.617 194.396 476.054 194.288 475.355 194.288H472.6V205.84H471.033ZM477.124 200.026L480.309 205.84H478.489L475.355 200.026H477.124ZM486.177 206.041C485.243 206.041 484.436 205.835 483.757 205.423C483.083 205.005 482.563 204.424 482.197 203.678C481.834 202.929 481.653 202.057 481.653 201.062C481.653 200.068 481.834 199.192 482.197 198.434C482.563 197.671 483.073 197.077 483.726 196.652C484.383 196.222 485.15 196.007 486.026 196.007C486.532 196.007 487.031 196.091 487.524 196.26C488.016 196.428 488.465 196.702 488.869 197.081C489.274 197.456 489.596 197.953 489.836 198.573C490.077 199.192 490.196 199.954 490.196 200.86V201.492H482.715V200.203H488.68C488.68 199.655 488.571 199.167 488.352 198.737C488.136 198.307 487.829 197.968 487.429 197.72C487.033 197.471 486.565 197.347 486.026 197.347C485.432 197.347 484.918 197.494 484.484 197.789C484.055 198.08 483.724 198.459 483.492 198.927C483.26 199.394 483.145 199.895 483.145 200.43V201.29C483.145 202.023 483.271 202.644 483.524 203.154C483.781 203.659 484.137 204.045 484.592 204.31C485.047 204.572 485.575 204.702 486.177 204.702C486.57 204.702 486.923 204.647 487.239 204.538C487.56 204.424 487.835 204.256 488.067 204.032C488.299 203.805 488.478 203.523 488.604 203.186L490.045 203.59C489.893 204.079 489.638 204.508 489.28 204.879C488.922 205.246 488.48 205.532 487.953 205.738C487.427 205.941 486.835 206.041 486.177 206.041ZM499.34 198.307L498 198.686C497.916 198.463 497.792 198.246 497.628 198.036C497.468 197.821 497.249 197.644 496.971 197.505C496.692 197.366 496.337 197.296 495.902 197.296C495.308 197.296 494.814 197.433 494.418 197.707C494.026 197.977 493.83 198.32 493.83 198.737C493.83 199.108 493.965 199.4 494.235 199.615C494.504 199.83 494.925 200.009 495.498 200.152L496.939 200.506C497.807 200.717 498.453 201.039 498.879 201.473C499.304 201.903 499.517 202.457 499.517 203.135C499.517 203.691 499.357 204.188 499.037 204.626C498.721 205.064 498.278 205.41 497.71 205.663C497.141 205.915 496.48 206.041 495.725 206.041C494.735 206.041 493.916 205.827 493.268 205.397C492.619 204.968 492.208 204.34 492.035 203.514L493.451 203.16C493.586 203.683 493.84 204.074 494.215 204.336C494.595 204.597 495.09 204.727 495.701 204.727C496.396 204.727 496.948 204.58 497.356 204.285C497.769 203.986 497.975 203.628 497.975 203.211C497.975 202.874 497.857 202.592 497.622 202.364C497.385 202.132 497.023 201.96 496.535 201.846L494.917 201.467C494.028 201.256 493.375 200.93 492.958 200.487C492.545 200.041 492.339 199.483 492.339 198.813C492.339 198.265 492.492 197.781 492.8 197.359C493.112 196.938 493.535 196.607 494.07 196.367C494.609 196.127 495.22 196.007 495.902 196.007C496.863 196.007 497.617 196.218 498.165 196.639C498.717 197.06 499.108 197.616 499.34 198.307ZM505.831 206.041C504.896 206.041 504.089 205.835 503.411 205.423C502.737 205.005 502.217 204.424 501.85 203.678C501.488 202.929 501.307 202.057 501.307 201.062C501.307 200.068 501.488 199.192 501.85 198.434C502.217 197.671 502.726 197.077 503.379 196.652C504.037 196.222 504.803 196.007 505.68 196.007C506.185 196.007 506.684 196.091 507.177 196.26C507.67 196.428 508.119 196.702 508.523 197.081C508.928 197.456 509.25 197.953 509.49 198.573C509.73 199.192 509.85 199.954 509.85 200.86V201.492H502.368V200.203H508.334C508.334 199.655 508.224 199.167 508.005 198.737C507.79 198.307 507.483 197.968 507.082 197.72C506.686 197.471 506.219 197.347 505.68 197.347C505.086 197.347 504.572 197.494 504.138 197.789C503.708 198.08 503.377 198.459 503.146 198.927C502.914 199.394 502.798 199.895 502.798 200.43V201.29C502.798 202.023 502.924 202.644 503.177 203.154C503.434 203.659 503.79 204.045 504.245 204.31C504.7 204.572 505.229 204.702 505.831 204.702C506.223 204.702 506.577 204.647 506.893 204.538C507.213 204.424 507.489 204.256 507.72 204.032C507.952 203.805 508.131 203.523 508.258 203.186L509.698 203.59C509.547 204.079 509.292 204.508 508.934 204.879C508.576 205.246 508.134 205.532 507.607 205.738C507.08 205.941 506.488 206.041 505.831 206.041ZM514.975 206.067C514.36 206.067 513.802 205.951 513.3 205.719C512.799 205.483 512.401 205.144 512.106 204.702C511.811 204.256 511.664 203.716 511.664 203.084C511.664 202.528 511.773 202.078 511.992 201.732C512.211 201.383 512.504 201.109 512.871 200.911C513.237 200.713 513.642 200.565 514.084 200.468C514.53 200.367 514.979 200.287 515.43 200.228C516.02 200.152 516.497 200.096 516.864 200.058C517.235 200.016 517.504 199.946 517.673 199.849C517.846 199.752 517.932 199.584 517.932 199.344V199.293C517.932 198.67 517.761 198.185 517.42 197.84C517.083 197.494 516.571 197.322 515.885 197.322C515.173 197.322 514.614 197.477 514.21 197.789C513.806 198.101 513.521 198.434 513.357 198.788L511.942 198.282C512.194 197.692 512.531 197.233 512.953 196.904C513.378 196.572 513.842 196.34 514.343 196.209C514.848 196.075 515.345 196.007 515.834 196.007C516.146 196.007 516.504 196.045 516.908 196.121C517.317 196.193 517.711 196.342 518.09 196.57C518.473 196.797 518.791 197.14 519.044 197.6C519.297 198.059 519.423 198.674 519.423 199.445V205.84H517.932V204.525H517.856C517.755 204.736 517.587 204.961 517.351 205.202C517.115 205.441 516.801 205.645 516.409 205.814C516.018 205.982 515.539 206.067 514.975 206.067ZM515.202 204.727C515.792 204.727 516.289 204.611 516.694 204.38C517.102 204.148 517.41 203.849 517.616 203.482C517.827 203.116 517.932 202.731 517.932 202.326V200.961C517.869 201.037 517.73 201.107 517.515 201.17C517.304 201.229 517.06 201.281 516.782 201.328C516.508 201.37 516.241 201.408 515.979 201.441C515.722 201.471 515.514 201.496 515.354 201.517C514.966 201.568 514.604 201.65 514.267 201.764C513.934 201.873 513.665 202.04 513.458 202.263C513.256 202.482 513.155 202.781 513.155 203.16C513.155 203.678 513.347 204.07 513.73 204.336C514.118 204.597 514.608 204.727 515.202 204.727ZM522.145 205.84V196.134H523.586V197.6H523.687C523.864 197.119 524.184 196.73 524.648 196.431C525.111 196.131 525.633 195.982 526.215 195.982C526.324 195.982 526.461 195.984 526.625 195.988C526.79 195.992 526.914 195.999 526.998 196.007V197.524C526.948 197.511 526.832 197.492 526.651 197.467C526.474 197.437 526.286 197.423 526.088 197.423C525.616 197.423 525.195 197.522 524.824 197.72C524.458 197.913 524.167 198.183 523.952 198.528C523.742 198.87 523.636 199.259 523.636 199.697V205.84H522.145ZM532.414 206.041C531.504 206.041 530.72 205.827 530.063 205.397C529.406 204.968 528.9 204.375 528.546 203.621C528.192 202.867 528.015 202.006 528.015 201.037C528.015 200.051 528.197 199.181 528.559 198.427C528.925 197.669 529.435 197.077 530.088 196.652C530.745 196.222 531.512 196.007 532.388 196.007C533.071 196.007 533.686 196.134 534.233 196.386C534.781 196.639 535.23 196.993 535.579 197.448C535.929 197.903 536.146 198.434 536.23 199.04H534.739C534.625 198.598 534.372 198.206 533.981 197.865C533.593 197.519 533.071 197.347 532.414 197.347C531.832 197.347 531.322 197.498 530.884 197.802C530.45 198.101 530.111 198.524 529.867 199.072C529.627 199.615 529.507 200.253 529.507 200.987C529.507 201.736 529.625 202.389 529.861 202.945C530.101 203.502 530.438 203.933 530.872 204.241C531.31 204.549 531.824 204.702 532.414 204.702C532.801 204.702 533.153 204.635 533.469 204.5C533.785 204.365 534.052 204.171 534.271 203.919C534.49 203.666 534.646 203.362 534.739 203.009H536.23C536.146 203.582 535.937 204.097 535.605 204.557C535.276 205.012 534.84 205.374 534.297 205.644C533.757 205.909 533.13 206.041 532.414 206.041ZM539.901 200.001V205.84H538.41V192.898H539.901V197.65H540.028C540.255 197.149 540.597 196.751 541.052 196.456C541.51 196.157 542.122 196.007 542.884 196.007C543.546 196.007 544.125 196.14 544.622 196.405C545.119 196.666 545.504 197.069 545.778 197.612C546.056 198.151 546.195 198.838 546.195 199.672V205.84H544.704V199.773C544.704 199.002 544.504 198.406 544.104 197.985C543.708 197.56 543.158 197.347 542.454 197.347C541.965 197.347 541.528 197.45 541.14 197.656C540.757 197.863 540.453 198.164 540.23 198.56C540.011 198.956 539.901 199.436 539.901 200.001ZM564.544 196.942H562.977C562.884 196.492 562.722 196.096 562.49 195.754C562.263 195.413 561.985 195.127 561.656 194.895C561.332 194.659 560.971 194.482 560.575 194.364C560.179 194.246 559.766 194.187 559.337 194.187C558.554 194.187 557.844 194.385 557.207 194.781C556.575 195.177 556.072 195.761 555.697 196.532C555.327 197.303 555.141 198.248 555.141 199.369C555.141 200.489 555.327 201.435 555.697 202.206C556.072 202.977 556.575 203.56 557.207 203.956C557.844 204.352 558.554 204.55 559.337 204.55C559.766 204.55 560.179 204.491 560.575 204.374C560.971 204.256 561.332 204.081 561.656 203.849C561.985 203.613 562.263 203.325 562.49 202.983C562.722 202.638 562.884 202.242 562.977 201.795H564.544C564.426 202.457 564.211 203.048 563.899 203.571C563.587 204.094 563.2 204.538 562.736 204.904C562.273 205.267 561.753 205.542 561.176 205.732C560.603 205.922 559.99 206.017 559.337 206.017C558.233 206.017 557.251 205.747 556.392 205.208C555.533 204.668 554.857 203.902 554.364 202.908C553.871 201.913 553.625 200.734 553.625 199.369C553.625 198.004 553.871 196.824 554.364 195.83C554.857 194.836 555.533 194.069 556.392 193.53C557.251 192.991 558.233 192.721 559.337 192.721C559.99 192.721 560.603 192.816 561.176 193.006C561.753 193.195 562.273 193.473 562.736 193.84C563.2 194.202 563.587 194.644 563.899 195.167C564.211 195.685 564.426 196.277 564.544 196.942ZM570.944 206.041C570.008 206.041 569.201 205.835 568.523 205.423C567.849 205.005 567.329 204.424 566.962 203.678C566.6 202.929 566.419 202.057 566.419 201.062C566.419 200.068 566.6 199.192 566.962 198.434C567.329 197.671 567.838 197.077 568.491 196.652C569.149 196.222 569.915 196.007 570.792 196.007C571.297 196.007 571.796 196.091 572.289 196.26C572.782 196.428 573.231 196.702 573.635 197.081C574.04 197.456 574.362 197.953 574.602 198.573C574.842 199.192 574.962 199.954 574.962 200.86V201.492H567.481V200.203H573.446C573.446 199.655 573.336 199.167 573.117 198.737C572.902 198.307 572.595 197.968 572.194 197.72C571.798 197.471 571.331 197.347 570.792 197.347C570.198 197.347 569.684 197.494 569.25 197.789C568.82 198.08 568.489 198.459 568.258 198.927C568.026 199.394 567.91 199.895 567.91 200.43V201.29C567.91 202.023 568.036 202.644 568.29 203.154C568.546 203.659 568.902 204.045 569.357 204.31C569.812 204.572 570.341 204.702 570.944 204.702C571.335 204.702 571.689 204.647 572.005 204.538C572.325 204.424 572.601 204.256 572.832 204.032C573.064 203.805 573.243 203.523 573.37 203.186L574.81 203.59C574.659 204.079 574.404 204.508 574.046 204.879C573.688 205.246 573.246 205.532 572.719 205.738C572.192 205.941 571.6 206.041 570.944 206.041ZM578.722 200.001V205.84H577.231V196.134H578.671V197.65H578.798C579.025 197.157 579.371 196.761 579.834 196.462C580.297 196.159 580.896 196.007 581.629 196.007C582.286 196.007 582.861 196.142 583.354 196.412C583.846 196.677 584.23 197.081 584.504 197.625C584.777 198.164 584.915 198.847 584.915 199.672V205.84H583.423V199.773C583.423 199.011 583.225 198.417 582.829 197.991C582.433 197.562 581.89 197.347 581.199 197.347C580.723 197.347 580.297 197.45 579.922 197.656C579.552 197.863 579.259 198.164 579.044 198.56C578.829 198.956 578.722 199.436 578.722 200.001ZM591.861 196.134V197.397H586.831V196.134H591.861ZM588.297 193.808H589.788V203.059C589.788 203.48 589.849 203.796 589.971 204.007C590.098 204.213 590.258 204.352 590.451 204.424C590.649 204.491 590.858 204.525 591.077 204.525C591.241 204.525 591.376 204.517 591.482 204.5C591.587 204.479 591.671 204.462 591.734 204.449L592.038 205.789C591.937 205.827 591.795 205.865 591.614 205.903C591.433 205.945 591.204 205.966 590.925 205.966C590.504 205.966 590.091 205.875 589.687 205.694C589.287 205.513 588.954 205.237 588.689 204.866C588.427 204.496 588.297 204.028 588.297 203.464V193.808ZM594.104 205.84V196.134H595.545V197.6H595.646C595.823 197.119 596.143 196.73 596.606 196.431C597.07 196.131 597.592 195.982 598.173 195.982C598.283 195.982 598.42 195.984 598.584 195.988C598.748 195.992 598.873 195.999 598.957 196.007V197.524C598.906 197.511 598.79 197.492 598.609 197.467C598.432 197.437 598.245 197.423 598.047 197.423C597.575 197.423 597.154 197.522 596.783 197.72C596.417 197.913 596.126 198.183 595.911 198.528C595.7 198.87 595.595 199.259 595.595 199.697V205.84H594.104ZM604.499 206.041C603.563 206.041 602.756 205.835 602.079 205.423C601.404 205.005 600.884 204.424 600.518 203.678C600.155 202.929 599.974 202.057 599.974 201.062C599.974 200.068 600.155 199.192 600.518 198.434C600.884 197.671 601.394 197.077 602.047 196.652C602.704 196.222 603.471 196.007 604.347 196.007C604.852 196.007 605.351 196.091 605.844 196.26C606.337 196.428 606.786 196.702 607.191 197.081C607.595 197.456 607.917 197.953 608.157 198.573C608.397 199.192 608.518 199.954 608.518 200.86V201.492H601.036V200.203H607.001C607.001 199.655 606.891 199.167 606.672 198.737C606.458 198.307 606.15 197.968 605.749 197.72C605.353 197.471 604.886 197.347 604.347 197.347C603.753 197.347 603.239 197.494 602.805 197.789C602.375 198.08 602.045 198.459 601.813 198.927C601.581 199.394 601.465 199.895 601.465 200.43V201.29C601.465 202.023 601.592 202.644 601.845 203.154C602.102 203.659 602.457 204.045 602.912 204.31C603.367 204.572 603.896 204.702 604.499 204.702C604.89 204.702 605.244 204.647 605.56 204.538C605.88 204.424 606.156 204.256 606.388 204.032C606.62 203.805 606.798 203.523 606.925 203.186L608.366 203.59C608.214 204.079 607.959 204.508 607.601 204.879C607.243 205.246 606.801 205.532 606.274 205.738C605.747 205.941 605.155 206.041 604.499 206.041ZM616.346 199.596V200.987H610.684V199.596H616.346ZM629.132 192.898H630.698V202.149C630.698 202.975 630.549 203.676 630.246 204.253C629.942 204.83 629.512 205.269 628.961 205.568C628.409 205.867 627.758 206.017 627.008 206.017C626.302 206.017 625.668 205.888 625.117 205.631C624.565 205.37 624.133 204.999 623.817 204.519C623.501 204.038 623.343 203.468 623.343 202.806H624.885C624.885 203.173 624.973 203.493 625.155 203.767C625.343 204.037 625.597 204.247 625.916 204.399C626.236 204.55 626.6 204.626 627.008 204.626C627.461 204.626 627.841 204.531 628.156 204.342C628.475 204.153 628.713 203.874 628.878 203.508C629.049 203.137 629.132 202.684 629.132 202.149V192.898ZM636.495 206.067C635.877 206.067 635.32 205.951 634.818 205.719C634.316 205.483 633.919 205.144 633.627 204.702C633.329 204.256 633.18 203.716 633.18 203.084C633.18 202.528 633.29 202.078 633.511 201.732C633.731 201.383 634.024 201.109 634.388 200.911C634.757 200.713 635.16 200.565 635.601 200.468C636.048 200.367 636.495 200.287 636.947 200.228C637.537 200.152 638.017 200.096 638.381 200.058C638.75 200.016 639.021 199.946 639.191 199.849C639.362 199.752 639.451 199.584 639.451 199.344V199.293C639.451 198.67 639.28 198.185 638.938 197.84C638.601 197.494 638.088 197.322 637.405 197.322C636.693 197.322 636.131 197.477 635.728 197.789C635.325 198.101 635.039 198.434 634.873 198.788L633.461 198.282C633.715 197.692 634.051 197.233 634.47 196.904C634.895 196.572 635.358 196.34 635.86 196.209C636.368 196.075 636.864 196.007 637.355 196.007C637.664 196.007 638.022 196.045 638.425 196.121C638.833 196.193 639.23 196.342 639.611 196.57C639.991 196.797 640.311 197.14 640.565 197.6C640.813 198.059 640.94 198.674 640.94 199.445V205.84H639.451V204.525H639.374C639.274 204.736 639.103 204.961 638.866 205.202C638.634 205.441 638.32 205.645 637.929 205.814C637.537 205.982 637.057 206.067 636.495 206.067ZM636.721 204.727C637.311 204.727 637.807 204.611 638.21 204.38C638.618 204.148 638.927 203.849 639.136 203.482C639.346 203.116 639.451 202.731 639.451 202.326V200.961C639.384 201.037 639.247 201.107 639.032 201.17C638.822 201.229 638.579 201.281 638.298 201.328C638.028 201.37 637.758 201.408 637.498 201.441C637.239 201.471 637.03 201.496 636.87 201.517C636.484 201.568 636.12 201.65 635.783 201.764C635.452 201.873 635.182 202.04 634.978 202.263C634.774 202.482 634.675 202.781 634.675 203.16C634.675 203.678 634.862 204.07 635.248 204.336C635.634 204.597 636.125 204.727 636.721 204.727ZM643.664 205.84V196.134H645.153V205.84H643.664ZM644.42 194.516C644.133 194.516 643.879 194.417 643.67 194.219C643.466 194.021 643.361 193.783 643.361 193.505C643.361 193.227 643.466 192.989 643.67 192.791C643.879 192.593 644.133 192.494 644.42 192.494C644.712 192.494 644.96 192.593 645.17 192.791C645.38 192.989 645.484 193.227 645.484 193.505C645.484 193.783 645.38 194.021 645.17 194.219C644.96 194.417 644.712 194.516 644.42 194.516ZM647.883 209.479V196.134H649.328V197.675H649.505C649.615 197.507 649.764 197.292 649.957 197.031C650.156 196.765 650.437 196.53 650.807 196.323C651.176 196.113 651.678 196.007 652.307 196.007C653.128 196.007 653.845 196.212 654.469 196.62C655.092 197.029 655.583 197.608 655.93 198.358C656.278 199.108 656.454 199.992 656.454 201.012C656.454 202.04 656.278 202.931 655.93 203.685C655.583 204.434 655.097 205.016 654.474 205.429C653.856 205.837 653.145 206.041 652.334 206.041C651.711 206.041 651.209 205.938 650.84 205.732C650.465 205.521 650.172 205.283 649.974 205.018C649.77 204.748 649.615 204.525 649.505 204.348H649.378V209.479H647.883ZM649.351 200.987C649.351 201.72 649.461 202.366 649.676 202.926C649.891 203.482 650.205 203.919 650.614 204.235C651.027 204.546 651.535 204.702 652.13 204.702C652.753 204.702 653.277 204.538 653.691 204.209C654.116 203.876 654.43 203.43 654.64 202.87C654.855 202.305 654.965 201.677 654.965 200.987C654.965 200.304 654.86 199.689 654.645 199.141C654.441 198.59 654.127 198.154 653.708 197.833C653.288 197.509 652.764 197.347 652.13 197.347C651.524 197.347 651.016 197.501 650.602 197.808C650.189 198.111 649.88 198.537 649.67 199.084C649.455 199.628 649.351 200.262 649.351 200.987ZM664.848 201.871V196.134H666.337V205.84H664.848V204.197H664.744C664.517 204.689 664.164 205.108 663.685 205.454C663.205 205.796 662.598 205.966 661.865 205.966C661.258 205.966 660.717 205.833 660.249 205.568C659.774 205.298 659.405 204.894 659.135 204.354C658.864 203.811 658.732 203.127 658.732 202.301V196.134H660.221V202.2C660.221 202.908 660.42 203.472 660.817 203.893C661.214 204.315 661.727 204.525 662.344 204.525C662.714 204.525 663.089 204.43 663.475 204.241C663.861 204.051 664.186 203.76 664.446 203.369C664.716 202.977 664.848 202.478 664.848 201.871ZM669.067 205.84V196.134H670.507V197.6H670.612C670.788 197.119 671.108 196.73 671.571 196.431C672.035 196.131 672.559 195.982 673.138 195.982C673.248 195.982 673.386 195.984 673.551 195.988C673.711 195.992 673.838 195.999 673.921 196.007V197.524C673.871 197.511 673.755 197.492 673.573 197.467C673.397 197.437 673.209 197.423 673.011 197.423C672.542 197.423 672.117 197.522 671.748 197.72C671.384 197.913 671.092 198.183 670.876 198.528C670.667 198.87 670.562 199.259 670.562 199.697V205.84H669.067Z" fill="#3B3C3D"/>
</g>
<defs>
<clipPath id="clip0_1_2">
<rect width="610" height="83.689" fill="white" transform="translate(73 147.155)"/>
</clipPath>
</defs>
</svg>
