<svg width="756" height="378" viewBox="0 0 756 378" fill="none" xmlns="http://www.w3.org/2000/svg">
<g clip-path="url(#clip0_1_705)">
<mask id="mask0_1_705" style="mask-type:luminance" maskUnits="userSpaceOnUse" x="322" y="35" width="113" height="136">
<path d="M434.013 35H322.199V170.304H434.013V35Z" fill="white"/>
</mask>
<g mask="url(#mask0_1_705)">
<path d="M377.441 35.0009C372.83 35.0223 368.427 35.4151 364.553 36.0998C353.14 38.1138 351.068 42.3292 351.068 50.1032V60.3702H378.038V63.7926H351.068H340.946C333.108 63.7926 326.245 68.4984 324.098 77.4505C321.622 87.7117 321.512 94.115 324.098 104.829C326.015 112.804 330.593 118.487 338.432 118.487H347.705V106.18C347.705 97.2878 355.407 89.4445 364.553 89.4445H391.492C398.99 89.4445 404.976 83.2773 404.976 75.7551V50.1032C404.976 42.8025 398.81 37.3183 391.492 36.0998C386.858 35.3295 382.051 34.9795 377.441 35.0009ZM362.856 43.2585C365.641 43.2585 367.916 45.568 367.916 48.4077C367.916 51.2373 365.641 53.5255 362.856 53.5255C360.06 53.5255 357.794 51.2373 357.794 48.4077C357.794 45.568 360.06 43.2585 362.856 43.2585Z" fill="#202C5D"/>
<path d="M408.34 63.7926V75.755C408.34 85.0293 400.468 92.8352 391.492 92.8352H364.553C357.174 92.8352 351.068 99.1436 351.068 106.525V132.177C351.068 139.477 357.424 143.772 364.553 145.866C373.09 148.373 381.277 148.826 391.492 145.866C398.281 143.902 404.977 139.951 404.977 132.177V121.909H378.038V118.487H404.977H418.462C426.3 118.487 429.22 113.026 431.946 104.829C434.762 96.3907 434.642 88.2756 431.946 77.4504C430.009 69.6564 426.31 63.7926 418.462 63.7926H408.34ZM393.189 128.754C395.985 128.754 398.25 131.042 398.25 133.872C398.25 136.712 395.985 139.021 393.189 139.021C390.403 139.021 388.128 136.712 388.128 133.872C388.128 131.042 390.403 128.754 393.189 128.754Z" fill="#FEBE15"/>
</g>
<path d="M225.363 235.769V265.336H216.195V187.109H237.696C246.064 187.109 252.539 189.145 257.123 193.218C261.744 197.292 264.054 203.038 264.054 210.457C264.054 217.876 261.489 223.949 256.359 228.678C251.266 233.406 244.372 235.769 235.677 235.769H225.363ZM225.363 195.401V227.477H234.967C241.298 227.477 246.118 226.041 249.429 223.168C252.776 220.258 254.45 216.167 254.45 210.894C254.45 200.565 248.337 195.401 236.113 195.401H225.363Z" fill="#212A5C"/>
<path d="M322.117 209.475L296.414 274.283C291.83 285.848 285.39 291.631 277.096 291.631C274.768 291.631 272.821 291.394 271.257 290.922V282.902C273.185 283.557 274.949 283.884 276.55 283.884C281.061 283.884 284.445 281.193 286.701 275.811L291.175 265.227L269.347 209.475H279.279L294.395 252.462C294.577 253.008 294.959 254.426 295.541 256.717H295.868C296.05 255.845 296.414 254.463 296.96 252.572L312.84 209.475H322.117Z" fill="#212A5C"/>
<path d="M446.596 239.643H407.141C407.287 245.861 408.96 250.662 412.162 254.044C415.364 257.426 419.765 259.118 425.368 259.118C431.662 259.118 437.447 257.045 442.722 252.899V261.3C437.811 264.864 431.316 266.646 423.24 266.646C415.345 266.646 409.142 264.118 404.631 259.063C400.12 253.972 397.864 246.825 397.864 237.624C397.864 228.932 400.32 221.859 405.231 216.404C410.179 210.912 416.309 208.166 423.622 208.166C430.935 208.166 436.592 210.53 440.593 215.258C444.595 219.986 446.596 226.55 446.596 234.951V239.643ZM437.428 232.06C437.392 226.895 436.137 222.877 433.663 220.004C431.226 217.13 427.824 215.694 423.458 215.694C419.238 215.694 415.655 217.204 412.708 220.222C409.761 223.241 407.942 227.186 407.251 232.06H437.428Z" fill="#212A5C"/>
<path d="M469.134 265.336H460.184V182.635H469.134V265.336Z" fill="#212A5C"/>
<path d="M533.638 265.336H524.688V233.151C524.688 221.513 520.359 215.694 511.7 215.694C507.334 215.694 503.66 217.385 500.677 220.768C497.694 224.113 496.202 228.423 496.202 233.696V265.336H487.252V182.635H496.202V218.749H496.42C500.713 211.694 506.825 208.166 514.756 208.166C527.344 208.166 533.638 215.748 533.638 230.914V265.336Z" fill="#212A5C"/>
<path d="M555.139 195.292C553.538 195.292 552.174 194.746 551.046 193.655C549.918 192.564 549.354 191.182 549.354 189.509C549.354 187.836 549.918 186.454 551.046 185.363C552.174 184.235 553.538 183.672 555.139 183.672C556.776 183.672 558.159 184.235 559.287 185.363C560.451 186.454 561.033 187.836 561.033 189.509C561.033 191.109 560.451 192.473 559.287 193.6C558.159 194.728 556.776 195.292 555.139 195.292ZM559.505 265.336H550.555V209.475H559.505V265.336Z" fill="#212A5C"/>
<path d="M343.042 188.743H374.973C383.804 188.743 390.963 195.902 390.963 204.732V252.151C390.963 260.981 383.804 268.14 374.973 268.14H343.042V188.743Z" fill="#212A5C"/>
<path d="M366.672 262.659L374.01 262.65L372.553 237.615L361.497 237.614L360.041 262.654L366.672 262.659Z" fill="#FEBE15"/>
<path d="M373.719 234.664V231.841H360.33V234.664H373.719Z" fill="#FEBE15"/>
<path d="M361.445 237.16H372.594L373.411 235.122H360.637L361.445 237.16Z" fill="#FEBE15"/>
<path d="M371.802 231.383L370.868 221.394H363.184L362.252 231.383H371.802Z" fill="#FEBE15"/>
<path d="M370.867 220.934L371.409 219.14H362.639L363.175 220.934H370.867Z" fill="#FEBE15"/>
<path d="M371.652 218.682V217.088H362.4V218.68L371.652 218.682Z" fill="#FEBE15"/>
<path d="M370.493 216.632L369.836 209.564H364.218L363.558 216.627L370.493 216.632Z" fill="#FEBE15"/>
<path d="M369.816 209.106L370.136 207.836H363.916L364.228 209.111L369.816 209.106Z" fill="#FEBE15"/>
<path d="M370.398 207.374V206.146H363.65V207.378L370.398 207.374Z" fill="#FEBE15"/>
<path d="M369.32 205.684L368.906 201.709H365.147L364.732 205.688L369.32 205.684Z" fill="#FEBE15"/>
<path d="M368.352 198.992L368.098 195.795H365.954L365.7 198.992H368.352Z" fill="#FEBE15"/>
<path d="M368.33 194.724V194.288H365.722V194.73C365.762 194.762 365.789 194.806 365.801 194.856L365.932 195.336L368.116 195.336L368.252 194.841C368.266 194.795 368.293 194.754 368.33 194.724Z" fill="#FEBE15"/>
<path d="M369.281 200.108L369.282 199.449H364.771V200.112L369.281 200.108Z" fill="#FEBE15"/>
<path d="M368.895 201.247L369.046 200.567H365.003L365.153 201.247H368.895Z" fill="#FEBE15"/>
<path d="M368.33 194.287V194.729V194.724M368.33 194.287H365.722V194.73C365.762 194.762 365.789 194.806 365.801 194.856L365.932 195.336L368.116 195.336L368.252 194.841C368.266 194.795 368.293 194.754 368.33 194.724M368.33 194.287V194.724M366.671 262.659L374.01 262.65L372.553 237.615L361.496 237.614L360.041 262.654L366.671 262.659ZM374.254 263.11L359.784 263.109C359.656 263.102 359.559 262.994 359.566 262.868L361.047 237.402L360.141 235.121H360.098C360.037 235.121 359.978 235.097 359.934 235.054C359.891 235.011 359.866 234.953 359.867 234.892V231.611C359.867 231.485 359.97 231.382 360.098 231.382H361.787L362.745 221.161L362.744 221.16C362.743 221.146 362.743 221.132 362.744 221.117L362.202 219.222L362.155 219.216C362.031 219.21 361.934 219.03 361.934 218.907V216.86C361.933 216.799 361.957 216.741 362.001 216.698C362.045 216.655 362.104 216.631 362.165 216.631H363.092L363.775 209.338C363.775 209.312 363.779 209.287 363.789 209.263L363.439 207.837H363.419C363.291 207.837 363.188 207.734 363.188 207.607V205.917C363.188 205.79 363.291 205.687 363.419 205.687H364.264L364.706 201.455C364.707 201.441 364.708 201.428 364.713 201.415L364.527 200.569C364.403 200.564 364.304 200.463 364.304 200.339V199.221C364.304 199.095 364.408 198.993 364.535 198.993H365.233L365.507 195.547V195.542L365.39 195.117C365.31 195.078 365.26 194.998 365.259 194.91V194.057C365.259 193.931 365.362 193.828 365.49 193.828H368.561C368.689 193.828 368.793 193.931 368.793 194.057V194.91C368.793 195.001 368.739 195.083 368.655 195.12L368.539 195.533V195.546L368.813 198.991H369.512C369.64 198.991 369.744 199.094 369.744 199.221V200.341C369.743 200.465 369.643 200.566 369.518 200.569L369.333 201.405C369.338 201.421 369.342 201.438 369.343 201.456L369.785 205.688H370.63C370.758 205.688 370.861 205.791 370.861 205.918V207.608C370.861 207.735 370.758 207.837 370.63 207.837H370.607L370.255 209.255C370.264 209.275 370.27 209.297 370.272 209.319L370.957 216.633H371.883C371.945 216.633 372.004 216.657 372.047 216.7C372.091 216.743 372.115 216.801 372.115 216.862V218.912C372.115 219.035 372.016 219.137 371.891 219.141L371.299 221.104C371.304 221.117 371.306 221.131 371.306 221.144L372.266 231.384H373.953L373.952 231.385C374.014 231.385 374.073 231.408 374.116 231.452C374.159 231.494 374.183 231.553 374.183 231.614V234.894C374.184 234.955 374.16 235.014 374.116 235.057C374.073 235.1 374.014 235.124 373.952 235.124H373.906L373.008 237.378L374.489 262.855C374.49 262.865 374.49 262.876 374.489 262.886C374.489 262.947 374.465 263.005 374.421 263.048C374.378 263.091 374.32 263.115 374.258 263.115L374.254 263.11ZM361.444 237.16H372.594L373.411 235.122H360.637L361.444 237.16ZM373.718 234.664V231.841H360.33V234.664H373.718ZM371.802 231.383L370.868 221.394H363.184L362.252 231.383H371.802ZM370.868 220.934L371.409 219.14H362.639L363.175 220.934H370.868ZM371.652 218.682V217.089H362.4V218.68L371.652 218.682ZM370.493 216.632L369.836 209.564H364.219L363.558 216.627L370.493 216.632ZM369.815 209.106L370.136 207.836H363.915L364.228 209.111L369.815 209.106ZM370.397 207.374V206.146H363.65V207.378L370.397 207.374ZM369.32 205.684L368.906 201.709H365.147L364.731 205.688L369.32 205.684ZM368.894 201.247L369.046 200.567H365.003L365.152 201.247H368.894ZM369.28 200.108L369.281 199.449H364.771V200.112L369.28 200.108ZM368.352 198.992L368.098 195.795H365.954L365.7 198.992H368.352Z" stroke="black" stroke-width="0.53298" stroke-miterlimit="10"/>
<path d="M195.352 325.077C207.397 322.063 219.29 319.814 231.223 316.974C252.83 311.906 283.476 305.46 317.931 300.615C323.39 299.848 328.851 299.133 334.315 298.474C365.404 294.727 397.142 293.194 427.598 294.353C432.366 294.529 437.108 294.782 441.813 295.099C459.278 296.273 477.102 297.895 494.536 302.361C511.417 306.684 516.645 308.772 525.457 311.234C539.883 315.265 546.42 300.824 534.149 293.515C526.874 289.182 515.096 285.083 496.977 280.823C478.858 276.563 460.118 274.331 442.36 273.667C437.519 273.492 432.652 273.413 427.765 273.437C396.598 273.593 364.386 277.736 333.191 283.593C327.701 284.623 322.212 285.728 316.741 286.898C282.114 294.301 251.814 303.537 230.362 310.858C218.292 314.978 208.613 318.642 202.3 321.358C196.168 323.997 195.307 324.825 195.352 325.076V325.077Z" fill="#202C5D"/>
<path d="M380.913 299.931C380.916 300.059 381.411 300.178 384.609 300.395C387.583 300.598 393.201 300.908 399.04 301.38C400.241 301.477 401.496 301.584 402.801 301.702C414.886 302.794 432.192 304.865 450.597 307.982C451.403 308.119 452.215 308.259 453.034 308.403C472.237 311.772 491.656 316.567 508.365 323.235C511.195 324.364 513.847 325.507 516.339 326.658C521.407 329.002 526.232 331.55 530.651 334.432C539.206 340.011 538.494 340.154 543.392 344.185C546.115 346.428 553.06 351.444 555.969 349.448C558.878 347.453 558.903 343.97 556.907 341.061C555.591 339.142 553.508 336.327 550.347 333.125C547.154 329.891 542.585 326.659 537.778 323.517C532.661 320.172 527.103 317.322 521.48 314.964C518.697 313.797 515.753 312.683 512.647 311.624C494.56 305.455 473.673 302.058 454.143 300.187C453.299 300.106 452.462 300.029 451.633 299.954C432.604 298.245 415.172 298.346 402.902 298.635C401.585 298.666 400.319 298.699 399.109 298.733C392.812 298.91 387.996 299.117 384.604 299.38C381.523 299.62 380.91 299.821 380.913 299.931Z" fill="#FEBE15"/>
</g>
<defs>
<clipPath id="clip0_1_705">
<rect width="366.157" height="314.991" fill="white" transform="translate(195.35 35)"/>
</clipPath>
</defs>
</svg>
