<svg width="756" height="378" viewBox="0 0 756 378" fill="none" xmlns="http://www.w3.org/2000/svg">
<path d="M207.917 332.884C206.23 333.306 204.022 333.749 201.292 334.213C198.148 334.716 194.967 334.953 191.782 334.921C189.076 334.998 186.383 334.531 183.86 333.548C181.829 332.721 180.047 331.382 178.685 329.663C177.341 327.91 176.38 325.895 175.862 323.747C175.262 321.262 174.973 318.711 175.002 316.154V293.281H182.291V314.61C182.291 319.579 183.076 323.133 184.645 325.272C186.214 327.411 188.855 328.484 192.567 328.493C193.351 328.493 194.161 328.493 194.997 328.41C195.832 328.328 196.616 328.297 197.35 328.214C198.084 328.132 198.749 328.056 199.35 327.98C199.78 327.935 200.204 327.844 200.615 327.708V293.281H207.917V332.884Z" fill="black"/>
<path d="M227.754 295.084C229.029 294.333 230.386 293.728 231.797 293.281C233.807 292.621 235.914 292.303 238.029 292.338C240.713 292.288 243.375 292.824 245.831 293.907C248.059 294.917 250.03 296.418 251.595 298.298C253.22 300.288 254.433 302.581 255.164 305.043C256 307.841 256.41 310.748 256.379 313.668C256.424 316.697 255.934 319.711 254.93 322.57C254.047 325.07 252.643 327.354 250.811 329.271C248.996 331.128 246.804 332.574 244.382 333.51C241.677 334.537 238.802 335.042 235.91 334.997C232.889 335.028 229.872 334.793 226.893 334.295C224.282 333.822 222.139 333.352 220.464 332.884V274.457L227.754 273.191V295.084ZM227.754 327.708C228.773 327.973 229.809 328.169 230.854 328.297C232.506 328.497 234.17 328.588 235.834 328.569C239.757 328.569 242.893 327.276 245.243 324.69C247.592 322.104 248.769 318.43 248.773 313.668C248.783 311.691 248.571 309.719 248.14 307.789C247.777 306.09 247.085 304.478 246.103 303.044C245.167 301.703 243.912 300.616 242.452 299.88C240.777 299.079 238.936 298.689 237.08 298.741C235.202 298.721 233.338 299.069 231.594 299.766C230.216 300.279 228.92 300.991 227.747 301.88L227.754 327.708Z" fill="black"/>
<path d="M299.114 332.884C297.427 333.306 295.219 333.749 292.49 334.213C289.339 334.717 286.151 334.954 282.961 334.921C280.257 334.997 277.565 334.53 275.045 333.548C273.013 332.722 271.23 331.384 269.869 329.663C268.521 327.912 267.557 325.896 267.041 323.747C266.44 321.262 266.151 318.711 266.18 316.154V293.281H273.476V314.61C273.476 319.579 274.258 323.133 275.823 325.272C277.388 327.411 280.029 328.484 283.745 328.493C284.53 328.493 285.34 328.493 286.175 328.41C287.01 328.328 287.795 328.297 288.529 328.214C289.263 328.132 289.927 328.056 290.528 327.98C290.969 327.937 291.404 327.846 291.825 327.708V293.281H299.114V332.884Z" fill="black"/>
<path d="M311.661 294.458C313.348 294.036 315.571 293.591 318.33 293.122C321.494 292.624 324.694 292.389 327.897 292.42C330.653 292.333 333.399 292.8 335.971 293.793C337.987 294.608 339.757 295.931 341.109 297.634C342.437 299.383 343.36 301.406 343.811 303.556C344.355 306.05 344.618 308.597 344.595 311.149V334.048H337.312V312.725C337.342 310.571 337.17 308.418 336.8 306.296C336.555 304.755 335.981 303.286 335.117 301.987C334.33 300.887 333.226 300.053 331.953 299.595C330.392 299.056 328.745 298.803 327.094 298.849C326.309 298.849 325.499 298.849 324.658 298.925C323.816 299.001 323.025 299.045 322.266 299.121C321.507 299.197 320.83 299.292 320.228 299.399C319.627 299.507 319.197 299.583 318.963 299.633V334.061H311.661V294.458Z" fill="black"/>
<path d="M363.495 293.281H378.947V299.399H363.495V318.211C363.462 319.91 363.62 321.608 363.964 323.272C364.186 324.421 364.669 325.503 365.375 326.436C365.99 327.185 366.807 327.743 367.729 328.043C368.795 328.378 369.908 328.538 371.025 328.518C372.818 328.576 374.608 328.324 376.315 327.771C377.65 327.271 378.58 326.923 379.099 326.715L380.51 332.751C379.266 333.305 377.982 333.764 376.669 334.124C374.629 334.699 372.518 334.976 370.399 334.947C368.065 335.017 365.738 334.658 363.533 333.89C361.822 333.251 360.316 332.157 359.18 330.726C358.026 329.183 357.237 327.398 356.871 325.506C356.399 323.144 356.176 320.739 356.206 318.331V281.948L363.495 280.683V293.281Z" fill="black"/>
<path d="M420.664 332.884C418.976 333.306 416.768 333.749 414.039 334.213C410.888 334.717 407.7 334.954 404.51 334.921C401.804 334.998 399.11 334.531 396.588 333.548C394.557 332.721 392.774 331.382 391.412 329.663C390.066 327.912 389.104 325.896 388.59 323.747C387.99 321.262 387.701 318.711 387.73 316.154V293.281H395.019V314.61C395.019 319.579 395.803 323.133 397.372 325.272C398.942 327.411 401.582 328.484 405.294 328.493C406.079 328.493 406.889 328.493 407.724 328.41C408.559 328.328 409.344 328.297 410.078 328.214C410.812 328.132 411.476 328.056 412.077 327.98C412.508 327.936 412.932 327.845 413.343 327.708V293.281H420.638L420.664 332.884Z" fill="black"/>
<path d="M478.3 306.821C478.393 311.018 477.646 315.192 476.105 319.096C474.746 322.418 472.624 325.373 469.91 327.721C467.106 330.053 463.848 331.777 460.343 332.783C456.369 333.946 452.246 334.515 448.106 334.472C445.908 334.472 443.491 334.379 440.855 334.194C438.437 334.045 436.037 333.692 433.679 333.137V280.499C436.037 279.944 438.437 279.591 440.855 279.443C443.491 279.261 445.908 279.168 448.106 279.164C452.247 279.129 456.371 279.707 460.343 280.879C463.848 281.885 467.106 283.608 469.91 285.941C472.625 288.287 474.748 291.242 476.105 294.565C477.644 298.464 478.39 302.631 478.3 306.821ZM448.738 327.86C455.952 327.86 461.336 326.019 464.892 322.336C468.448 318.654 470.224 313.482 470.22 306.821C470.22 300.182 468.444 295.019 464.892 291.332C461.341 287.645 455.956 285.804 448.738 285.808C446.593 285.808 444.942 285.808 443.759 285.884C442.576 285.96 441.753 285.991 441.285 286.042V327.601C441.753 327.657 442.55 327.708 443.759 327.759C444.967 327.809 446.593 327.86 448.738 327.86Z" fill="black"/>
<path d="M534.209 306.821C534.305 311.019 533.558 315.193 532.014 319.097C530.66 322.421 528.537 325.376 525.819 327.721C523.017 330.056 519.759 331.78 516.252 332.783C512.281 333.945 508.159 334.515 504.021 334.472C501.823 334.472 499.404 334.379 496.764 334.194C494.346 334.045 491.946 333.692 489.588 333.137V280.499C491.946 279.944 494.346 279.591 496.764 279.443C499.409 279.261 501.828 279.168 504.021 279.164C508.16 279.13 512.282 279.708 516.252 280.879C519.759 281.882 523.017 283.606 525.819 285.941C528.538 288.284 530.662 291.24 532.014 294.565C533.556 298.463 534.302 302.63 534.209 306.821ZM504.648 327.835C511.861 327.835 517.246 325.993 520.802 322.311C524.358 318.628 526.136 313.465 526.136 306.821C526.136 300.182 524.358 295.019 520.802 291.332C517.246 287.645 511.861 285.804 504.648 285.808C502.501 285.808 500.841 285.833 499.668 285.884C498.491 285.934 497.669 285.991 497.2 286.042V327.601C497.669 327.657 498.466 327.708 499.668 327.759C500.87 327.809 502.503 327.86 504.648 327.86V327.835Z" fill="black"/>
<path d="M545.484 334.061V279.715H578.653V286.219H553.09V302.392H575.856V308.719H553.109V327.544H580.633V334.054L545.484 334.061Z" fill="black"/>
<path d="M377.808 242.845C433.27 242.845 478.231 197.884 478.231 142.422C478.231 86.9606 433.27 42 377.808 42C322.346 42 277.386 86.9606 277.386 142.422C277.386 197.884 322.346 242.845 377.808 242.845Z" fill="#0097F4"/>
<path d="M439.923 133.813L349.043 82.9807L347.548 85.6534L438.428 136.486L439.923 133.813Z" fill="white"/>
<path d="M435.847 141.283L344.962 90.4468L343.467 93.1196L434.352 143.955L435.847 141.283Z" fill="white"/>
<path d="M340.065 91.875L340.048 189.906L343.111 189.906L343.128 91.8755L340.065 91.875Z" fill="white"/>
<path d="M348.578 91.7928L348.561 189.83L351.623 189.83L351.64 91.7933L348.578 91.7928Z" fill="white"/>
<path d="M346.854 109.925C359.012 109.925 368.867 100.069 368.867 87.9118C368.867 75.7543 359.012 65.8987 346.854 65.8987C334.697 65.8987 324.841 75.7543 324.841 87.9118C324.841 100.069 334.697 109.925 346.854 109.925Z" fill="#0097F4"/>
<path d="M433.572 134.026L343.845 183.783L345.33 186.461L435.057 136.705L433.572 134.026Z" fill="white"/>
<path d="M437.771 141.425L348.039 191.185L349.524 193.863L439.256 144.103L437.771 141.425Z" fill="white"/>
<path d="M347.24 211.859C359.398 211.859 369.253 202.004 369.253 189.846C369.253 177.689 359.398 167.833 347.24 167.833C335.083 167.833 325.227 177.689 325.227 189.846C325.227 202.004 335.083 211.859 347.24 211.859Z" fill="#0097F4"/>
<path d="M436.432 161.278C448.59 161.278 458.445 151.423 458.445 139.265C458.445 127.108 448.59 117.252 436.432 117.252C424.275 117.252 414.419 127.108 414.419 139.265C414.419 151.423 424.275 161.278 436.432 161.278Z" fill="#0097F4"/>
<path d="M346.911 107.274C357.577 107.274 366.223 98.6276 366.223 87.9623C366.223 77.297 357.577 68.6511 346.911 68.6511C336.246 68.6511 327.6 77.297 327.6 87.9623C327.6 98.6276 336.246 107.274 346.911 107.274Z" fill="white"/>
<path d="M436.52 158.646C447.186 158.646 455.832 150 455.832 139.335C455.832 128.669 447.186 120.023 436.52 120.023C425.855 120.023 417.209 128.669 417.209 139.335C417.209 150 425.855 158.646 436.52 158.646Z" fill="white"/>
<path d="M347.298 209.24C357.963 209.24 366.609 200.594 366.609 189.929C366.609 179.263 357.963 170.617 347.298 170.617C336.632 170.617 327.986 179.263 327.986 189.929C327.986 200.594 336.632 209.24 347.298 209.24Z" fill="white"/>
</svg>
