<?xml version="1.0" encoding="UTF-8" standalone="no"?>
<!-- Created with Inkscape (http://www.inkscape.org/) -->

<svg
   width="200mm"
   height="100mm"
   viewBox="0 0 200 100"
   version="1.1"
   id="svg1"
   xmlns="http://www.w3.org/2000/svg"
   xmlns:svg="http://www.w3.org/2000/svg">
  <defs
     id="defs1" />
  <g
     id="layer1">
    <rect
       style="fill:none;stroke:#ffffff;stroke-width:0.2;stroke-dasharray:0.2, 0.4"
       id="rect1"
       width="195.39803"
       height="94.607857"
       x="2.622792"
       y="2.2481074" />
    <g
       id="Page-1"
       stroke="none"
       stroke-width="1"
       fill="none"
       fill-rule="evenodd"
       transform="matrix(1.1381117,0,0,1.1381117,39.313695,5.6082721)">
      <g
         id="site"
         transform="translate(-160.80315,-89)">
        <g
           id="Group-2"
           transform="translate(163.3239,91.260768)">
          <g
             id="g1593"
             transform="translate(10.217829,8.684369)"
             fill="#FFFFFF"
             fill-rule="nonzero"
             style="fill:#000000">
            <g
               id="text1571"
               transform="translate(0.248104)"
               style="fill:#000000">
              <polygon
                 id="path1919"
                 points="6.2061036,18.732308 6.2061036,30.658817 0.088116702,30.658817 0.088116702,0.71161498 15.133131,0.71161498 15.133131,6.8296064 6.2061036,6.8296064 6.2061036,12.614316 15.133131,12.614316 15.133131,18.732308 "
                 style="fill:#000000" />
              <path
                 d="M 24.060156,24.517018 H 29.84487 V 6.8296064 h -5.784714 z m -3.142313,6.141799 V 27.659351 H 17.942169 V 3.687296 h 2.975674 V 0.71161498 h 12.06934 V 3.687296 h 2.975674 v 23.972055 h -2.975674 v 2.999466 z M 18.108805,0.80684468 h 2.809038 V 3.687296 h -2.809038 z m 14.878378,-0.0953196 h 2.975674 V 3.687206 h -2.975674 z m 0,26.94773592 h 2.975674 v 2.904259 h -2.975674 z m -15.045014,0 h 2.975674 v 2.999466 h -2.975674 z"
                 id="path1921"
                 style="fill:#000000" />
              <path
                 d="M 53.816909,30.658817 H 38.771895 v -6.141799 h 11.902699 v -5.78471 H 41.747569 V 15.756649 H 38.771895 V 3.687296 h 2.975674 V 0.71161498 H 56.792583 V 6.8296064 H 44.889882 v 5.7847096 h 8.927027 v 2.975681 h 2.975674 V 27.659351 H 53.816909 Z M 38.938531,0.80684468 h 2.809038 V 3.687296 H 38.938531 Z M 38.771902,15.756649 h 2.975674 v 2.975659 h -2.975674 z m 15.045014,-3.142333 h 2.975674 v 2.975681 h -2.975674 z m 0,15.045035 h 2.975674 v 2.904258 h -2.975674 z"
                 id="path1923"
                 style="fill:#000000" />
              <path
                 d="M 74.64664,30.658817 H 59.601626 v -6.141799 h 11.902701 v -5.78471 H 62.577302 V 15.756649 H 59.601626 V 3.687296 h 2.975676 V 0.71161498 H 77.622316 V 6.8296064 H 65.719615 v 5.7847096 h 8.927025 v 2.975681 h 2.975676 V 27.659351 H 74.64664 Z M 59.768264,0.80684468 h 2.809038 V 3.687296 H 59.768264 Z M 59.601635,15.756649 h 2.975676 v 2.975659 h -2.975676 z m 15.045014,-3.142333 h 2.975676 v 2.975681 h -2.975676 z m 0,15.045035 h 2.975676 v 2.904258 h -2.975676 z"
                 id="path1925"
                 style="fill:#000000" />
            </g>
            <g
               id="text1575"
               transform="translate(0.127883,35.473579)"
               style="fill:#000000">
              <path
                 d="M 2.3573479,22.543294 V 20.372042 H 0.20688457 V 0.8653554 H 4.6282375 V 18.097405 H 8.8087379 V 0.8653554 H 13.230091 V 20.372042 h -2.150463 v 2.171252 z M 0.20688457,20.372042 H 2.3573479 v 2.171252 H 0.20688457 Z m 10.87274343,0 h 2.150463 v 2.102314 h -2.150463 z"
                 id="path1928"
                 style="fill:#000000" />
              <polygon
                 id="path1930"
                 points="28.283334,0.8653554 28.283334,22.543294 23.861981,22.543294 23.861981,5.2940104 19.681481,5.2940104 19.681481,22.543294 15.260128,22.543294 15.260128,0.8653554 "
                 style="fill:#000000" />
              <polygon
                 id="path1932"
                 points="34.734724,0.8653554 34.734724,22.543294 30.313371,22.543294 30.313371,0.8653554 "
                 style="fill:#000000" />
              <polygon
                 id="path1934"
                 points="36.764764,5.2940104 36.764764,0.8653554 49.78797,0.8653554 49.78797,5.2940104 45.487043,5.2940104 45.487043,22.543294 41.06569,22.543294 41.06569,5.2940104 "
                 style="fill:#000000" />
              <polygon
                 id="path1936"
                 points="62.690748,9.4813801 62.690748,13.910035 56.239358,13.910035 56.239358,18.097405 62.690748,18.097405 62.690748,22.543294 51.818005,22.543294 51.818005,0.8653554 62.690748,0.8653554 62.690748,5.2940104 56.239358,5.2940104 56.239358,9.4813801 "
                 style="fill:#000000" />
              <path
                 d="m 69.142138,18.097405 h 4.1805 V 5.2940104 h -4.1805 z m -4.421353,4.445889 V 0.8653554 h 10.872743 v 2.1540174 h 2.150463 V 20.372042 h -2.150463 v 2.171252 z"
                 id="path1938"
                 style="fill:#000000" />
            </g>
          </g>
          <rect
             id="rect1579"
             stroke="#FFFFFF"
             stroke-width="3.99999"
             x="0"
             y="0"
             width="98.642563"
             height="76.09726"
             style="stroke:#000000;stroke-opacity:1" />
        </g>
      </g>
    </g>
  </g>
</svg>
