<?xml version="1.0" encoding="UTF-8" standalone="no"?>
<svg
   width="208"
   height="128"
   viewBox="0 0 208 128"
   fill="none"
   version="1.1"
   id="svg13"
   sodipodi:docname="onlyoffice.svg"
   inkscape:version="1.3.2 (091e20ef0f, 2023-11-25)"
   xmlns:inkscape="http://www.inkscape.org/namespaces/inkscape"
   xmlns:sodipodi="http://sodipodi.sourceforge.net/DTD/sodipodi-0.dtd"
   xmlns="http://www.w3.org/2000/svg"
   xmlns:svg="http://www.w3.org/2000/svg">
  <sodipodi:namedview
     id="namedview13"
     pagecolor="#ffffff"
     bordercolor="#000000"
     borderopacity="0.25"
     inkscape:showpageshadow="2"
     inkscape:pageopacity="0.0"
     inkscape:pagecheckerboard="0"
     inkscape:deskcolor="#d1d1d1"
     inkscape:zoom="3.0623025"
     inkscape:cx="103.19033"
     inkscape:cy="92.087571"
     inkscape:window-width="1920"
     inkscape:window-height="1048"
     inkscape:window-x="0"
     inkscape:window-y="0"
     inkscape:window-maximized="1"
     inkscape:current-layer="svg13" />
  <g
     clip-path="url(#clip0)"
     id="g13"
     transform="matrix(1.3197315,0,0,1.3197315,-33.551832,-19.942553)">
    <path
       fill-rule="evenodd"
       clip-rule="evenodd"
       d="m 42.1327,77.6567 -12.3441,-5.767 c -1.0515,-0.5035 -1.0515,-1.2816 0,-1.7393 l 4.2976,-2.0139 8.0008,3.7532 c 1.0515,0.5035 2.7431,0.5035 3.7489,0 l 8.0008,-3.7532 4.2976,2.0139 c 1.0515,0.5035 1.0515,1.2816 0,1.7393 l -12.3441,5.767 c -0.9601,0.4577 -2.6517,0.4577 -3.6575,0 z"
       fill="#ff6f3d"
       id="path1" />
    <path
       fill-rule="evenodd"
       clip-rule="evenodd"
       d="m 42.1327,70.5623 -12.3441,-5.767 c -1.0515,-0.5035 -1.0515,-1.2816 0,-1.7393 l 4.2062,-1.9681 8.1379,3.7989 c 1.0515,0.5035 2.7431,0.5035 3.7489,0 l 8.138,-3.7989 4.2061,1.9681 c 1.0515,0.5035 1.0515,1.2816 0,1.7393 l -12.3441,5.767 c -1.0515,0.5035 -2.7431,0.5035 -3.7489,0 z"
       fill="#95c038"
       id="path2" />
    <path
       fill-rule="evenodd"
       clip-rule="evenodd"
       d="M 42.1327,63.651 29.7886,57.8839 c -1.0515,-0.5034 -1.0515,-1.2815 0,-1.7392 l 12.3441,-5.7671 c 1.0515,-0.5035 2.7431,-0.5035 3.7489,0 l 12.3441,5.7671 c 1.0515,0.5034 1.0515,1.2815 0,1.7392 L 45.8816,63.651 c -1.0515,0.4577 -2.7431,0.4577 -3.7489,0 z"
       fill="#5dc0e8"
       id="path3" />
    <path
       d="m 66.5591,63.9432 c 0,-2.3851 0.6807,-4.1852 2.0873,-5.3553 1.3613,-1.215 2.9948,-1.8001 4.8552,-1.8001 1.8604,0 3.4486,0.5851 4.8098,1.8001 1.3613,1.2151 2.0419,2.9702 2.0419,5.4003 0,2.3852 -0.6806,4.1853 -2.0419,5.3553 -1.3612,1.2151 -2.9948,1.8001 -4.8098,1.8001 -1.8604,0 -3.4485,-0.585 -4.8552,-1.8001 -1.4066,-1.215 -2.0873,-3.0151 -2.0873,-5.4003 z m 2.9948,0 c 0,1.6651 0.3177,2.8352 0.9075,3.6002 0.6353,0.7651 1.3159,1.2601 2.0419,1.4401 0.1815,0.045 0.3177,0.09 0.4992,0.09 0.1361,0 0.3176,0.045 0.4537,0.045 0.1815,0 0.3177,0 0.4992,-0.045 0.1815,0 0.3176,-0.045 0.4991,-0.09 0.726,-0.18 1.4066,-0.675 1.9965,-1.4401 0.5899,-0.765 0.9075,-1.9801 0.9075,-3.5552 0,-1.6201 -0.3176,-2.7901 -0.9075,-3.5552 -0.5899,-0.765 -1.2705,-1.26 -1.9965,-1.44 -0.1815,-0.045 -0.363,-0.09 -0.4991,-0.09 -0.1815,0 -0.3177,-0.045 -0.4992,-0.045 -0.1815,0 -0.3176,0 -0.4537,0.045 -0.1361,0 -0.3177,0.045 -0.4992,0.09 -0.726,0.18 -1.4066,0.675 -2.0419,1.44 -0.5898,0.6751 -0.9075,1.8901 -0.9075,3.5102 z"
       fill="#333333"
       id="path4" />
    <path
       d="m 81.8507,56.9229 h 3.7208 l 4.9006,8.8204 0.726,1.9351 h 0.0454 l -0.0454,-2.5201 v -8.2354 h 2.8587 V 70.9636 H 90.336 L 85.4354,61.7831 84.7094,60.208 H 84.664 l 0.0454,2.4752 v 8.2804 h -2.8587 z"
       fill="#333333"
       id="path5" />
    <path
       d="m 97.0062,56.9229 h 2.8586 v 11.6556 h 5.6262 v 2.3851 h -8.4848 z"
       fill="#333333"
       id="path6" />
    <path
       d="m 103.722,56.9229 h 3.312 l 2.904,4.9052 0.454,0.9901 h 0.091 l 0.453,-0.9901 2.95,-4.9052 h 3.04 l -5.127,8.3254 v 5.7153 h -2.859 v -5.7603 z"
       fill="#333333"
       id="path7" />
    <path
       d="m 116.563,63.9432 c 0,-2.3851 0.681,-4.1852 2.087,-5.3553 1.362,-1.215 2.995,-1.8001 4.856,-1.8001 1.86,0 3.448,0.5851 4.809,1.8001 1.362,1.2151 2.042,2.9702 2.042,5.4003 0,2.3852 -0.68,4.1853 -2.042,5.3553 -1.361,1.2151 -2.994,1.8001 -4.809,1.8001 -1.861,0 -3.449,-0.585 -4.856,-1.8001 -1.361,-1.215 -2.087,-3.0151 -2.087,-5.4003 z m 2.995,0 c 0,1.6651 0.318,2.8352 0.907,3.6002 0.636,0.7651 1.271,1.2601 2.042,1.4401 0.182,0.045 0.318,0.09 0.499,0.09 0.137,0 0.318,0.045 0.454,0.045 0.182,0 0.318,0 0.499,-0.045 0.182,0 0.318,-0.045 0.499,-0.09 0.726,-0.18 1.407,-0.675 1.997,-1.4401 0.59,-0.765 0.908,-1.9801 0.908,-3.5552 0,-1.6201 -0.318,-2.7901 -0.908,-3.5552 -0.59,-0.765 -1.271,-1.26 -1.997,-1.44 -0.181,-0.045 -0.363,-0.09 -0.499,-0.09 -0.181,0 -0.317,-0.045 -0.499,-0.045 -0.181,0 -0.317,0 -0.454,0.045 -0.136,0 -0.317,0.045 -0.499,0.09 -0.726,0.18 -1.406,0.675 -2.042,1.44 -0.589,0.6751 -0.907,1.8901 -0.907,3.5102 z"
       fill="#333333"
       id="path8" />
    <path
       d="m 132.354,56.9229 h 7.895 v 2.3401 h -5.037 v 3.4202 h 4.81 v 2.3851 h -4.81 v 5.8953 h -2.858 z"
       fill="#333333"
       id="path9" />
    <path
       d="m 142.382,56.9229 h 7.895 v 2.3401 h -5.036 v 3.4202 h 4.809 v 2.3851 h -4.809 v 5.8953 h -2.859 z"
       fill="#333333"
       id="path10" />
    <path
       d="M 151.956,70.9636 V 56.9229 h 2.859 v 14.0407 z"
       fill="#333333"
       id="path11" />
    <path
       d="m 167.411,57.2378 v 2.4301 c -0.5,-0.18 -0.999,-0.315 -1.543,-0.405 -0.545,-0.09 -1.18,-0.135 -1.815,-0.135 -1.498,0 -2.632,0.45 -3.449,1.395 -0.816,0.9001 -1.225,2.0702 -1.225,3.4652 0,1.3501 0.363,2.4752 1.135,3.3752 0.771,0.9001 1.86,1.3951 3.267,1.3951 0.499,0 0.998,-0.045 1.588,-0.09 0.59,-0.09 1.179,-0.225 1.815,-0.495 l 0.181,2.3851 c -0.091,0.045 -0.227,0.09 -0.363,0.135 -0.181,0.045 -0.363,0.09 -0.59,0.135 -0.363,0.09 -0.816,0.135 -1.361,0.225 -0.544,0.045 -1.089,0.09 -1.679,0.09 -0.091,0 -0.181,0 -0.227,0 -0.09,0 -0.181,0 -0.227,0 -1.633,-0.09 -3.13,-0.72 -4.492,-1.8001 -1.361,-1.125 -2.042,-2.8801 -2.042,-5.2203 0,-2.2951 0.681,-4.0952 1.997,-5.3553 1.316,-1.26 3.131,-1.8901 5.354,-1.8901 0.59,0 1.135,0 1.588,0.045 0.499,0.0451 0.953,0.1351 1.452,0.2251 0.091,0.045 0.227,0.045 0.318,0.09 0.091,-0.045 0.181,0 0.318,0 z"
       fill="#333333"
       id="path12" />
    <path
       d="m 169.679,56.9229 h 8.486 v 2.2051 h -5.582 v 3.5102 h 5.037 v 2.1601 h -5.037 v 3.9603 h 5.582 v 2.2051 h -8.486 z"
       fill="#333333"
       id="path13" />
  </g>
  <defs
     id="defs13">
    <clipPath
       id="clip0">
      <rect
         width="208"
         height="128"
         fill="white"
         id="rect13" />
    </clipPath>
  </defs>
</svg>
