<?xml version="1.0" encoding="UTF-8" standalone="no"?>
<svg
   id="Layer_1"
   data-name="Layer 1"
   viewBox="0 0 1700 360.00001"
   version="1.1"
   sodipodi:docname="UbuntuKrTitleShort.svg"
   inkscape:version="1.1.2 (b8e25be833, 2022-02-05)"
   width="1700"
   height="360"
   xmlns:inkscape="http://www.inkscape.org/namespaces/inkscape"
   xmlns:sodipodi="http://sodipodi.sourceforge.net/DTD/sodipodi-0.dtd"
   xmlns:xlink="http://www.w3.org/1999/xlink"
   xmlns="http://www.w3.org/2000/svg"
   xmlns:svg="http://www.w3.org/2000/svg">
  <g
     aria-label="Ubuntu Korea"
     id="text3267"
     style="font-size:233.333px;line-height:1.25;stroke-width:5.11081">
    <path
       d="m 347.50949,328.81463 q -16.09998,0 -27.5333,-4.89999 -11.19998,-4.89999 -18.19997,-13.53332 -6.99999,-8.63332 -10.26665,-20.06663 -3.03333,-11.66665 -3.03333,-24.96663 V 163.61487 h 15.86664 v 99.63319 q 0,13.29998 3.03333,23.09997 3.26666,9.56665 8.86666,15.86664 5.59999,6.29999 13.53331,9.33332 7.93332,3.03333 17.73331,3.03333 9.79998,0 17.7333,-3.03333 7.93333,-3.03333 13.53332,-9.33332 5.59999,-6.29999 8.63332,-15.86664 3.26666,-9.79999 3.26666,-23.09997 v -99.63319 h 15.86664 v 101.73319 q 0,13.29998 -3.26666,24.96663 -3.03333,11.43331 -10.03332,20.06663 -6.99999,8.63333 -18.4333,13.53332 -11.19999,4.89999 -27.29996,4.89999 z"
       style="font-weight:300;font-family:Ubuntu;-inkscape-font-specification:'Ubuntu Light'"
       id="path23885" />
    <path
       d="m 462.07606,211.9148 q 3.96666,-3.03333 12.59998,-6.29999 8.86665,-3.49999 20.76663,-3.49999 13.06665,0 23.09997,4.66666 10.26665,4.66666 17.26664,13.06664 6.99999,8.39999 10.49999,20.06664 3.73332,11.43332 3.73332,25.19996 0,14.69998 -4.43332,26.36663 -4.2,11.66665 -12.13332,19.83331 -7.69999,8.16665 -18.66664,12.59998 -10.73332,4.19999 -24.0333,4.19999 -16.09997,0 -26.59996,-2.09999 -10.49998,-2.1 -17.26664,-4.43333 V 147.04823 l 15.16665,-2.8 z m 0,99.16652 q 3.49999,1.16667 10.26665,2.33333 6.99999,0.93334 18.19997,0.93334 19.59997,0 31.49995,-12.59999 11.89999,-12.83331 11.89999,-36.63328 0,-10.03331 -2.1,-18.89997 -2.1,-9.09998 -6.76666,-15.63331 -4.66666,-6.76666 -12.36665,-10.73332 -7.46665,-3.96666 -18.66663,-3.96666 -5.36666,0 -10.26666,1.16667 -4.89999,0.93333 -9.09998,2.56666 -4.2,1.63333 -7.46666,3.5 -3.03333,1.86666 -5.13332,3.49999 z"
       style="font-weight:300;font-family:Ubuntu;-inkscape-font-specification:'Ubuntu Light'"
       id="path23882" />
    <path
       d="m 675.57578,321.11464 q -6.76666,1.86667 -18.19997,4.2 -11.43332,2.33333 -27.99996,2.33333 -13.53331,0 -22.6333,-3.96666 -9.09999,-3.96667 -14.69998,-11.19999 -5.59999,-7.23332 -8.16665,-17.49997 -2.33333,-10.26665 -2.33333,-22.6333 v -67.66657 h 15.16664 v 62.76657 q 0,12.83332 1.86666,21.69997 1.86667,8.86666 6.06666,14.46665 4.2,5.36666 10.73332,7.93332 6.76666,2.33333 16.33331,2.33333 10.73332,0 18.66664,-1.16667 7.93332,-1.16666 10.03332,-2.09999 V 204.68148 h 15.16664 z"
       style="font-weight:300;font-family:Ubuntu;-inkscape-font-specification:'Ubuntu Light'"
       id="path23879" />
    <path
       d="m 715.70909,208.88147 q 6.76666,-1.86666 18.19998,-4.19999 11.43331,-2.33333 27.99996,-2.33333 13.76664,0 22.86663,3.96666 9.33332,3.96666 14.69998,11.43332 5.59999,7.23332 7.93332,17.49997 2.33333,10.26665 2.33333,22.6333 v 67.43324 h -15.16665 v -62.53325 q 0,-12.83331 -1.86666,-21.69996 -1.63333,-8.86666 -5.83332,-14.46665 -3.96666,-5.59999 -10.73332,-7.93332 -6.53333,-2.56666 -16.56664,-2.56666 -10.73332,0 -18.66664,1.16666 -7.69999,1.16667 -10.03332,2.1 v 105.93318 h -15.16665 z"
       style="font-weight:300;font-family:Ubuntu;-inkscape-font-specification:'Ubuntu Light'"
       id="path23876" />
    <path
       d="m 862.70895,204.68148 h 48.06659 v 12.83331 h -48.06659 v 64.16658 q 0,10.26665 1.63333,16.79997 1.86666,6.29999 5.13332,9.79999 3.26667,3.49999 7.93333,4.66666 4.66665,1.16666 10.26665,1.16666 9.56665,0 15.39997,-2.09999 5.83333,-2.33333 9.09999,-4.2 l 3.73333,12.59998 q -3.26666,2.1 -11.43332,4.9 -8.16665,2.56666 -17.73331,2.56666 -11.19998,0 -18.89997,-2.8 -7.46665,-3.03333 -12.13331,-8.86665 -4.43333,-6.06666 -6.29999,-14.93331 -1.86667,-8.86666 -1.86667,-20.99997 V 169.21486 l 15.16665,-2.79999 z"
       style="font-weight:300;font-family:Ubuntu;-inkscape-font-specification:'Ubuntu Light'"
       id="path23873" />
    <path
       d="m 1031.4085,321.11464 q -6.7666,1.86667 -18.2,4.2 -11.4333,2.33333 -27.99992,2.33333 -13.53331,0 -22.6333,-3.96666 -9.09998,-3.96667 -14.69998,-11.19999 -5.59999,-7.23332 -8.16665,-17.49997 -2.33333,-10.26665 -2.33333,-22.6333 v -67.66657 h 15.16664 v 62.76657 q 0,12.83332 1.86667,21.69997 1.86666,8.86666 6.06665,14.46665 4.2,5.36666 10.73332,7.93332 6.76666,2.33333 16.33331,2.33333 10.73332,0 18.66669,-1.16667 7.9333,-1.16666 10.0333,-2.09999 V 204.68148 h 15.1666 z"
       style="font-weight:300;font-family:Ubuntu;-inkscape-font-specification:'Ubuntu Light'"
       id="path23870" />
    <path
       d="m 1224.3751,325.31464 q -7.9333,-12.13332 -17.9666,-24.0333 -9.8,-11.89998 -20.7667,-22.39997 -10.9666,-10.49998 -22.3999,-19.1333 -11.2,-8.63333 -21.7,-14.46665 v 80.03322 h -15.8666 V 163.61487 h 15.8666 v 75.36656 q 8.8667,-7.93332 19.6,-18.19997 10.9666,-10.49999 21.4666,-20.99997 10.7333,-10.49999 20.0666,-20.06664 9.3334,-9.56665 14.9334,-16.09998 h 19.1333 q -6.7667,7.23333 -16.3333,17.26664 -9.5667,9.79999 -20.3,20.29997 -10.7333,10.49999 -21.4666,20.76664 -10.5,10.03332 -18.9,17.73331 6.7666,4.19999 14.4666,10.49998 7.9333,6.06666 15.8667,13.53332 8.1666,7.23332 15.8666,15.39997 7.9333,7.93333 14.7,16.09998 7,8.16665 12.3666,15.86664 5.6,7.69999 9.1,14.23332 z"
       style="font-weight:300;font-family:Ubuntu;-inkscape-font-specification:'Ubuntu Light'"
       id="path23867" />
    <path
       d="m 1365.0751,265.11472 q 0,14.23332 -4.2,25.89997 -3.9667,11.66665 -11.4333,19.8333 -7.2334,8.16666 -17.2667,12.83332 -10.0333,4.43332 -22.1666,4.43332 -12.1333,0 -22.1667,-4.43332 -10.0333,-4.66666 -17.4999,-12.83332 -7.2333,-8.16665 -11.4333,-19.8333 -3.9667,-11.66665 -3.9667,-25.89997 0,-14.23331 3.9667,-25.89996 4.2,-11.66665 11.4333,-19.8333 7.4666,-8.39999 17.4999,-12.83332 10.0334,-4.66666 22.1667,-4.66666 12.1333,0 22.1666,4.66666 10.0333,4.43333 17.2667,12.83332 7.4666,8.16665 11.4333,19.8333 4.2,11.66665 4.2,25.89996 z m -16.1,0 q 0,-22.6333 -10.5,-35.93328 -10.5,-13.53331 -28.4666,-13.53331 -17.9667,0 -28.4666,13.53331 -10.5,13.29998 -10.5,35.93328 0,22.6333 10.5,35.93329 10.4999,13.29998 28.4666,13.29998 17.9666,0 28.4666,-13.29998 10.5,-13.29999 10.5,-35.93329 z"
       style="font-weight:300;font-family:Ubuntu;-inkscape-font-specification:'Ubuntu Light'"
       id="path23864" />
    <path
       d="m 1439.0418,202.34815 q 7.4667,0 14,1.16666 6.7666,1.16667 9.3333,2.33333 l -3.0333,13.06665 q -1.8667,-0.93333 -7.7,-1.86666 -5.6,-1.16667 -14.9333,-1.16667 -9.8,0 -15.8667,1.4 -5.8333,1.4 -7.6999,2.33333 v 105.69985 h -15.1667 V 210.28147 q 5.8333,-2.56666 16.1,-5.13332 10.2666,-2.8 24.9666,-2.8 z"
       style="font-weight:300;font-family:Ubuntu;-inkscape-font-specification:'Ubuntu Light'"
       id="path23861" />
    <path
       d="m 1478.0085,264.88139 q 0,-15.86664 4.4333,-27.53329 4.6667,-11.89998 11.9,-19.83331 7.4667,-7.93332 16.8,-11.66665 9.5666,-3.96666 19.5999,-3.96666 22.1667,0 35.2333,14.46665 13.3,14.46664 13.3,44.5666 0,1.86666 -0.2333,3.73333 0,1.86666 -0.2334,3.49999 h -84.6998 q 0.7,22.16664 10.9666,34.06662 10.2667,11.89998 32.6666,11.89998 12.3667,0 19.6,-2.33333 7.2333,-2.33333 10.5,-3.96666 l 2.8,13.06665 q -3.2667,1.86666 -12.3667,4.43333 -8.8666,2.56666 -20.9999,2.56666 -15.8667,0 -27.0667,-4.66666 -11.1999,-4.66666 -18.4333,-13.06665 -7.2333,-8.39999 -10.5,-19.8333 -3.2666,-11.66665 -3.2666,-25.4333 z m 85.6332,-9.56665 q -0.4667,-18.89997 -8.8667,-29.39996 -8.3999,-10.49998 -23.7999,-10.49998 -8.1667,0 -14.7,3.26666 -6.3,3.26666 -11.2,8.86665 -4.6666,5.36666 -7.4666,12.59998 -2.5667,7.23333 -3.0334,15.16665 z"
       style="font-weight:300;font-family:Ubuntu;-inkscape-font-specification:'Ubuntu Light'"
       id="path23858" />
    <path
       d="m 1651.1417,314.34799 q 8.8666,0 15.3999,-0.46667 6.7667,-0.7 11.4334,-1.63333 v -42.46661 q -2.5667,-1.16666 -8.1667,-2.33333 -5.6,-1.39999 -15.4,-1.39999 -5.6,0 -11.6666,0.93333 -6.0667,0.7 -11.2,3.49999 -5.1333,2.56667 -8.4,7.23333 -3.2667,4.66666 -3.2667,12.36664 0,6.76666 2.1,11.43332 2.3334,4.66666 6.3,7.46666 4.2,2.79999 9.8,4.19999 5.8333,1.16667 13.0667,1.16667 z m -1.4,-112.46651 q 11.8999,0 20.0666,3.5 8.4,3.26666 13.5333,9.33332 5.1333,5.83332 7.4667,13.99998 2.3333,8.16665 2.3333,17.7333 v 76.06656 q -2.3333,0.7 -6.7667,1.63333 -4.4333,0.7 -10.2666,1.63333 -5.8333,0.93333 -13.0667,1.4 -6.9999,0.7 -14.4666,0.7 -9.5667,0 -17.7333,-2.1 -7.9333,-2.09999 -14,-6.53332 -5.8333,-4.66666 -9.3333,-11.66665 -3.2667,-7.23332 -3.2667,-17.49998 0,-9.79998 3.7334,-16.79997 3.7333,-6.99999 10.4999,-11.43332 6.7667,-4.66666 16.1,-6.76665 9.3333,-2.1 20.3,-2.1 3.2667,0 6.7666,0.46666 3.7334,0.23334 7,0.93334 3.5,0.46666 5.8334,1.16666 2.5666,0.46667 3.5,0.93333 v -7.46665 q 0,-6.29999 -0.9334,-12.13332 -0.9333,-6.06666 -4.2,-10.73332 -3.0333,-4.89999 -8.8666,-7.69998 -5.6,-3.03333 -14.9333,-3.03333 -13.3,0 -19.8333,1.86666 -6.5334,1.86666 -9.5667,3.03333 l -2.1,-13.29998 q 3.9667,-1.86666 12.1333,-3.5 8.4,-1.63333 20.0667,-1.63333 z"
       style="font-weight:300;font-family:Ubuntu;-inkscape-font-specification:'Ubuntu Light'"
       id="path23855" />
  </g>
  <sodipodi:namedview
     id="namedview33"
     pagecolor="#ffffff"
     bordercolor="#666666"
     borderopacity="1.0"
     inkscape:pageshadow="2"
     inkscape:pageopacity="0.0"
     inkscape:pagecheckerboard="0"
     showgrid="false"
     inkscape:zoom="1.5121113"
     inkscape:cx="484.42201"
     inkscape:cy="333.97013"
     inkscape:window-width="2880"
     inkscape:window-height="1514"
     inkscape:window-x="3373"
     inkscape:window-y="-11"
     inkscape:window-maximized="1"
     inkscape:current-layer="text3267" />
  <defs
     id="defs4">
    <style
       id="style2">.cls-1{fill:#1d1d1b;}.cls-2{fill:#e9500e;}.cls-3{fill:#fff;}</style>
    <linearGradient
       id="linearGradient2882"
       inkscape:swatch="solid">
      <stop
         style="stop-color:#ffffff;stop-opacity:1;"
         offset="0"
         id="stop2880" />
    </linearGradient>
    <linearGradient
       inkscape:collect="always"
       xlink:href="#linearGradient2882"
       id="linearGradient2884"
       x1="123.61589"
       y1="627.40137"
       x2="670.289"
       y2="627.40137"
       gradientUnits="userSpaceOnUse" />
  </defs>
  <rect
     class="cls-2"
     width="233.93118"
     height="360.27347"
     id="rect18"
     x="0"
     y="0" />
  <g
     id="g1045"
     transform="matrix(0.22517108,0,0,0.22517108,56.507438,186.40023)">
    <g
       id="g3233"
       transform="translate(-232.76557,-827.81681)"
       style="fill:#ffffff;fill-opacity:1">
      <circle
         class="cls-2"
         cx="226.58835"
         cy="1056.0741"
         r="109.02696"
         id="circle8"
         style="fill:#ffffff;fill-opacity:1" />
      <circle
         class="cls-2"
         cx="680.64508"
         cy="817.00696"
         r="109.02696"
         id="circle10"
         style="fill:#ffffff;fill-opacity:1" />
      <circle
         class="cls-2"
         cx="656.08185"
         cy="1337.2672"
         r="109.02696"
         id="circle14"
         style="fill:#ffffff;fill-opacity:1" />
    </g>
    <g
       id="g3087"
       transform="translate(-232.76557,-827.81681)"
       style="fill:#ffffff;fill-opacity:1">
      <path
         class="cls-2"
         d="m 472.48179,1336.6657 a 265.525,265.525 0 0 1 -181.07121,-138.0982 156.94811,156.94811 0 0 1 -93.21911,11.4584 354.9352,354.9352 0 0 0 255.53721,214.1645 359.21054,359.21054 0 0 0 77.41948,7.967 156.00315,156.00315 0 0 1 -31.92236,-91.1547 c -8.97973,-0.9975 -17.94861,-2.4547 -26.74401,-4.337 z"
         id="path12-8"
         style="fill:#ffffff;fill-opacity:1" />
      <path
         class="cls-2"
         d="m 807.7978,1297.2209 a 356.70056,356.70056 0 0 0 17.87488,-418.5189 157.14405,157.14405 0 0 1 -61.30976,71.80309 267.293,267.293 0 0 1 -8.73685,265.48841 156.34662,156.34662 0 0 1 52.17173,81.2274 z"
         id="path16-3"
         style="fill:#ffffff;fill-opacity:1" />
      <path
         class="cls-2"
         d="m 218.17628,899.71905 q 4.1505,-0.2277 8.30533,-0.22553 A 157.3464,157.3464 0 0 1 309.164,923.039 265.90648,265.90648 0 0 1 523.2722,808.52964 158.08773,158.08773 0 0 1 556.3482,720.1094 C 419.24532,709.25176 286.02405,780.001 218.17628,899.71905 Z"
         id="path18"
         style="fill:#ffffff;fill-opacity:1" />
    </g>
    <g
       id="g1520"
       transform="matrix(1.8074191,1.1283346,-1.1294007,1.8057128,276.76777,-138.84036)"
       style="fill:#e9500e;fill-opacity:1;stroke:#e9500e;stroke-width:9.38851;stroke-miterlimit:4;stroke-dasharray:none;stroke-opacity:1">
      <path
         id="path1101"
         style="fill:none;fill-opacity:1;stroke:#ffffff;stroke-width:35.4841;stroke-miterlimit:4;stroke-dasharray:none;stroke-opacity:1"
         d="m 396.84961,296.69336 a 264.56693,264.56693 0 0 0 -263.64063,249.46484 132.28346,132.28346 0 0 0 -0.20117,1.27344 132.28346,132.28346 0 0 0 -0.5332,6.7832 264.56693,264.56693 0 0 1 0.41797,-4.58789 132.28346,132.28346 0 0 0 -0.60938,11.63282 132.28346,132.28346 0 0 0 0.72461,13.82812 132.28346,132.28346 0 0 0 2.16602,13.67578 132.28346,132.28346 0 0 0 3.58398,13.37305 132.28346,132.28346 0 0 0 4.96289,12.92773 132.28346,132.28346 0 0 0 6.28516,12.33789 132.28346,132.28346 0 0 0 7.54102,11.61133 132.28346,132.28346 0 0 0 8.71484,10.76172 132.28346,132.28346 0 0 0 9.79101,9.79102 132.28346,132.28346 0 0 0 10.75977,8.71289 132.28346,132.28346 0 0 0 11.61328,7.54101 132.28346,132.28346 0 0 0 12.33594,6.28711 132.28346,132.28346 0 0 0 12.92773,4.96094 132.28346,132.28346 0 0 0 13.375,3.58398 132.28346,132.28346 0 0 0 13.67578,2.16602 132.28346,132.28346 0 0 0 13.82618,0.72461 132.28346,132.28346 0 0 0 13.82812,-0.72461 132.28346,132.28346 0 0 0 13.67578,-2.16602 132.28346,132.28346 0 0 0 13.375,-3.58398 132.28346,132.28346 0 0 0 12.92578,-4.96094 132.28346,132.28346 0 0 0 12.33789,-6.28711 132.28346,132.28346 0 0 0 11.61133,-7.54101 132.28346,132.28346 0 0 0 10.76172,-8.71289 132.28346,132.28346 0 0 0 9.79102,-9.79102 132.28346,132.28346 0 0 0 8.71289,-10.76172 132.28346,132.28346 0 0 0 7.54101,-11.61133 132.28346,132.28346 0 0 0 6.28711,-12.33789 132.28346,132.28346 0 0 0 4.96289,-12.92773 132.28346,132.28346 0 0 0 3.58203,-13.37305 132.28346,132.28346 0 0 0 2.16602,-13.67578 132.28346,132.28346 0 0 0 0.72461,-13.82812 132.28346,132.28346 0 0 1 2.54297,-25.80665 132.28346,132.28346 0 0 1 7.52734,-24.8164 132.28346,132.28346 0 0 1 12.22461,-22.86914 132.28346,132.28346 0 0 1 16.45117,-20.04688 132.28346,132.28346 0 0 1 20.04492,-16.45117 132.28346,132.28346 0 0 1 22.8711,-12.22461 132.28346,132.28346 0 0 1 24.81445,-7.52734 132.28346,132.28346 0 0 1 25.8086,-2.54102 132.28346,132.28346 0 0 1 9.02734,0.3086 132.28346,132.28346 0 0 1 8.98437,0.92382 132.28346,132.28346 0 0 1 8.9004,1.53516 132.28346,132.28346 0 0 1 8.77734,2.13672 132.28346,132.28346 0 0 1 8.60937,2.73437 132.28346,132.28346 0 0 1 8.40235,3.3125 132.28346,132.28346 0 0 1 8.15625,3.87891 132.28346,132.28346 0 0 1 7.875,4.42774 132.28346,132.28346 0 0 1 7.55273,4.95312 132.28346,132.28346 0 0 1 7.19727,5.45898 132.28346,132.28346 0 0 1 6.80664,5.93555 132.28346,132.28346 0 0 1 6.38672,6.38672 132.28346,132.28346 0 0 1 5.9375,6.80859 132.28346,132.28346 0 0 1 5.45703,7.19727 132.28346,132.28346 0 0 1 4.95508,7.55273 132.28346,132.28346 0 0 1 4.42578,7.87305 132.28346,132.28346 0 0 1 3.8789,8.1582 132.28346,132.28346 0 0 1 3.31446,8.40235 132.28346,132.28346 0 0 1 2.73242,8.60937 132.28346,132.28346 0 0 1 2.13867,8.77539 132.28346,132.28346 0 0 1 1.53516,8.90235 132.28346,132.28346 0 0 1 0.14257,1.38867 264.56693,264.56693 0 0 0 -263.47851,-247.94336 z m 263.47851,247.94336 a 264.56693,264.56693 0 0 1 1.08985,16.62305 132.28346,132.28346 0 0 0 -0.30859,-9.02735 132.28346,132.28346 0 0 0 -0.78126,-7.5957 z m -263.54296,12.46484 a 132.28346,132.28346 0 0 1 0.006,0.22461 132.28346,132.28346 0 0 0 -0.006,-0.22461 z m 0.0117,0.40821 a 132.28346,132.28346 0 0 1 0.004,0.14062 132.28346,132.28346 0 0 0 -0.004,-0.14062 z m 0.0312,1.38867 a 132.28346,132.28346 0 0 1 0.006,0.33789 132.28346,132.28346 0 0 0 -0.006,-0.33789 z m 0.0117,0.69531 a 132.28346,132.28346 0 0 1 0.002,0.20508 132.28346,132.28346 0 0 0 -0.002,-0.20508 z m 0.006,0.69336 a 132.28346,132.28346 0 0 1 0.002,0.13867 132.28346,132.28346 0 0 0 -0.002,-0.13867 z"
         transform="scale(0.26458333)" />
      <path
         id="path1285"
         style="fill:url(#linearGradient2884);fill-opacity:1;stroke:#ffffff;stroke-width:35.4841;stroke-miterlimit:4;stroke-dasharray:none;stroke-opacity:1"
         d="m 529.13477,428.97656 a 132.28346,132.28346 0 0 0 -25.8086,2.54102 132.28346,132.28346 0 0 0 -24.81445,7.52734 132.28346,132.28346 0 0 0 -22.8711,12.22461 132.28346,132.28346 0 0 0 -20.04492,16.45117 132.28346,132.28346 0 0 0 -16.45117,20.04688 132.28346,132.28346 0 0 0 -12.22461,22.86914 132.28346,132.28346 0 0 0 -7.52734,24.8164 132.28346,132.28346 0 0 0 -2.54297,25.80665 132.28346,132.28346 0 0 1 -0.72461,13.82812 132.28346,132.28346 0 0 1 -2.16602,13.67578 132.28346,132.28346 0 0 1 -3.58203,13.37305 132.28346,132.28346 0 0 1 -4.96289,12.92773 132.28346,132.28346 0 0 1 -6.28711,12.33789 132.28346,132.28346 0 0 1 -7.54101,11.61133 132.28346,132.28346 0 0 1 -8.71289,10.76172 132.28346,132.28346 0 0 1 -9.79102,9.79102 132.28346,132.28346 0 0 1 -10.76172,8.71289 132.28346,132.28346 0 0 1 -11.61133,7.54101 132.28346,132.28346 0 0 1 -12.33789,6.28711 132.28346,132.28346 0 0 1 -12.92578,4.96094 132.28346,132.28346 0 0 1 -13.375,3.58398 132.28346,132.28346 0 0 1 -13.67578,2.16602 132.28346,132.28346 0 0 1 -13.82812,0.72461 132.28346,132.28346 0 0 1 -13.82618,-0.72461 132.28346,132.28346 0 0 1 -13.67578,-2.16602 132.28346,132.28346 0 0 1 -13.375,-3.58398 132.28346,132.28346 0 0 1 -12.92773,-4.96094 132.28346,132.28346 0 0 1 -12.33594,-6.28711 132.28346,132.28346 0 0 1 -11.61328,-7.54101 132.28346,132.28346 0 0 1 -10.75977,-8.71289 132.28346,132.28346 0 0 1 -9.79101,-9.79102 132.28346,132.28346 0 0 1 -8.71484,-10.76172 132.28346,132.28346 0 0 1 -7.54102,-11.61133 132.28346,132.28346 0 0 1 -6.28516,-12.33789 132.28346,132.28346 0 0 1 -4.96289,-12.92773 132.28346,132.28346 0 0 1 -3.58398,-13.37305 132.28346,132.28346 0 0 1 -1.96485,-12.40234 264.56693,264.56693 0 0 0 263.64063,249.46484 264.56693,264.56693 0 0 0 263.55078,-249.03125 132.28346,132.28346 0 0 0 0.38086,-2.57031 132.28346,132.28346 0 0 0 0.63672,-12.96484 132.28346,132.28346 0 0 0 -0.30859,-9.02735 132.28346,132.28346 0 0 0 -0.92383,-8.98437 132.28346,132.28346 0 0 0 -1.53516,-8.90235 132.28346,132.28346 0 0 0 -2.13867,-8.77539 132.28346,132.28346 0 0 0 -2.73242,-8.60937 132.28346,132.28346 0 0 0 -3.31446,-8.40235 132.28346,132.28346 0 0 0 -3.8789,-8.1582 132.28346,132.28346 0 0 0 -4.42578,-7.87305 132.28346,132.28346 0 0 0 -4.95508,-7.55273 132.28346,132.28346 0 0 0 -5.45703,-7.19727 132.28346,132.28346 0 0 0 -5.9375,-6.80859 132.28346,132.28346 0 0 0 -6.38672,-6.38672 132.28346,132.28346 0 0 0 -6.80664,-5.93555 132.28346,132.28346 0 0 0 -7.19727,-5.45898 132.28346,132.28346 0 0 0 -7.55273,-4.95312 132.28346,132.28346 0 0 0 -7.875,-4.42774 132.28346,132.28346 0 0 0 -8.15625,-3.87891 132.28346,132.28346 0 0 0 -8.40235,-3.3125 132.28346,132.28346 0 0 0 -8.60937,-2.73437 132.28346,132.28346 0 0 0 -8.77734,-2.13672 132.28346,132.28346 0 0 0 -8.9004,-1.53516 132.28346,132.28346 0 0 0 -8.98437,-0.92382 132.28346,132.28346 0 0 0 -9.02734,-0.3086 z M 133.20898,576.36133 a 264.56693,264.56693 0 0 1 -0.73437,-8.05664 132.28346,132.28346 0 0 0 0.5332,6.7832 132.28346,132.28346 0 0 0 0.20117,1.27344 z"
         transform="scale(0.26458333)" />
    </g>
  </g>
</svg>
