<?xml version="1.0" encoding="UTF-8" standalone="no"?>
<!-- Created with Inkscape (http://www.inkscape.org/) -->

<svg
   width="200mm"
   height="100mm"
   viewBox="0 0 200 100"
   version="1.1"
   id="svg1"
   xmlns:inkscape="http://www.inkscape.org/namespaces/inkscape"
   xmlns:sodipodi="http://sodipodi.sourceforge.net/DTD/sodipodi-0.dtd"
   xmlns="http://www.w3.org/2000/svg"
   xmlns:svg="http://www.w3.org/2000/svg">
  <sodipodi:namedview
     id="namedview1"
     pagecolor="#ffffff"
     bordercolor="#000000"
     borderopacity="0.25"
     inkscape:showpageshadow="2"
     inkscape:pageopacity="0.0"
     inkscape:pagecheckerboard="0"
     inkscape:deskcolor="#d1d1d1"
     inkscape:document-units="mm" />
  <defs
     id="defs1" />
  <g
     inkscape:label="Layer 1"
     inkscape:groupmode="layer"
     id="layer1">
    <rect
       style="fill:none;stroke:#ffffff;stroke-width:0.2;stroke-dasharray:0.2, 0.4"
       id="rect1"
       width="195.39803"
       height="94.607857"
       x="2.622792"
       y="2.2481074" />
    <rect
       style="fill:#cccccc;stroke:#ffffff;stroke-width:0.199899;stroke-dasharray:0.199899, 0.3998"
       id="rect2"
       width="199.80011"
       height="99.800102"
       x="0.099949501"
       y="0.099949501" />
    <g
       id="text2"
       style="font-size:35.2778px;stroke:#ffffff;stroke-width:0.2;stroke-dasharray:0.2, 0.4"
       aria-label="Sponsor&#10;Logo here">
      <path
         style="font-weight:bold;font-family:Ubuntu;-inkscape-font-specification:Ubuntu;text-align:center;text-anchor:middle"
         d="m 40.151135,32.587548 q 1.164167,0 1.905001,-0.176389 0.776112,-0.211667 1.234723,-0.529167 0.458612,-0.352778 0.635001,-0.811389 0.176389,-0.458612 0.176389,-1.023057 0,-1.199445 -1.12889,-1.975557 -1.12889,-0.811389 -3.880558,-1.728612 -1.199445,-0.423333 -2.398891,-0.952501 -1.199445,-0.564444 -2.151945,-1.375834 -0.952501,-0.846667 -1.552224,-2.010834 -0.599722,-1.199446 -0.599722,-2.89278 0,-1.693335 0.635,-3.033891 0.635001,-1.375834 1.799168,-2.328335 1.164167,-0.952501 2.822224,-1.44639 1.658057,-0.529167 3.739447,-0.529167 2.469446,0 4.268614,0.529167 1.799168,0.529167 2.963335,1.164168 l -1.587501,4.339169 q -1.023056,-0.529167 -2.293057,-0.917223 -1.234723,-0.423333 -2.998613,-0.423333 -1.975557,0 -2.857502,0.564445 -0.846667,0.529167 -0.846667,1.658056 0,0.670278 0.3175,1.12889 0.3175,0.458611 0.881945,0.846667 0.599723,0.352778 1.340557,0.670278 0.776111,0.282223 1.693334,0.599723 1.905001,0.705556 3.316113,1.411112 1.411112,0.670278 2.328335,1.587501 0.952501,0.917223 1.411112,2.151946 0.458612,1.234723 0.458612,2.998613 0,3.421947 -2.398891,5.326948 -2.39889,1.869724 -7.231949,1.869724 -1.622779,0 -2.928058,-0.211667 -1.305278,-0.176389 -2.328334,-0.458612 -0.987779,-0.282222 -1.728613,-0.599722 -0.705556,-0.3175 -1.199445,-0.599723 l 1.552223,-4.374447 q 1.093612,0.599722 2.681113,1.093612 1.622779,0.458611 3.951114,0.458611 z m 25.400042,-4.938892 q 0,-2.434169 -1.093611,-3.880558 -1.093612,-1.481668 -3.245558,-1.481668 -0.705556,0 -1.305279,0.07056 -0.599722,0.03528 -0.987778,0.105833 v 9.489729 q 0.493889,0.3175 1.270001,0.529167 0.811389,0.211666 1.622778,0.211666 3.739447,0 3.739447,-5.044725 z m 5.362226,-0.141111 q 0,2.151945 -0.529167,3.915836 -0.529167,1.76389 -1.552223,3.03389 -1.023056,1.270001 -2.540002,1.975557 -1.516945,0.705556 -3.492502,0.705556 -1.093612,0 -2.046113,-0.211666 -0.9525,-0.211667 -1.834445,-0.599723 V 43.312 H 53.662558 V 18.864483 q 0.705556,-0.211667 1.622779,-0.388056 0.917223,-0.211666 1.905001,-0.352778 1.023057,-0.141111 2.046113,-0.211666 1.058334,-0.105834 2.010835,-0.105834 2.293057,0 4.092225,0.705556 1.799168,0.670278 3.033891,1.940279 1.234723,1.234723 1.869723,3.033891 0.670278,1.799168 0.670278,4.02167 z m 21.413628,-0.03528 q 0,2.187223 -0.635,4.021669 -0.635001,1.799168 -1.834446,3.104447 -1.199445,1.270001 -2.89278,1.975557 -1.658056,0.705556 -3.739447,0.705556 -2.046112,0 -3.739446,-0.705556 -1.658057,-0.705556 -2.857502,-1.975557 -1.199446,-1.305279 -1.869724,-3.104447 -0.670278,-1.834446 -0.670278,-4.021669 0,-2.187224 0.670278,-3.986392 0.705556,-1.799168 1.905001,-3.069169 1.234723,-1.27 2.89278,-1.975556 1.693335,-0.705556 3.668891,-0.705556 2.010835,0 3.668892,0.705556 1.693334,0.705556 2.89278,1.975556 1.199445,1.270001 1.869723,3.069169 0.670278,1.799168 0.670278,3.986392 z m -5.362226,0 q 0,-2.434169 -0.987778,-3.810003 -0.952501,-1.411112 -2.751669,-1.411112 -1.799167,0 -2.786946,1.411112 -0.987778,1.375834 -0.987778,3.810003 0,2.434168 0.987778,3.880558 0.987779,1.411112 2.786946,1.411112 1.799168,0 2.751669,-1.411112 0.987778,-1.44639 0.987778,-3.880558 z m 9.419183,-8.607784 q 1.340557,-0.388056 3.457225,-0.705556 2.116667,-0.352778 4.445007,-0.352778 2.36361,0 3.91583,0.635001 1.5875,0.599722 2.50473,1.728612 0.91722,1.12889 1.30527,2.681113 0.38806,1.552223 0.38806,3.457224 v 10.477507 h -5.25639 V 26.9431 q 0,-2.540002 -0.67028,-3.598336 -0.67028,-1.058334 -2.50472,-1.058334 -0.56445,0 -1.19945,0.07056 -0.635,0.03528 -1.12889,0.105833 V 36.78561 H 96.383988 Z M 122.48958,33.01088 q 1.44639,0 2.04612,-0.282223 0.59972,-0.282222 0.59972,-1.093612 0,-0.635 -0.77611,-1.093611 -0.77611,-0.49389 -2.36361,-1.093612 -1.23473,-0.458612 -2.25778,-0.952501 -0.98778,-0.493889 -1.69334,-1.164167 -0.70555,-0.705556 -1.09361,-1.658057 -0.38806,-0.952501 -0.38806,-2.293057 0,-2.610558 1.94028,-4.127503 1.94028,-1.516945 5.32695,-1.516945 1.69334,0 3.24556,0.3175 1.55222,0.282222 2.46944,0.635 l -0.91722,4.092225 q -0.91722,-0.3175 -2.01083,-0.564445 -1.05834,-0.246944 -2.39889,-0.246944 -2.46945,0 -2.46945,1.375834 0,0.3175 0.10583,0.564445 0.10584,0.246944 0.42334,0.493889 0.3175,0.211667 0.84666,0.493889 0.56445,0.246945 1.41112,0.564445 1.72861,0.635001 2.8575,1.270001 1.12889,0.599723 1.76389,1.340556 0.67028,0.705556 0.91722,1.587501 0.28222,0.881946 0.28222,2.046113 0,2.751668 -2.08139,4.162781 -2.04611,1.411112 -5.82083,1.411112 -2.46945,0 -4.12751,-0.423334 -1.62277,-0.423334 -2.25778,-0.705556 l 0.88195,-4.268614 q 1.34056,0.529167 2.75167,0.846667 1.41111,0.282223 2.78694,0.282223 z m 29.13949,-5.538615 q 0,2.187223 -0.635,4.021669 -0.635,1.799168 -1.83444,3.104447 -1.19945,1.270001 -2.89278,1.975557 -1.65806,0.705556 -3.73945,0.705556 -2.04611,0 -3.73945,-0.705556 -1.65806,-0.705556 -2.8575,-1.975557 -1.19945,-1.305279 -1.86972,-3.104447 -0.67028,-1.834446 -0.67028,-4.021669 0,-2.187224 0.67028,-3.986392 0.70555,-1.799168 1.905,-3.069169 1.23472,-1.27 2.89278,-1.975556 1.69333,-0.705556 3.66889,-0.705556 2.01083,0 3.66889,0.705556 1.69333,0.705556 2.89278,1.975556 1.19944,1.270001 1.86972,3.069169 0.67028,1.799168 0.67028,3.986392 z m -5.36222,0 q 0,-2.434169 -0.98778,-3.810003 -0.9525,-1.411112 -2.75167,-1.411112 -1.79917,0 -2.78695,1.411112 -0.98778,1.375834 -0.98778,3.810003 0,2.434168 0.98778,3.880558 0.98778,1.411112 2.78695,1.411112 1.79917,0 2.75167,-1.411112 0.98778,-1.44639 0.98778,-3.880558 z m 20.60224,-4.586114 q -0.70555,-0.176389 -1.65806,-0.352778 -0.9525,-0.211667 -2.04611,-0.211667 -0.49389,0 -1.19944,0.105833 -0.67028,0.07056 -1.02306,0.176389 v 14.181676 h -5.25639 V 19.217261 q 1.41111,-0.493889 3.31611,-0.917223 1.94028,-0.458611 4.30389,-0.458611 0.42334,0 1.02306,0.07056 0.59972,0.03528 1.19944,0.141111 0.59973,0.07055 1.19945,0.211667 0.59972,0.105833 1.02306,0.282222 z"
         id="path3" />
      <path
         style="font-weight:bold;font-family:Ubuntu;-inkscape-font-specification:Ubuntu;text-align:center;text-anchor:middle"
         d="m 34.224518,76.8669 v 4.727225 H 17.890896 V 57.146609 h 5.503337 V 76.8669 Z m 20.531671,-4.586115 q 0,2.187224 -0.635,4.02167 -0.635001,1.799168 -1.834446,3.104446 -1.199445,1.270001 -2.89278,1.975557 -1.658056,0.705556 -3.739447,0.705556 -2.046112,0 -3.739447,-0.705556 -1.658056,-0.705556 -2.857502,-1.975557 -1.199445,-1.305278 -1.869723,-3.104446 -0.670278,-1.834446 -0.670278,-4.02167 0,-2.187223 0.670278,-3.986391 0.705556,-1.799168 1.905001,-3.069169 1.234723,-1.270001 2.89278,-1.975557 1.693334,-0.705556 3.668891,-0.705556 2.010835,0 3.668892,0.705556 1.693334,0.705556 2.892779,1.975557 1.199446,1.270001 1.869724,3.069169 0.670278,1.799168 0.670278,3.986391 z m -5.362226,0 q 0,-2.434168 -0.987778,-3.810002 -0.952501,-1.411112 -2.751669,-1.411112 -1.799168,0 -2.786946,1.411112 -0.987778,1.375834 -0.987778,3.810002 0,2.434169 0.987778,3.880559 0.987778,1.411112 2.786946,1.411112 1.799168,0 2.751669,-1.411112 0.987778,-1.44639 0.987778,-3.880559 z m 13.899468,-0.564444 q 0,4.409725 3.563058,4.409725 0.811389,0 1.516945,-0.211667 0.705556,-0.211667 1.199445,-0.493889 V 67.024393 Q 69.184823,66.953833 68.655656,66.91856 68.126489,66.848 67.420933,66.848 q -2.08139,0 -3.104446,1.375834 -1.023056,1.375835 -1.023056,3.492503 z m 11.535841,7.549449 q 0,4.550837 -2.328335,6.73806 -2.293057,2.222502 -7.126116,2.222502 -1.693335,0 -3.386669,-0.3175 -1.693335,-0.282223 -3.139724,-0.776112 l 0.917222,-4.409725 q 1.234724,0.493889 2.57528,0.776111 1.375834,0.282223 3.104446,0.282223 2.25778,0 3.175003,-0.987779 0.9525,-0.987778 0.9525,-2.540001 V 79.58329 q -0.846667,0.388056 -1.76389,0.599723 -0.881945,0.176389 -1.940279,0.176389 -3.84528,0 -5.891393,-2.257779 -2.046112,-2.293057 -2.046112,-6.385282 0,-2.046113 0.635,-3.70417 0.635001,-1.693334 1.834446,-2.892779 1.234723,-1.199446 2.998613,-1.834446 1.76389,-0.670278 3.986392,-0.670278 0.9525,0 1.940279,0.105833 1.023056,0.07056 2.010834,0.211667 0.987779,0.141111 1.869724,0.352778 0.917223,0.176389 1.622779,0.388056 z m 22.295566,-6.985005 q 0,2.187224 -0.635001,4.02167 -0.635,1.799168 -1.834445,3.104446 -1.199446,1.270001 -2.89278,1.975557 -1.658057,0.705556 -3.739447,0.705556 -2.046113,0 -3.739447,-0.705556 -1.658057,-0.705556 -2.857502,-1.975557 -1.199445,-1.305278 -1.869724,-3.104446 -0.670278,-1.834446 -0.670278,-4.02167 0,-2.187223 0.670278,-3.986391 0.705556,-1.799168 1.905002,-3.069169 1.234723,-1.270001 2.892779,-1.975557 1.693335,-0.705556 3.668892,-0.705556 2.010835,0 3.668891,0.705556 1.693335,0.705556 2.89278,1.975557 1.199445,1.270001 1.869723,3.069169 0.670279,1.799168 0.670279,3.986391 z m -5.362226,0 q 0,-2.434168 -0.987779,-3.810002 -0.9525,-1.411112 -2.751668,-1.411112 -1.799168,0 -2.786946,1.411112 -0.987779,1.375834 -0.987779,3.810002 0,2.434169 0.987779,3.880559 0.987778,1.411112 2.786946,1.411112 1.799168,0 2.751668,-1.411112 0.987779,-1.44639 0.987779,-3.880559 z m 17.885848,9.31334 V 55.065218 l 5.25639,-0.846667 v 8.890006 q 0.52917,-0.176389 1.34056,-0.3175 0.84667,-0.176389 1.62278,-0.176389 2.25778,0 3.73945,0.635 1.51694,0.599723 2.39889,1.728613 0.91722,1.128889 1.27,2.681112 0.38805,1.552224 0.38805,3.457225 v 10.477507 h -5.25639 v -9.842507 q 0,-2.540001 -0.67028,-3.598335 -0.635,-1.058334 -2.39889,-1.058334 -0.70555,0 -1.34055,0.141111 -0.59973,0.105833 -1.09362,0.246944 v 14.111121 z m 19.89671,-9.136951 q 0,-2.469446 0.74083,-4.303891 0.77611,-1.869724 2.01083,-3.104447 1.23473,-1.234723 2.82223,-1.869723 1.62278,-0.635001 3.31611,-0.635001 3.95111,0 6.24417,2.434169 2.29306,2.39889 2.29306,7.090838 0,0.458611 -0.0353,1.023056 -0.0353,0.529167 -0.0705,0.952501 h -11.9239 q 0.17639,1.622778 1.51694,2.575279 1.34056,0.952501 3.59834,0.952501 1.44639,0 2.82222,-0.246945 1.41112,-0.282222 2.29306,-0.670278 l 0.70556,4.268614 q -0.42334,0.211667 -1.12889,0.423333 -0.70556,0.211667 -1.5875,0.352778 -0.84667,0.176389 -1.83445,0.282223 -0.98778,0.105833 -1.97556,0.105833 -2.50472,0 -4.37444,-0.740834 -1.83445,-0.740833 -3.06917,-2.010834 -1.19945,-1.305279 -1.79917,-3.069169 -0.56444,-1.76389 -0.56444,-3.810003 z M 141.8924,70.44634 q -0.0353,-0.670278 -0.24695,-1.305279 -0.17639,-0.635 -0.59972,-1.12889 -0.38806,-0.493889 -1.02306,-0.811389 -0.59972,-0.3175 -1.51694,-0.3175 -0.88195,0 -1.51695,0.3175 -0.635,0.282222 -1.05833,0.776112 -0.42334,0.493889 -0.67028,1.164167 -0.21167,0.635001 -0.3175,1.305279 z m 20.31999,-2.751669 q -0.70555,-0.176389 -1.65805,-0.352778 -0.95251,-0.211667 -2.04612,-0.211667 -0.49389,0 -1.19944,0.105834 -0.67028,0.07055 -1.02306,0.176389 v 14.181676 h -5.25639 V 64.02578 q 1.41111,-0.493889 3.31611,-0.917223 1.94028,-0.458611 4.30389,-0.458611 0.42334,0 1.02306,0.07055 0.59972,0.03528 1.19945,0.141111 0.59972,0.07056 1.19944,0.211667 0.59972,0.105834 1.02306,0.282223 z m 2.46948,4.762503 q 0,-2.469446 0.74083,-4.303891 0.77611,-1.869724 2.01084,-3.104447 1.23472,-1.234723 2.82222,-1.869723 1.62278,-0.635001 3.31611,-0.635001 3.95112,0 6.24418,2.434169 2.29305,2.39889 2.29305,7.090838 0,0.458611 -0.0353,1.023056 -0.0353,0.529167 -0.0706,0.952501 h -11.9239 q 0.17639,1.622778 1.51695,2.575279 1.34055,0.952501 3.59833,0.952501 1.44639,0 2.82223,-0.246945 1.41111,-0.282222 2.29305,-0.670278 l 0.70556,4.268614 q -0.42333,0.211667 -1.12889,0.423333 -0.70556,0.211667 -1.5875,0.352778 -0.84667,0.176389 -1.83445,0.282223 -0.98777,0.105833 -1.97555,0.105833 -2.50473,0 -4.37445,-0.740834 -1.83445,-0.740833 -3.06917,-2.010834 -1.19944,-1.305279 -1.79917,-3.069169 -0.56444,-1.76389 -0.56444,-3.810003 z M 177.0291,70.44634 q -0.0353,-0.670278 -0.24695,-1.305279 -0.17638,-0.635 -0.59972,-1.12889 -0.38805,-0.493889 -1.02305,-0.811389 -0.59973,-0.3175 -1.51695,-0.3175 -0.88194,0 -1.51695,0.3175 -0.635,0.282222 -1.05833,0.776112 -0.42333,0.493889 -0.67028,1.164167 -0.21166,0.635001 -0.3175,1.305279 z"
         id="path4" />
    </g>
  </g>
</svg>
