<?xml version="1.0" encoding="UTF-8" standalone="no"?>
<svg
   id="Layer_1"
   data-name="Layer 1"
   viewBox="0 0 1697.4373 398.54327"
   version="1.1"
   width="1697.4373"
   height="398.54327"
   xml:space="preserve"
   sodipodi:docname="UbuntuIndia.svg"
   inkscape:version="1.3.1 (9b9bdc1480, 2023-11-25, custom)"
   xmlns:inkscape="http://www.inkscape.org/namespaces/inkscape"
   xmlns:sodipodi="http://sodipodi.sourceforge.net/DTD/sodipodi-0.dtd"
   xmlns:xlink="http://www.w3.org/1999/xlink"
   xmlns="http://www.w3.org/2000/svg"
   xmlns:svg="http://www.w3.org/2000/svg"><sodipodi:namedview
     id="namedview1"
     pagecolor="#ffffff"
     bordercolor="#000000"
     borderopacity="0.25"
     inkscape:showpageshadow="2"
     inkscape:pageopacity="0.0"
     inkscape:pagecheckerboard="0"
     inkscape:deskcolor="#d1d1d1"
     inkscape:zoom="0.67336804"
     inkscape:cx="848.71863"
     inkscape:cy="199.74218"
     inkscape:window-width="1850"
     inkscape:window-height="1043"
     inkscape:window-x="0"
     inkscape:window-y="0"
     inkscape:window-maximized="1"
     inkscape:current-layer="Layer_1" /><defs
     id="defs1"><rect
       x="397.58719"
       y="-107.01033"
       width="56.907291"
       height="18.977751"
       id="rect20" /><style
       id="style1">
      .cls-1 {
        fill: none;
      }

      .cls-2 {
        fill: #e95420;
      }

      .cls-3 {
        fill: #fff;
      }
    </style><linearGradient
       id="linearGradient2882"><stop
         style="stop-color:#ffffff;stop-opacity:1;"
         offset="0"
         id="stop2880" /></linearGradient><linearGradient
       id="linearGradient872"><stop
         style="stop-color:#e9500e;stop-opacity:1;"
         offset="0"
         id="stop870" /></linearGradient><style
       id="style2">.cls-1{fill:#e9500e;}.cls-2{fill:#fff;}</style><circle
       id="c"
       cx="450"
       cy="250"
       r="10" /></defs><g
     id="g6"
     style="fill:#ffffff;fill-opacity:1"
     transform="translate(0.65114033,-1.3405175)"><path
       d="m 381.86,354.01 c -11.69,0 -21.64,-1.78 -29.85,-5.33 -8.22,-3.56 -14.86,-8.47 -19.94,-14.74 -5.08,-6.26 -8.77,-13.59 -11.05,-21.98 -2.29,-8.38 -3.43,-17.4 -3.43,-27.06 V 174.13 h 17.28 v 108.49 c 0,9.65 1.14,18 3.43,25.03 2.29,7.03 5.46,12.83 9.53,17.4 4.06,4.57 8.98,7.96 14.74,10.16 5.76,2.21 12.2,3.3 19.31,3.3 7.11,0 13.55,-1.1 19.31,-3.3 5.76,-2.2 10.67,-5.59 14.74,-10.16 4.07,-4.57 7.24,-10.37 9.53,-17.4 2.29,-7.03 3.43,-15.37 3.43,-25.03 V 174.13 h 17.28 V 284.9 c 0,9.66 -1.14,18.67 -3.43,27.06 -2.29,8.38 -5.97,15.71 -11.05,21.98 -5.08,6.27 -11.73,11.18 -19.94,14.74 -8.22,3.56 -18.17,5.33 -29.85,5.33 z"
       id="path1"
       style="fill:#ffffff;fill-opacity:1" /><path
       d="m 500.61,226.73 c 2.88,-2.2 7.49,-4.53 13.85,-6.99 6.35,-2.45 13.85,-3.68 22.48,-3.68 9.48,0 17.91,1.69 25.28,5.08 7.37,3.39 13.59,8.13 18.67,14.23 5.08,6.1 8.93,13.34 11.56,21.72 2.62,8.38 3.94,17.57 3.94,27.56 0,10.67 -1.57,20.24 -4.7,28.71 -3.14,8.47 -7.54,15.67 -13.21,21.59 -5.68,5.93 -12.45,10.46 -20.33,13.59 -7.88,3.13 -16.64,4.7 -26.3,4.7 -11.69,0 -21.34,-0.76 -28.96,-2.29 -7.62,-1.52 -13.89,-3.13 -18.8,-4.83 V 156.08 l 16.51,-3.05 v 73.68 z m 0,107.98 c 2.54,0.85 6.31,1.65 11.31,2.41 4.99,0.76 11.56,1.14 19.69,1.14 14.23,0 25.66,-4.61 34.3,-13.85 8.64,-9.23 12.96,-22.48 12.96,-39.76 0,-7.28 -0.76,-14.18 -2.29,-20.71 -1.52,-6.52 -3.98,-12.2 -7.37,-17.02 -3.39,-4.83 -7.84,-8.68 -13.34,-11.56 -5.51,-2.88 -12.32,-4.32 -20.45,-4.32 -3.9,0 -7.62,0.38 -11.18,1.14 -3.56,0.76 -6.86,1.74 -9.91,2.92 -3.05,1.19 -5.72,2.46 -8,3.81 -2.29,1.36 -4.19,2.63 -5.72,3.81 v 91.97 z"
       id="path2"
       style="fill:#ffffff;fill-opacity:1" /><path
       d="m 726.96,345.63 c -4.91,1.36 -11.52,2.88 -19.82,4.57 -8.3,1.69 -18.46,2.54 -30.49,2.54 -9.83,0 -18.04,-1.44 -24.64,-4.32 -6.61,-2.88 -11.94,-6.94 -16.01,-12.2 -4.06,-5.25 -6.99,-11.6 -8.76,-19.05 -1.78,-7.45 -2.67,-15.67 -2.67,-24.64 v -73.68 h 16.51 v 68.34 c 0,9.32 0.68,17.19 2.03,23.63 1.35,6.44 3.56,11.65 6.61,15.62 3.05,3.98 6.99,6.86 11.81,8.64 4.83,1.78 10.71,2.67 17.66,2.67 7.79,0 14.56,-0.42 20.33,-1.27 5.76,-0.85 9.4,-1.61 10.92,-2.29 V 218.84 h 16.51 v 126.78 z"
       id="path3"
       style="fill:#ffffff;fill-opacity:1" /><path
       d="m 763.38,223.43 c 4.91,-1.35 11.52,-2.88 19.82,-4.57 8.3,-1.69 18.46,-2.54 30.49,-2.54 9.99,0 18.33,1.44 25.03,4.32 6.69,2.88 12.02,6.99 16.01,12.32 3.98,5.34 6.82,11.73 8.51,19.18 1.69,7.46 2.54,15.67 2.54,24.64 v 73.42 h -16.51 v -68.09 c 0,-9.31 -0.64,-17.19 -1.91,-23.63 -1.27,-6.44 -3.39,-11.69 -6.35,-15.75 -2.96,-4.06 -6.86,-6.99 -11.69,-8.77 -4.83,-1.78 -10.88,-2.67 -18.17,-2.67 -7.79,0 -14.53,0.43 -20.2,1.27 -5.68,0.85 -9.36,1.61 -11.05,2.29 V 350.19 H 763.39 V 223.41 Z"
       id="path4"
       style="fill:#ffffff;fill-opacity:1" /><path
       d="m 916.61,218.85 h 52.34 v 13.97 h -52.34 v 69.87 c 0,7.46 0.63,13.51 1.91,18.17 1.27,4.66 3.09,8.26 5.46,10.8 2.37,2.54 5.25,4.24 8.64,5.08 3.39,0.85 7.11,1.27 11.18,1.27 6.94,0 12.53,-0.8 16.77,-2.41 4.23,-1.61 7.53,-3.09 9.91,-4.45 l 4.07,13.72 c -2.37,1.52 -6.52,3.26 -12.45,5.21 -5.93,1.95 -12.37,2.92 -19.31,2.92 -8.13,0 -14.95,-1.06 -20.45,-3.18 -5.51,-2.12 -9.91,-5.34 -13.21,-9.65 -3.3,-4.31 -5.63,-9.69 -6.99,-16.13 -1.36,-6.44 -2.03,-14.06 -2.03,-22.87 V 180.23 l 16.51,-3.05 v 41.67 z"
       id="path5"
       style="fill:#ffffff;fill-opacity:1" /><path
       d="m 1094.4,345.63 c -4.91,1.36 -11.52,2.88 -19.82,4.57 -8.3,1.69 -18.46,2.54 -30.49,2.54 -9.83,0 -18.04,-1.44 -24.64,-4.32 -6.61,-2.88 -11.94,-6.94 -16.01,-12.2 -4.06,-5.25 -6.99,-11.6 -8.76,-19.05 -1.78,-7.45 -2.67,-15.67 -2.67,-24.64 v -73.68 h 16.51 v 68.34 c 0,9.32 0.68,17.19 2.03,23.63 1.35,6.44 3.56,11.65 6.61,15.62 3.05,3.98 6.99,6.86 11.81,8.64 4.83,1.78 10.71,2.67 17.66,2.67 7.79,0 14.56,-0.42 20.33,-1.27 5.76,-0.85 9.4,-1.61 10.92,-2.29 V 218.84 h 16.51 v 126.78 z"
       id="path6"
       style="fill:#ffffff;fill-opacity:1" /></g><path
     style="font-weight:300;font-family:Ubuntu;-inkscape-font-specification:'Ubuntu Light';white-space:pre;inline-size:139.439;fill:#ffffff;stroke:#000000;stroke-width:0;stroke-miterlimit:11.6"
     d="m 400.78927,-107.13641 v -8.316 h 0.768 v 8.316 z m 2.89198,0 v -5.976 q 0.36,-0.096 0.948,-0.216 0.588,-0.12 1.392,-0.12 0.96,0 1.488,0.348 0.528,0.348 0.744,0.996 0.216,0.636 0.216,1.512 v 3.456 h -0.732 v -3.216 q 0,-0.876 -0.168,-1.404 -0.156,-0.54 -0.552,-0.792 -0.384,-0.252 -1.092,-0.252 -0.54,0 -0.96,0.084 -0.42,0.072 -0.552,0.108 v 5.472 z m 9.456,0.12 q -0.912,0 -1.596,-0.384 -0.684,-0.384 -1.056,-1.104 -0.372,-0.732 -0.372,-1.728 0,-0.972 0.324,-1.692 0.336,-0.732 0.96,-1.14 0.636,-0.408 1.5,-0.408 0.552,0 1.008,0.168 0.456,0.168 0.72,0.36 v -3.372 l 0.732,-0.132 v 9.108 q -0.24,0.084 -0.576,0.156 -0.324,0.072 -0.732,0.12 -0.408,0.048 -0.912,0.048 z m 0.048,-0.66 q 0.492,0 0.864,-0.048 0.372,-0.06 0.576,-0.12 v -4.392 q -0.252,-0.216 -0.696,-0.384 -0.432,-0.18 -0.96,-0.18 -0.54,0 -0.948,0.192 -0.396,0.18 -0.648,0.528 -0.252,0.336 -0.372,0.816 -0.12,0.468 -0.12,1.02 0,0.816 0.276,1.392 0.276,0.564 0.792,0.876 0.516,0.3 1.236,0.3 z m 4.24798,0.54 v -6.192 h 0.732 v 6.192 z m 0.372,-7.62 q -0.228,0 -0.396,-0.156 -0.156,-0.156 -0.156,-0.42 0,-0.252 0.156,-0.408 0.168,-0.156 0.396,-0.156 0.228,0 0.384,0.156 0.168,0.156 0.168,0.408 0,0.264 -0.168,0.42 -0.156,0.156 -0.384,0.156 z m 4.33198,7.728 q -0.708,0 -1.236,-0.192 -0.528,-0.204 -0.816,-0.624 -0.288,-0.432 -0.288,-1.116 0,-0.648 0.312,-1.068 0.312,-0.42 0.888,-0.612 0.588,-0.204 1.368,-0.204 0.348,0 0.732,0.06 0.384,0.06 0.54,0.132 v -0.396 q 0,-0.516 -0.132,-0.912 -0.12,-0.408 -0.468,-0.636 -0.336,-0.228 -0.972,-0.228 -0.576,0 -0.948,0.096 -0.36,0.084 -0.552,0.156 l -0.096,-0.636 q 0.252,-0.108 0.672,-0.18 0.42,-0.084 0.984,-0.084 0.816,0 1.296,0.288 0.492,0.276 0.708,0.792 0.228,0.504 0.228,1.188 v 3.9 q -0.312,0.084 -0.924,0.18 -0.6,0.096 -1.296,0.096 z m 0.108,-0.636 q 0.396,0 0.756,-0.036 0.36,-0.036 0.636,-0.096 v -2.244 q -0.18,-0.072 -0.492,-0.132 -0.312,-0.06 -0.756,-0.06 -0.492,0 -0.912,0.108 -0.42,0.108 -0.684,0.384 -0.252,0.276 -0.252,0.78 0,0.696 0.444,0.996 0.444,0.3 1.26,0.3 z"
     id="text19"
     transform="matrix(21.228186,0,0,21.228186,-7313.6997,2625.0257)"
     aria-label="India" /><text
     xml:space="preserve"
     id="text20"
     style="font-style:normal;font-variant:normal;font-weight:normal;font-stretch:normal;font-family:Ubuntu;-inkscape-font-specification:Ubuntu;white-space:pre;shape-inside:url(#rect20);display:inline;fill:#cccccc;stroke:#47dfc5"
     transform="translate(0.65114033,-1.3405175)" /><g
     id="g20"
     transform="scale(0.24908955)"><rect
       class="cls-1"
       width="1038.9049"
       height="1600"
       id="rect6"
       x="0"
       y="0" /><g
       id="g3233"><circle
         class="cls-2"
         cx="226.58835"
         cy="1056.0741"
         r="109.02696"
         id="circle8" /><circle
         class="cls-2"
         cx="680.64508"
         cy="817.00696"
         r="109.02696"
         id="circle10" /><circle
         class="cls-2"
         cx="656.08185"
         cy="1337.2672"
         r="109.02696"
         id="circle14" /></g><g
       id="g3087"><path
         class="cls-2"
         d="m 472.48179,1336.6657 a 265.525,265.525 0 0 1 -181.07121,-138.0982 156.94811,156.94811 0 0 1 -93.21911,11.4584 354.9352,354.9352 0 0 0 255.53721,214.1645 359.21054,359.21054 0 0 0 77.41948,7.967 156.00315,156.00315 0 0 1 -31.92236,-91.1547 c -8.97973,-0.9975 -17.94861,-2.4547 -26.74401,-4.337 z"
         id="path12" /><path
         class="cls-2"
         d="m 807.7978,1297.2209 a 356.70056,356.70056 0 0 0 17.87488,-418.5189 157.14405,157.14405 0 0 1 -61.30976,71.80309 267.293,267.293 0 0 1 -8.73685,265.48841 156.34662,156.34662 0 0 1 52.17173,81.2274 z"
         id="path16" /><path
         class="cls-2"
         d="m 218.17628,899.71905 q 4.1505,-0.2277 8.30533,-0.22553 A 157.3464,157.3464 0 0 1 309.164,923.039 265.90648,265.90648 0 0 1 523.2722,808.52964 158.08773,158.08773 0 0 1 556.3482,720.1094 C 419.24532,709.25176 286.02405,780.001 218.17628,899.71905 Z"
         id="path18-4" /></g><g
       style="fill:#ffffff"
       id="g1"
       transform="matrix(0,-0.69420844,0.69420844,0,354.10782,1246.2225)"><circle
         cx="250"
         cy="250"
         r="215"
         fill="none"
         stroke="#ffffff"
         stroke-width="30"
         id="circle1" /><use
         xlink:href="#c"
         transform="rotate(7.5,250,250)"
         id="use1" /><use
         xlink:href="#c"
         transform="rotate(22.5,250,250)"
         id="use2" /><use
         xlink:href="#c"
         transform="rotate(37.5,250,250)"
         id="use3" /><use
         xlink:href="#c"
         transform="rotate(52.5,250,250)"
         id="use4" /><use
         xlink:href="#c"
         transform="rotate(67.5,250,250)"
         id="use5" /><use
         xlink:href="#c"
         transform="rotate(82.5,250,250)"
         id="use6" /><use
         xlink:href="#c"
         transform="rotate(97.5,250,250)"
         id="use7" /><use
         xlink:href="#c"
         transform="rotate(112.5,250,250)"
         id="use8" /><use
         xlink:href="#c"
         transform="rotate(127.5,250,250)"
         id="use9" /><use
         xlink:href="#c"
         transform="rotate(142.5,250,250)"
         id="use10" /><use
         xlink:href="#c"
         transform="rotate(157.5,250,250)"
         id="use11" /><use
         xlink:href="#c"
         transform="rotate(172.5,250,250)"
         id="use12" /><use
         xlink:href="#c"
         transform="rotate(-172.5,250,250)"
         id="use13" /><use
         xlink:href="#c"
         transform="rotate(-157.5,250,250)"
         id="use14" /><use
         xlink:href="#c"
         transform="rotate(-142.5,250,250)"
         id="use15" /><use
         xlink:href="#c"
         transform="rotate(-127.5,250,250)"
         id="use16" /><use
         xlink:href="#c"
         transform="rotate(-112.5,250,250)"
         id="use17" /><use
         xlink:href="#c"
         transform="rotate(-97.5,250,250)"
         id="use18" /><use
         xlink:href="#c"
         transform="rotate(-82.5,250,250)"
         id="use19" /><use
         xlink:href="#c"
         transform="rotate(-67.5,250,250)"
         id="use20" /><use
         xlink:href="#c"
         transform="rotate(-52.5,250,250)"
         id="use21" /><use
         xlink:href="#c"
         transform="rotate(-37.5,250,250)"
         id="use22" /><use
         xlink:href="#c"
         transform="rotate(-22.5,250,250)"
         id="use23" /><use
         xlink:href="#c"
         transform="rotate(-7.5,250,250)"
         id="use24" /><path
         d="M 250,230 243.028,170.304 250,40 l 6.972,130.304 z m 5.176,0.681 8.716,-59.466 40.46,-124.06 -26.99,127.67 z M 260,232.68 283.81,177.495 355,68.135 295.886,184.468 Z m 4.142,3.178 37.281,-47.142 97.07,-87.208 -87.21,97.069 z M 267.32,240 315.532,204.114 431.865,145 322.505,216.19 Z m 1.999,4.824 55.856,-22.186 127.67,-26.99 -124.06,40.46 z M 270,250 329.696,243.028 460,250 329.696,256.972 Z m -0.681,5.176 59.466,8.716 124.06,40.46 -127.67,-26.99 z M 267.32,260 322.505,283.81 431.865,355 315.532,295.886 Z m -3.178,4.142 47.142,37.281 87.208,97.07 -97.069,-87.21 z M 260,267.32 295.886,315.532 355,431.865 283.81,322.505 Z m -4.824,1.999 22.186,55.856 26.99,127.67 -40.46,-124.06 z M 250,270 256.972,329.696 250,460 243.028,329.696 Z m -5.176,-0.681 -8.716,59.466 -40.46,124.06 26.99,-127.67 z M 240,267.32 216.19,322.505 145,431.865 204.114,315.532 Z m -4.142,-3.178 -37.281,47.142 -97.07,87.208 87.21,-97.069 z M 232.68,260 184.468,295.886 68.135,355 177.495,283.81 Z m -1.999,-4.824 -55.856,22.186 -127.67,26.99 124.06,-40.46 z M 230,250 170.304,256.972 40,250 170.304,243.028 Z m 0.681,-5.176 -59.466,-8.716 -124.06,-40.46 127.67,26.99 z M 232.68,240 177.495,216.19 68.135,145 184.468,204.114 Z m 3.178,-4.142 -47.142,-37.281 -87.208,-97.07 97.069,87.21 z M 240,232.68 204.114,184.468 145,68.135 l 71.19,109.36 z m 4.824,-1.999 -22.186,-55.856 -26.99,-127.67 40.46,124.06 z"
         id="path24" /><circle
         cx="250"
         cy="250"
         r="40"
         id="circle24" /></g></g></svg>
